{
copyright = "Copyright (c) 2011 by vernon adams. All rights reserved.";
customParameters = (
{
name = macintoshFONDFamilyID;
value = 128;
},
{
name = macintoshFONDName;
value = "Carter One -500 wt";
},
{
name = openTypeHeadLowestRecPPEM;
value = 8;
},
{
name = openTypeNameDescription;
value = "Copyright (c) 2011 by vernon adams. All rights reserved.";
},
{
name = openTypeNameLicenseURL;
value = "http://scripts.sil.org/OFL";
},
{
name = openTypeNameUniqueID;
value = "vernonadams: Carter One: 2011";
},
{
name = openTypeNameVersion;
value = "Version 1.000";
},
{
name = openTypeOS2CodePageRanges;
value = (
    0,
    4,
    8,
    29,
    56,
    62
);},
{
name = openTypeOS2FamilyClass;
value = (
    10,
    2
);},
{
name = openTypeOS2Panose;
value = (
    3,
    8,
    8,
    2,
    4,
    4,
    5,
    6,
    0,
    5
);},
{
name = openTypeOS2StrikeoutPosition;
value = 512;
},
{
name = openTypeOS2StrikeoutSize;
value = 102;
},
{
name = openTypeOS2SubscriptXOffset;
value = 0;
},
{
name = openTypeOS2SubscriptXSize;
value = 1434;
},
{
name = openTypeOS2SubscriptYOffset;
value = 287;
},
{
name = openTypeOS2SubscriptYSize;
value = 1331;
},
{
name = openTypeOS2SuperscriptXOffset;
value = 0;
},
{
name = openTypeOS2SuperscriptXSize;
value = 1434;
},
{
name = openTypeOS2SuperscriptYOffset;
value = 977;
},
{
name = openTypeOS2SuperscriptYSize;
value = 1331;
},
{
name = openTypeOS2Type;
value = (
);},
{
name = openTypeOS2UnicodeRanges;
value = (
    0,
    1,
    2,
    3,
    5,
    6,
    7,
    31,
    32,
    33,
    35,
    38,
    59,
    62,
    85,
    90,
    92
);},
{
name = openTypeOS2VendorID;
value = newt;
},
{
name = postscriptBlueFuzz;
value = 1;
},
{
name = postscriptBlueScale;
value = 0.03962500000000001;
},
{
name = postscriptBlueShift;
value = 7;
},
{
name = postscriptDefaultWidthX;
value = 500;
},
{
name = postscriptFamilyBlues;
value = (
);},
{
name = postscriptFamilyOtherBlues;
value = (
);},
{
name = postscriptFontName;
value = "CarterOne--500wt";
},
{

glyphs = (
{
glyphname = A;
layers = (
{
anchors = (
{
name = ogonek;
position = "{2048, 10}";
},
{
name = top;
position = "{1138, 1481}";
}
);
layerId = "083AB92F-A21B-420A-A5F3-096AB5C32ED3";
name = Regular;
paths = (
{
closed = 1;
nodes = (
"580 -22 CURVE SMOOTH",
"624 -22 OFFCURVE",
"655 -19 OFFCURVE",
"684 -15 CURVE",
"714 68 OFFCURVE",
"731 101 OFFCURVE",
"759 173 CURVE",
"829 173 OFFCURVE",
"1302 171 OFFCURVE",
"1350 165 CURVE",
"1371 93 OFFCURVE",
"1391 40 OFFCURVE",
"1427 -24 CURVE",
"1466 -26 OFFCURVE",
"1506 -30 OFFCURVE",
"1547 -30 CURVE SMOOTH",
"1566 -30 OFFCURVE",
"1585 -29 OFFCURVE",
"2205 29 CURVE",
"2184 77 OFFCURVE",
"2152 123 OFFCURVE",
"2121 205 CURVE",
"1957 586 OFFCURVE",
"1601 1414 OFFCURVE",
"1596 1431 CURVE",
"1541 1449 OFFCURVE",
"1478 1451 OFFCURVE",
"1415 1451 CURVE SMOOTH",
"1156 1451 OFFCURVE",
"912 1421 OFFCURVE",
"711 1410 CURVE",
"340 599 OFFCURVE",
"122 133 OFFCURVE",
"71 30 CURVE",
"176 19 OFFCURVE",
"537 -22 OFFCURVE"
);
},
{
closed = 1;
nodes = (
"1130 840 OFFCURVE",
"1179 691 OFFCURVE",
"1226 540 CURVE",
"909 540 LINE",
"947 641 OFFCURVE",
"1005 779 OFFCURVE",
"1083 1021 CURVE"
);
}
);
width = 2276;
}
);
leftKerningGroup = A;
rightKerningGroup = A;
unicode = 0041;
},
{
glyphname = AE;
layers = (
{
anchors = (
{
name = top;
position = "{870, 1481}";
}
);
layerId = "083AB92F-A21B-420A-A5F3-096AB5C32ED3";
name = Regular;
paths = (
{
closed = 1;
nodes = (
"1567 809 CURVE",
"1567 856 OFFCURVE",
"1534 856 OFFCURVE",
"1532 856 CURVE SMOOTH",
"1500 856 OFFCURVE",
"1370 850 OFFCURVE",
"1235 845 CURVE",
"1212 1090 LINE",
"1373 1095 OFFCURVE",
"1493 1102 OFFCURVE",
"1593 1105 CURVE SMOOTH",
"1633 1106 OFFCURVE",
"1635 1118 OFFCURVE",
"1639 1141 CURVE SMOOTH",
"1659 1257 LINE SMOOTH",
"1669 1315 OFFCURVE",
"1681 1381 OFFCURVE",
"1681 1403 CURVE SMOOTH",
"1681 1451 OFFCURVE",
"1650 1450 OFFCURVE",
"1645 1450 CURVE SMOOTH",
"1612 1450 OFFCURVE",
"1464 1442 OFFCURVE",
"1329 1434 CURVE SMOOTH",
"1065 1419 LINE",
"1009 1419 OFFCURVE",
"859 1400 OFFCURVE",
"848 1400 CURVE",
"831 1395 OFFCURVE",
"783 1379 OFFCURVE",
"766 1351 CURVE SMOOTH",
"603 1084 OFFCURVE",
"297 530 OFFCURVE",
"297 531 CURVE SMOOTH",
"297 529 OFFCURVE",
"84 530 OFFCURVE",
"84 521 CURVE",
"81 510 OFFCURVE",
"80 496 OFFCURVE",
"80 480 CURVE SMOOTH",
"80 400 OFFCURVE",
"106 324 OFFCURVE",
"133 268 CURVE",
"93 202 LINE SMOOTH",
"70 165 OFFCURVE",
"40 118 OFFCURVE",
"15 83 CURVE",
"71 40 OFFCURVE",
"146 -5 OFFCURVE",
"263 -52 CURVE SMOOTH",
"264 -53 OFFCURVE",
"266 -53 OFFCURVE",
"270 -53 CURVE SMOOTH",
"302 -53 OFFCURVE",
"370 77 OFFCURVE",
"405 131 CURVE SMOOTH",
"424 162 OFFCURVE",
"441 191 OFFCURVE",
"461 220 CURVE",
"518 218 LINE SMOOTH",
"551 217 OFFCURVE",
"593 216 OFFCURVE",
"632 216 CURVE SMOOTH",
"681 216 OFFCURVE",
"695 219 OFFCURVE",
"771 219 CURVE SMOOTH",
"803 219 OFFCURVE",
"850 216 OFFCURVE",
"852 202 CURVE SMOOTH",
"865 123 OFFCURVE",
"870 62 OFFCURVE",
"880 -18 CURVE SMOOTH",
"881 -29 OFFCURVE",
"884 -43 OFFCURVE",
"903 -43 CURVE SMOOTH",
"916 -43 OFFCURVE",
"924 -39 OFFCURVE",
"935 -39 CURVE SMOOTH",
"1109 -31 OFFCURVE",
"1352 -23 OFFCURVE",
"1551 -23 CURVE SMOOTH",
"1613 -23 OFFCURVE",
"1654 -21 OFFCURVE",
"1673 28 CURVE",
"1700 82 OFFCURVE",
"1761 234 OFFCURVE",
"1761 238 CURVE",
"1764 243 OFFCURVE",
"1765 250 OFFCURVE",
"1765 258 CURVE SMOOTH",
"1765 272 OFFCURVE",
"1761 279 OFFCURVE",
"1752 279 CURVE",
"1300 247 LINE",
"1268 532 LINE",
"1407 535 LINE SMOOTH",
"1499 537 OFFCURVE",
"1504 535 OFFCURVE",
"1512 570 CURVE SMOOTH",
"1536 671 OFFCURVE",
"1562 771 OFFCURVE"
);
},
{
closed = 1;
nodes = (
"831 940 LINE",
"831 794 OFFCURVE",
"834 633 OFFCURVE",
"834 511 CURVE",
"634 511 LINE",
"637 517 OFFCURVE",
"638 523 OFFCURVE",
"639 528 CURVE",
"648 546 OFFCURVE",
"695 651 OFFCURVE",
"741 749 CURVE SMOOTH"
);
}
);
width = 1739;
}
);
leftKerningGroup = E1;
rightKerningGroup = E1;
unicode = 00C6;
},
{
glyphname = B;
layers = (
{
layerId = "083AB92F-A21B-420A-A5F3-096AB5C32ED3";
name = Regular;
paths = (
{
closed = 1;
nodes = (
"253 13 CURVE",
"363 -11 OFFCURVE",
"597 -52 OFFCURVE",
"688 -52 CURVE SMOOTH",
"1060 -52 OFFCURVE",
"1432 202 OFFCURVE",
"1432 538 CURVE SMOOTH",
"1432 685 OFFCURVE",
"1354 730 OFFCURVE",
"1225 824 CURVE",
"1316 888 OFFCURVE",
"1422 984 OFFCURVE",
"1422 1093 CURVE SMOOTH",
"1422 1346 OFFCURVE",
"1186 1468 OFFCURVE",
"894 1468 CURVE SMOOTH",
"686 1468 OFFCURVE",
"445 1413 OFFCURVE",
"243 1304 CURVE",
"204 1208 OFFCURVE",
"165 1122 OFFCURVE",
"129 1018 CURVE SMOOTH",
"127 1013 OFFCURVE",
"126 1007 OFFCURVE",
"126 1001 CURVE SMOOTH",
"126 985 OFFCURVE",
"133 969 OFFCURVE",
"150 969 CURVE SMOOTH",
"190 969 OFFCURVE",
"290 1009 OFFCURVE",
"301 1009 CURVE",
"302 1009 LINE",
"273 703 OFFCURVE",
"241 347 OFFCURVE",
"220 60 CURVE SMOOTH",
"220 56 OFFCURVE",
"219 56 OFFCURVE",
"219 52 CURVE SMOOTH",
"219 35 OFFCURVE",
"226 20 OFFCURVE"
);
},
{
closed = 1;
nodes = (
"714 1110 CURVE",
"783 1134 OFFCURVE",
"842 1146 OFFCURVE",
"893 1146 CURVE SMOOTH",
"982 1146 OFFCURVE",
"1031 1086 OFFCURVE",
"1031 977 CURVE SMOOTH",
"1031 900 OFFCURVE",
"923 847 OFFCURVE",
"851 820 CURVE",
"809 753 LINE SMOOTH",
"771 693 OFFCURVE",
"749 660 OFFCURVE",
"749 643 CURVE SMOOTH",
"749 627 OFFCURVE",
"752 616 OFFCURVE",
"771 613 CURVE SMOOTH",
"822 605 OFFCURVE",
"1047 582 OFFCURVE",
"1047 468 CURVE SMOOTH",
"1047 284 OFFCURVE",
"788 233 OFFCURVE",
"629 233 CURVE",
"648 449 OFFCURVE",
"663 795 OFFCURVE"
);
}
);
width = 2197;
}
);
unicode = 0042;
},
{
glyphname = C;
layers = (
{
anchors = (
{
name = bottom;
position = "{850, 0}";
},
{
name = top;
position = "{850, 1481}";
}
);
layerId = "083AB92F-A21B-420A-A5F3-096AB5C32ED3";
name = Regular;
paths = (
{
closed = 1;
nodes = (
"133 702 CURVE SMOOTH",
"133 125 OFFCURVE",
"698 -45 OFFCURVE",
"1236 -45 CURVE SMOOTH",
"1321 -45 OFFCURVE",
"1428 -42 OFFCURVE",
"1536 -30 CURVE",
"1536 409 LINE",
"1442 391 OFFCURVE",
"1327 374 OFFCURVE",
"1262 374 CURVE",
"1055 379 OFFCURVE",
"903 461 OFFCURVE",
"903 710 CURVE SMOOTH",
"903 933 OFFCURVE",
"1059 1015 OFFCURVE",
"1268 1015 CURVE SMOOTH",
"1366 1015 OFFCURVE",
"1456 1008 OFFCURVE",
"1536 997 CURVE",
"1536 1453 LINE",
"1474 1460 OFFCURVE",
"1409 1463 OFFCURVE",
"1343 1463 CURVE SMOOTH",
"1291 1463 OFFCURVE",
"1238 1461 OFFCURVE",
"1185 1457 CURVE SMOOTH",
"665 1415 OFFCURVE",
"133 1246 OFFCURVE"
);
}
);
width = 1700;
}
);
leftKerningGroup = C;
rightKerningGroup = C;
unicode = 0043;
},
{
glyphname = D;
layers = (
{
anchors = (
{
name = center;
position = "{1143, 741}";
},
{
name = top;
position = "{1143, 1481}";
}
);
layerId = "083AB92F-A21B-420A-A5F3-096AB5C32ED3";
name = Regular;
paths = (
{
closed = 1;
nodes = (
"153 -22 CURVE",
"576 -22 LINE SMOOTH",
"720 -22 OFFCURVE",
"864 -19 OFFCURVE",
"1010 -14 CURVE",
"1620 14 OFFCURVE",
"2188 19 OFFCURVE",
"2188 783 CURVE SMOOTH",
"2188 1259 OFFCURVE",
"1797 1454 OFFCURVE",
"1287 1454 CURVE SMOOTH",
"888 1454 OFFCURVE",
"267 1402 OFFCURVE",
"267 1402 CURVE",
"242 746 OFFCURVE",
"169 76 OFFCURVE"
);
},
{
closed = 1;
nodes = (
"955 1064 LINE",
"990 1066 OFFCURVE",
"1097 1072 OFFCURVE",
"1172 1072 CURVE SMOOTH",
"1319 1072 OFFCURVE",
"1490 976 OFFCURVE",
"1490 744 CURVE SMOOTH",
"1490 406 OFFCURVE",
"1278 363 OFFCURVE",
"922 360 CURVE"
);
}
);
width = 2285;
}
);
leftKerningGroup = D;
rightKerningGroup = D;
unicode = 0044;
},
{
glyphname = Eth;
layers = (
{
layerId = "083AB92F-A21B-420A-A5F3-096AB5C32ED3";
name = Regular;
paths = (
{
closed = 1;
nodes = (
"284 829 LINE",
"223 824 OFFCURVE",
"57 574 OFFCURVE",
"57 551 CURVE SMOOTH",
"57 528 OFFCURVE",
"96 523 OFFCURVE",
"176 523 CURVE SMOOTH",
"203 523 OFFCURVE",
"249 523 OFFCURVE",
"306 524 CURVE",
"295 391 OFFCURVE",
"285 241 OFFCURVE",
"282 230 CURVE",
"159 -4 LINE SMOOTH",
"156 -9 OFFCURVE",
"155 -14 OFFCURVE",
"155 -20 CURVE SMOOTH",
"155 -35 OFFCURVE",
"161 -48 OFFCURVE",
"176 -51 CURVE",
"358 -46 LINE",
"906 -22 OFFCURVE",
"1560 162 OFFCURVE",
"1560 846 CURVE SMOOTH",
"1560 1329 OFFCURVE",
"1122 1449 OFFCURVE",
"758 1449 CURVE SMOOTH",
"522 1449 OFFCURVE",
"463 1433 OFFCURVE",
"382 1360 CURVE SMOOTH",
"128 1130 LINE SMOOTH",
"124 1126 OFFCURVE",
"122 1120 OFFCURVE",
"122 1111 CURVE SMOOTH",
"122 1096 OFFCURVE",
"129 1080 OFFCURVE",
"144 1080 CURVE SMOOTH",
"192 1080 OFFCURVE",
"279 1093 OFFCURVE",
"351 1109 CURVE",
"348 1078 OFFCURVE",
"346 1048 OFFCURVE",
"344 1016 CURVE SMOOTH",
"331 831 LINE"
);
},
{
closed = 1;
nodes = (
"757 1130 CURVE",
"769 1137 OFFCURVE",
"790 1146 OFFCURVE",
"806 1146 CURVE SMOOTH",
"1002 1146 OFFCURVE",
"1117 963 OFFCURVE",
"1117 759 CURVE SMOOTH",
"1117 476 OFFCURVE",
"1000 255 OFFCURVE",
"678 255 CURVE",
"702 531 LINE",
"817 534 OFFCURVE",
"813 530 OFFCURVE",
"826 567 CURVE",
"879 689 OFFCURVE",
"933 801 OFFCURVE",
"933 824 CURVE SMOOTH",
"933 847 OFFCURVE",
"916 853 OFFCURVE",
"905 853 CURVE SMOOTH",
"882 853 OFFCURVE",
"813 851 OFFCURVE",
"729 847 CURVE",
"740 968 OFFCURVE",
"750 1070 OFFCURVE"
);
}
);
width = 1548;
}
);
leftKerningGroup = D;
rightKerningGroup = D;
unicode = 00D0;
},
{
glyphname = E;
layers = (
{
anchors = (
{
name = bottom;
position = "{1024, 0}";
},
{
name = ogonek;
position = "{1843, 10}";
},
{
name = top;
position = "{1024, 1481}";
}
);
layerId = "083AB92F-A21B-420A-A5F3-096AB5C32ED3";
name = Regular;
paths = (
{
closed = 1;
nodes = (
"376.004 3 OFFCURVE",
"1042 -22 OFFCURVE",
"1318 -22 CURVE SMOOTH",
"1562 -22 OFFCURVE",
"1695 -23 OFFCURVE",
"1934 -24 CURVE",
"1945 41 OFFCURVE",
"1966 78 OFFCURVE",
"1966 349 CURVE",
"916.004 349 LINE",
"927.004 556 LINE",
"987.004 557 OFFCURVE",
"1045 557 OFFCURVE",
"1104 557 CURVE SMOOTH",
"1434 555 OFFCURVE",
"1514 559 OFFCURVE",
"1519 560 CURVE",
"1543 652 OFFCURVE",
"1565 852 OFFCURVE",
"1562 887 CURVE",
"1535 883 OFFCURVE",
"1508 882 OFFCURVE",
"1482 882 CURVE SMOOTH",
"1455 882 OFFCURVE",
"1430 883 OFFCURVE",
"1406 883 CURVE SMOOTH",
"1285 883 OFFCURVE",
"1115 882 OFFCURVE",
"940.004 880 CURVE",
"946.004 950 OFFCURVE",
"946.004 1004 OFFCURVE",
"952.004 1047 CURVE",
"1294 1049 OFFCURVE",
"1647 1045 OFFCURVE",
"1916 1069 CURVE",
"1957 1436 LINE",
"1897 1449 OFFCURVE",
"1823 1449 OFFCURVE",
"1761 1449 CURVE",
"1043 1433 LINE",
"400.004 1433 LINE",
"315.004 1429 OFFCURVE",
"309.004 1430 OFFCURVE",
"243.004 1428 CURVE",
"243.004 1399 OFFCURVE",
"176.004 -1 OFFCURVE",
"175.004 -2 CURVE",
"174.004 -2 OFFCURVE",
"376.004 3 OFFCURVE",
"376.004 3 CURVE"
);
}
);
width = 2048;
}
);
leftKerningGroup = E;
rightKerningGroup = E;
unicode = 0045;
},
{
glyphname = F;
layers = (
{
layerId = "083AB92F-A21B-420A-A5F3-096AB5C32ED3";
name = Regular;
paths = (
{
closed = 1;
nodes = (
"472 -34 OFFCURVE",
"480 -35 OFFCURVE",
"488 -35 CURVE SMOOTH",
"609 -35 OFFCURVE",
"811 -2 OFFCURVE",
"905 0 CURVE",
"911 47 OFFCURVE",
"909 95 OFFCURVE",
"911 143 CURVE SMOOTH",
"925 512 LINE",
"1288 514 LINE",
"1397 516 OFFCURVE",
"1491 519 OFFCURVE",
"1588 529 CURVE",
"1610 640 OFFCURVE",
"1633 757 OFFCURVE",
"1633 827 CURVE",
"1585 837 OFFCURVE",
"1532 839 OFFCURVE",
"1483 839 CURVE SMOOTH",
"1338 839 OFFCURVE",
"1138 836 OFFCURVE",
"939 834 CURVE",
"941 915 OFFCURVE",
"941 971 OFFCURVE",
"949 1061 CURVE",
"1449 1067 LINE",
"1610 1067 OFFCURVE",
"1772 1067 OFFCURVE",
"1910 1084 CURVE",
"1929 1254 LINE",
"1943 1333 OFFCURVE",
"1951 1393 OFFCURVE",
"1951 1437 CURVE",
"1911 1447 OFFCURVE",
"1858 1449 OFFCURVE",
"1816 1449 CURVE",
"1178 1440 LINE",
"497 1433 LINE",
"393 1429 OFFCURVE",
"293 1424 OFFCURVE",
"210 1420 CURVE",
"190 324 LINE SMOOTH",
"188 217 OFFCURVE",
"178 93 OFFCURVE",
"177 -14 CURVE",
"267 -24 OFFCURVE",
"372 -25 OFFCURVE",
"465 -34 CURVE"
);
}
);
width = 1912;
}
);
unicode = 0046;
},
{
glyphname = G;
layers = (
{
anchors = (
{
name = bottom;
position = "{1087, 0}";
},
{
name = top;
position = "{1087, 1481}";
}
);
layerId = "083AB92F-A21B-420A-A5F3-096AB5C32ED3";
name = Regular;
paths = (
{
closed = 1;
nodes = (
"130 690 CURVE SMOOTH",
"130 180 OFFCURVE",
"631 -45 OFFCURVE",
"1158 -45 CURVE SMOOTH",
"1338 -45 OFFCURVE",
"1588 -13 OFFCURVE",
"1762 264 CURVE",
"1762 264 OFFCURVE",
"1777 21 OFFCURVE",
"1810 -10 CURVE",
"1810 -10 OFFCURVE",
"1960 0 OFFCURVE",
"1995 0 CURVE",
"2059 487 OFFCURVE",
"2098 729 OFFCURVE",
"2098 777 CURVE",
"2060 786 OFFCURVE",
"1352 787 OFFCURVE",
"1317 790 CURVE",
"1288 750 OFFCURVE",
"1279 707 OFFCURVE",
"1251 501 CURVE",
"1486 501 LINE",
"1449 430 OFFCURVE",
"1367 361 OFFCURVE",
"1227 361 CURVE SMOOTH",
"1031 361 OFFCURVE",
"901 476 OFFCURVE",
"901 705 CURVE SMOOTH",
"901 994 OFFCURVE",
"1147 1047 OFFCURVE",
"1353 1047 CURVE SMOOTH",
"1484 1047 OFFCURVE",
"1716 1027 OFFCURVE",
"1792 1008 CURVE",
"1852 1404 LINE",
"1715 1439 OFFCURVE",
"1401 1466 OFFCURVE",
"1271 1466 CURVE SMOOTH",
"705 1466 OFFCURVE",
"130 1274 OFFCURVE"
);
}
);
width = 2173;
}
);
leftKerningGroup = G;
rightKerningGroup = G;
unicode = 0047;
},
{
glyphname = H;
layers = (
{
anchors = (
{
name = center;
position = "{1168, 741}";
},
{
name = top;
position = "{1168, 1481}";
}
);
layerId = "083AB92F-A21B-420A-A5F3-096AB5C32ED3";
name = Regular;
paths = (
{
closed = 1;
nodes = (
"280 1410 LINE",
"276 1350 LINE",
"259 1184 OFFCURVE",
"252 1074 OFFCURVE",
"246 966 CURVE SMOOTH",
"227 456 LINE",
"227 441 OFFCURVE",
"225 417 OFFCURVE",
"225 402 CURVE SMOOTH",
"220 261 OFFCURVE",
"216 110 OFFCURVE",
"216 -10 CURVE",
"260 -24 OFFCURVE",
"314 -30 OFFCURVE",
"366 -30 CURVE SMOOTH",
"456 -30 OFFCURVE",
"583 -14 OFFCURVE",
"700 0 CURVE SMOOTH",
"774 1 OFFCURVE",
"852 2 OFFCURVE",
"906 2 CURVE",
"932 432 LINE",
"1466 432 LINE",
"1457 317 OFFCURVE",
"1452 216 OFFCURVE",
"1452 101 CURVE SMOOTH",
"1452 46 OFFCURVE",
"1460 -2 OFFCURVE",
"1468 -48 CURVE",
"1543 -48 OFFCURVE",
"1649 -41 OFFCURVE",
"1735 -34 CURVE",
"2015 -20 OFFCURVE",
"2094 -11 OFFCURVE",
"2170 2 CURVE",
"2187 698 OFFCURVE",
"2191 677 OFFCURVE",
"2191 717 CURVE SMOOTH",
"2191 792 OFFCURVE",
"2228 1434 OFFCURVE",
"2227 1454 CURVE",
"1651 1419 LINE",
"1609 1418 OFFCURVE",
"1544 1415 OFFCURVE",
"1499 1409 CURVE",
"1499 1325 LINE",
"1499 1318 OFFCURVE",
"1500 1310 OFFCURVE",
"1500 1303 CURVE SMOOTH",
"1500 1235 OFFCURVE",
"1498 1142 OFFCURVE",
"1478 943 CURVE",
"940 943 LINE",
"964 1152 OFFCURVE",
"969 1225 OFFCURVE",
"974 1318 CURVE SMOOTH",
"975 1356 OFFCURVE",
"976 1407 OFFCURVE",
"978 1453 CURVE",
"922 1456 OFFCURVE",
"373 1437 OFFCURVE",
"292 1424 CURVE"
);
}
);
width = 2335.02;
}
);
unicode = 0048;
},
{
glyphname = I;
layers = (
{
anchors = (
{
name = ogonek;
position = "{919, 10}";
},
{
name = top;
position = "{511, 1481}";
}
);
layerId = "083AB92F-A21B-420A-A5F3-096AB5C32ED3";
name = Regular;
paths = (
{
closed = 1;
nodes = (
"882 1449 CURVE",
"825 1449 OFFCURVE",
"767 1447 OFFCURVE",
"708 1447 CURVE",
"357 1405 LINE",
"282 1404 OFFCURVE",
"225 1397 OFFCURVE",
"165 1368 CURVE",
"168 1353 OFFCURVE",
"169 1334 OFFCURVE",
"169 1312 CURVE SMOOTH",
"169 1177 OFFCURVE",
"158 1003 OFFCURVE",
"148 789 CURVE",
"130 153 LINE",
"130 86 OFFCURVE",
"136 26 OFFCURVE",
"145 -30 CURVE",
"275 -30 OFFCURVE",
"524 15 OFFCURVE",
"643 15 CURVE SMOOTH",
"663 15 LINE SMOOTH",
"729 17 OFFCURVE",
"788 25 OFFCURVE",
"851 32 CURVE",
"850 38 OFFCURVE",
"850 45 OFFCURVE",
"850 51 CURVE SMOOTH",
"850 72 OFFCURVE",
"852 92 OFFCURVE",
"853 112 CURVE SMOOTH",
"866 578 LINE",
"879 835 OFFCURVE",
"877 1010 OFFCURVE",
"893 1262 CURVE",
"893 1333 OFFCURVE",
"890 1393 OFFCURVE"
);
}
);
width = 1021;
}
);
leftKerningGroup = I;
rightKerningGroup = I;
unicode = 0049;
},
{
glyphname = J;
layers = (
{
anchors = (
{
name = top;
position = "{642, 1481}";
}
);
layerId = "083AB92F-A21B-420A-A5F3-096AB5C32ED3";
name = Regular;
paths = (
{
closed = 1;
nodes = (
"1187 1452 CURVE",
"1132 1450 OFFCURVE",
"1075 1447 OFFCURVE",
"1021 1447 CURVE",
"552 1408 LINE",
"492 1408 OFFCURVE",
"436 1406 OFFCURVE",
"383 1401 CURVE",
"386 1349 OFFCURVE",
"386 1296 OFFCURVE",
"387 1247 CURVE",
"387 997.979 OFFCURVE",
"385 729.314 OFFCURVE",
"385 689 CURVE SMOOTH",
"385 413 OFFCURVE",
"295 274 OFFCURVE",
"74 236 CURVE",
"181 21 OFFCURVE",
"263 -109 OFFCURVE",
"276 -129 CURVE",
"672 -96 OFFCURVE",
"932 25 OFFCURVE",
"1083 284 CURVE",
"1153 402 OFFCURVE",
"1155 569 OFFCURVE",
"1169 854 CURVE SMOOTH",
"1192 1315 LINE",
"1191 1364 OFFCURVE",
"1191 1409 OFFCURVE"
);
}
);
width = 1283;
}
);
unicode = 004A;
},
{
glyphname = K;
layers = (
{
anchors = (
{
name = bottom;
position = "{1089, 0}";
},
{
name = top;
position = "{1089, 1481}";
}
);
layerId = "083AB92F-A21B-420A-A5F3-096AB5C32ED3";
name = Regular;
paths = (
{
closed = 1;
nodes = (
"1552 -122 CURVE SMOOTH",
"1591 -122 OFFCURVE",
"1567 -114 OFFCURVE",
"1622 -77 CURVE",
"1743 -18 OFFCURVE",
"2043 163 OFFCURVE",
"2043 202 CURVE SMOOTH",
"2043 220 OFFCURVE",
"2043 238 OFFCURVE",
"1902 376 CURVE",
"1791 505 OFFCURVE",
"1684 608 OFFCURVE",
"1577 726 CURVE",
"1967 1171 LINE SMOOTH",
"2023 1235 OFFCURVE",
"2067 1268 OFFCURVE",
"2079 1305 CURVE",
"2079 1312 LINE",
"1780 1432 LINE",
"1482 1530 LINE",
"1421 1450 LINE",
"950 887 OFFCURVE",
"1247 1225 OFFCURVE",
"950 891 CURVE",
"954 1008 OFFCURVE",
"957 1125 OFFCURVE",
"967 1262 CURVE",
"967 1333 OFFCURVE",
"964 1393 OFFCURVE",
"955 1449 CURVE",
"923 1449 OFFCURVE",
"891 1450 OFFCURVE",
"858 1450 CURVE",
"694 1450 OFFCURVE",
"279 1397 OFFCURVE",
"217 1368 CURVE",
"220 1353 OFFCURVE",
"221 1334 OFFCURVE",
"221 1312 CURVE SMOOTH",
"221 1177 OFFCURVE",
"210 1003 OFFCURVE",
"200 789 CURVE",
"181 153 LINE",
"181 86 OFFCURVE",
"187 26 OFFCURVE",
"196 -30 CURVE",
"330 -30 OFFCURVE",
"859 26 OFFCURVE",
"923 32 CURVE",
"923 36 LINE",
"923 56 OFFCURVE",
"927 148 OFFCURVE",
"939 582 CURVE",
"980 518 OFFCURVE",
"1019 461 OFFCURVE",
"1031 448 CURVE",
"1165 278 OFFCURVE",
"1239 193 OFFCURVE",
"1390 5 CURVE SMOOTH",
"1472 -98 OFFCURVE",
"1521 -122 OFFCURVE"
);
},
{
closed = 1;
nodes = (
"2082 1311 LINE",
"2082 1311 OFFCURVE",
"2080 1312 OFFCURVE",
"2079 1314 CURVE",
"2079 1312 LINE"
);
}
);
width = 2178;
}
);
unicode = 004B;
},
{
glyphname = L;
layers = (
{
anchors = (
{
name = bottom;
position = "{951, 0}";
},
{
name = top;
position = "{951, 1481}";
}
);
layerId = "083AB92F-A21B-420A-A5F3-096AB5C32ED3";
name = Regular;
paths = (
{
closed = 1;
nodes = (
"144 -15 CURVE",
"215 -20 OFFCURVE",
"292 -22 OFFCURVE",
"377 -22 CURVE",
"746 -19 OFFCURVE",
"1790 -21 OFFCURVE",
"1847 -21 CURVE",
"1875 200 LINE",
"1888 279 OFFCURVE",
"1888 323 OFFCURVE",
"1888 367 CURVE",
"1830 376 OFFCURVE",
"1769 380 OFFCURVE",
"1698 380 CURVE SMOOTH",
"1693 380 OFFCURVE",
"1686 379 OFFCURVE",
"1678 378 CURVE",
"914 360 LINE",
"928 624 OFFCURVE",
"938 758 OFFCURVE",
"942 950 CURVE",
"942 1004 OFFCURVE",
"947 1153 OFFCURVE",
"961 1268 CURVE",
"961 1288 OFFCURVE",
"962 1308 OFFCURVE",
"962 1326 CURVE SMOOTH",
"962 1371 OFFCURVE",
"960 1412 OFFCURVE",
"955 1450 CURVE",
"895 1453 OFFCURVE",
"836 1457 OFFCURVE",
"779 1458 CURVE",
"507 1427 LINE",
"392 1411 OFFCURVE",
"299 1415 OFFCURVE",
"212 1385 CURVE",
"212 1323 OFFCURVE",
"211 1240 OFFCURVE",
"208 1128 CURVE SMOOTH",
"200 838 LINE SMOOTH",
"197 751 OFFCURVE",
"191 659 OFFCURVE",
"187 570 CURVE",
"177 243 LINE",
"162 153 OFFCURVE",
"144 58 OFFCURVE"
);
}
);
width = 1901;
}
);
leftKerningGroup = L;
rightKerningGroup = L;
unicode = 004C;
},
{
glyphname = M;
layers = (
{
layerId = "083AB92F-A21B-420A-A5F3-096AB5C32ED3";
name = Regular;
paths = (
{
closed = 1;
nodes = (
"147 173 CURVE SMOOTH",
"142 121 OFFCURVE",
"134 56 OFFCURVE",
"134 17 CURVE",
"238 2 OFFCURVE",
"448 -29 OFFCURVE",
"591 -29 CURVE SMOOTH",
"670 -29 OFFCURVE",
"740 -27 OFFCURVE",
"807 -24 CURVE",
"880 615 LINE",
"977 399 OFFCURVE",
"1176 27 OFFCURVE",
"1176 27 CURVE",
"1248 27 OFFCURVE",
"1321 16 OFFCURVE",
"1394 16 CURVE SMOOTH",
"1419 16 OFFCURVE",
"1445 17 OFFCURVE",
"1470 21 CURVE",
"1876 653 LINE",
"1893 498 LINE",
"1898 346 OFFCURVE",
"1939 -29 OFFCURVE",
"1939 -29 CURVE",
"2099 -29 OFFCURVE",
"2382 2 OFFCURVE",
"2544 13 CURVE",
"2550 136 LINE",
"2521 580 LINE",
"2515 798 OFFCURVE",
"2498 1035 OFFCURVE",
"2472 1427 CURVE",
"1725 1474 LINE",
"1331 779 LINE",
"1009 1370 LINE",
"973 1447 LINE",
"824 1436 OFFCURVE",
"232 1426 OFFCURVE",
"220 1427 CURVE",
"170 471 OFFCURVE",
"160 306 OFFCURVE"
);
}
);
width = 2687;
}
);
unicode = 004D;
},
{
glyphname = N;
layers = (
{
anchors = (
{
name = bottom;
position = "{1184, 0}";
},
{
name = top;
position = "{1184, 1481}";
}
);
layerId = "083AB92F-A21B-420A-A5F3-096AB5C32ED3";
name = Regular;
paths = (
{
closed = 1;
nodes = (
"187 1391 LINE",
"187 1342 OFFCURVE",
"188 1119 OFFCURVE",
"187 1077 CURVE SMOOTH",
"176 762 OFFCURVE",
"165 427 OFFCURVE",
"154 137 CURVE",
"154 75 OFFCURVE",
"161 21 OFFCURVE",
"169 -29 CURVE",
"375 -29 OFFCURVE",
"622 22 OFFCURVE",
"773 32 CURVE",
"772 43 OFFCURVE",
"772 53 OFFCURVE",
"787 623 CURVE",
"1532 -45 LINE",
"2058 50 OFFCURVE",
"2140 47 OFFCURVE",
"2229 62 CURVE",
"2218 113 OFFCURVE",
"2217 169 OFFCURVE",
"2217 228 CURVE",
"2217 229 LINE",
"2220 455 LINE SMOOTH",
"2222 616 OFFCURVE",
"2224 808 OFFCURVE",
"2224 958 CURVE SMOOTH",
"2224 1058 OFFCURVE",
"2226 1201 OFFCURVE",
"2233 1278 CURVE",
"2233 1342 OFFCURVE",
"2228 1397 OFFCURVE",
"2222 1447 CURVE",
"2172 1447 OFFCURVE",
"2120 1446 OFFCURVE",
"2071 1445 CURVE",
"1636 1420 LINE",
"1624 1380 OFFCURVE",
"1623 1334 OFFCURVE",
"1620 1279 CURVE",
"1620 839 LINE",
"1468 1016 OFFCURVE",
"1098 1433 OFFCURVE",
"1066 1470 CURVE"
);
}
);
width = 2368;
}
);
leftKerningGroup = N;
rightKerningGroup = N;
unicode = 004E;
},
{
glyphname = O;
layers = (
{
anchors = (
{
name = top;
position = "{1259, 1481}";
}
);
layerId = "083AB92F-A21B-420A-A5F3-096AB5C32ED3";
name = Regular;
paths = (
{
closed = 1;
nodes = (
"100 106 OFFCURVE",
"721 -45 OFFCURVE",
"1209 -45 CURVE SMOOTH",
"1731 -45 OFFCURVE",
"2413 113 OFFCURVE",
"2413 753 CURVE SMOOTH",
"2413 1357 OFFCURVE",
"1746 1489 OFFCURVE",
"1207 1481 CURVE SMOOTH",
"738 1474 OFFCURVE",
"100 1246 OFFCURVE",
"100 689 CURVE SMOOTH"
);
},
{
closed = 1;
nodes = (
"1620 484 OFFCURVE",
"1488 368 OFFCURVE",
"1257 361 CURVE",
"1040 361 OFFCURVE",
"901 454 OFFCURVE",
"901 705 CURVE",
"903 944 OFFCURVE",
"1043 1066 OFFCURVE",
"1268 1066 CURVE SMOOTH",
"1477 1066 OFFCURVE",
"1620 989 OFFCURVE",
"1620 742 CURVE SMOOTH"
);
}
);
width = 2518;
}
);
leftKerningGroup = O;
rightKerningGroup = O;
unicode = 004F;
},
{
glyphname = Oslash;
layers = (
{
anchors = (
{
name = top;
position = "{812, 1481}";
}
);
layerId = "083AB92F-A21B-420A-A5F3-096AB5C32ED3";
name = Regular;
paths = (
{
closed = 1;
nodes = (
"778 -51 CURVE SMOOTH",
"1243 -51 OFFCURVE",
"1620 274 OFFCURVE",
"1620 764 CURVE SMOOTH",
"1620 1000 OFFCURVE",
"1513 1206 OFFCURVE",
"1340 1329 CURVE",
"1418 1487 LINE",
"1418 1490 LINE SMOOTH",
"1418 1497 OFFCURVE",
"1411 1500 OFFCURVE",
"1403 1503 CURVE",
"1332 1516 OFFCURVE",
"1263 1557 OFFCURVE",
"1191 1586 CURVE",
"1184 1586 LINE SMOOTH",
"1159 1586 OFFCURVE",
"1129 1501 OFFCURVE",
"1094 1434 CURVE",
"1047 1443 OFFCURVE",
"1001 1448 OFFCURVE",
"955 1448 CURVE SMOOTH",
"507 1448 OFFCURVE",
"123 1136 OFFCURVE",
"123 665 CURVE SMOOTH",
"123 412 OFFCURVE",
"231 180 OFFCURVE",
"422 53 CURVE",
"390 -8 OFFCURVE",
"347 -87 OFFCURVE",
"347 -111 CURVE SMOOTH",
"347 -145 OFFCURVE",
"425 -165 OFFCURVE",
"445 -173 CURVE SMOOTH",
"546 -215 LINE",
"555 -220 OFFCURVE",
"564 -222 OFFCURVE",
"572 -222 CURVE SMOOTH",
"592 -222 OFFCURVE",
"590 -201 OFFCURVE",
"601 -178 CURVE SMOOTH",
"667 -42 LINE",
"703 -48 OFFCURVE",
"740 -51 OFFCURVE"
);
},
{
closed = 1;
nodes = (
"564 682 CURVE SMOOTH",
"564 856 OFFCURVE",
"641 1155 OFFCURVE",
"885 1155 CURVE SMOOTH",
"908 1155 OFFCURVE",
"931 1152 OFFCURVE",
"952 1148 CURVE",
"850 941 LINE SMOOTH",
"753 744 OFFCURVE",
"706 624 OFFCURVE",
"612 435 CURVE",
"577 511 OFFCURVE",
"564 597 OFFCURVE"
);
},
{
closed = 1;
nodes = (
"1198 756 CURVE SMOOTH",
"1198 542 OFFCURVE",
"1139 276 OFFCURVE",
"883 256 CURVE",
"859 256 OFFCURVE",
"837 258 OFFCURVE",
"817 262 CURVE",
"1159 960 LINE",
"1186 899 OFFCURVE",
"1198 828 OFFCURVE"
);
}
);
width = 1623;
}
);
leftKerningGroup = O;
rightKerningGroup = O;
unicode = 00D8;
},
{
glyphname = OE;
layers = (
{
anchors = (
{
name = top;
position = "{1687, 1481}";
}
);
layerId = "083AB92F-A21B-420A-A5F3-096AB5C32ED3";
name = Regular;
paths = (
{
closed = 1;
nodes = (
"2798 -23 CURVE SMOOTH",
"2911 -23 OFFCURVE",
"3039 -23 OFFCURVE",
"3182 -34 CURVE",
"3206 14 OFFCURVE",
"3216 58 OFFCURVE",
"3217 133 CURVE",
"3226 156 OFFCURVE",
"3262 230 OFFCURVE",
"3262 246 CURVE SMOOTH",
"3262 248 OFFCURVE",
"3262 249 OFFCURVE",
"3261 249 CURVE",
"3261 350 LINE",
"2354 350 LINE",
"2365 548 LINE",
"2600 553 OFFCURVE",
"2792 542 OFFCURVE",
"2999 565 CURVE",
"3022 679 OFFCURVE",
"3044 790 OFFCURVE",
"3044 863 CURVE",
"2986 873 OFFCURVE",
"2919 875 OFFCURVE",
"2855 875 CURVE SMOOTH",
"2725 875 OFFCURVE",
"2552 873 OFFCURVE",
"2377 871 CURVE",
"2389 1031 LINE",
"2667 1034 OFFCURVE",
"2960 1034 OFFCURVE",
"3191 1036 CURVE",
"3217 1121 OFFCURVE",
"3243 1344 OFFCURVE",
"3243 1427 CURVE",
"3231 1426 OFFCURVE",
"3219 1426 OFFCURVE",
"3208 1426 CURVE SMOOTH",
"3168 1426 OFFCURVE",
"3133 1428 OFFCURVE",
"3096 1431 CURVE SMOOTH",
"2946 1441 OFFCURVE",
"2817 1443 OFFCURVE",
"2720 1445 CURVE",
"2044 1435 OFFCURVE",
"1746 1429 OFFCURVE",
"1528 1417 CURVE",
"1410 1392 LINE",
"1377 1446 OFFCURVE",
"1330 1443 OFFCURVE",
"1265 1443 CURVE SMOOTH",
"762 1443 OFFCURVE",
"141 1249 OFFCURVE",
"141 698 CURVE SMOOTH",
"141 181 OFFCURVE",
"632 -17 OFFCURVE",
"1102 -17 CURVE SMOOTH",
"1223 -17 OFFCURVE",
"1336 1 OFFCURVE",
"1438 34 CURVE",
"1432 4 LINE",
"1431 3 OFFCURVE",
"1430 2 OFFCURVE",
"1430 1 CURVE SMOOTH",
"1430 -13 OFFCURVE",
"1575 -21 OFFCURVE"
);
},
{
closed = 1;
nodes = (
"942 705 CURVE SMOOTH",
"942 936 OFFCURVE",
"1068 1088 OFFCURVE",
"1303 1088 CURVE SMOOTH",
"1400 1088 OFFCURVE",
"1638 1056 OFFCURVE",
"1641 1016 CURVE",
"1641 967 OFFCURVE",
"1640 931 OFFCURVE",
"1640 900 CURVE SMOOTH",
"1640 827 OFFCURVE",
"1641 782 OFFCURVE",
"1641 669 CURVE SMOOTH",
"1641 592 OFFCURVE",
"1642 572 OFFCURVE",
"1652 436 CURVE",
"1652 382 OFFCURVE",
"1424 340 OFFCURVE",
"1302 340 CURVE SMOOTH",
"1074 340 OFFCURVE",
"942 463 OFFCURVE"
);
}
);
width = 3373;
}
);
leftKerningGroup = E1;
rightKerningGroup = E1;
unicode = 0152;
},
{
glyphname = P;
layers = (
{
layerId = "083AB92F-A21B-420A-A5F3-096AB5C32ED3";
name = Regular;
paths = (
{
closed = 1;
nodes = (
"1359 1071 OFFCURVE",
"1463 1057 OFFCURVE",
"1463 936 CURVE SMOOTH",
"1463 835 OFFCURVE",
"1372 773 OFFCURVE",
"1162 773 CURVE SMOOTH",
"1102 773 OFFCURVE",
"1032 778 OFFCURVE",
"952 789 CURVE",
"952 803 OFFCURVE",
"953 898 OFFCURVE",
"966 1044 CURVE",
"994 1058 OFFCURVE",
"1221 1071 OFFCURVE",
"1265 1071 CURVE SMOOTH"
);
},
{
closed = 1;
nodes = (
"462 -13 OFFCURVE",
"820 12 OFFCURVE",
"919 19 CURVE",
"940 447 LINE",
"987 447 OFFCURVE",
"1178 441 OFFCURVE",
"1306 441 CURVE SMOOTH",
"1732 441 OFFCURVE",
"2177 532 OFFCURVE",
"2177 939 CURVE SMOOTH",
"2177 1349 OFFCURVE",
"1754 1453 OFFCURVE",
"1331 1453 CURVE SMOOTH",
"987 1453 OFFCURVE",
"595 1421 OFFCURVE",
"265 1363 CURVE",
"259 1109 OFFCURVE",
"245 470 OFFCURVE",
"237 270 CURVE",
"234 98 LINE SMOOTH",
"233 64 OFFCURVE",
"232 28 OFFCURVE",
"229 -9 CURVE",
"240 -12 OFFCURVE",
"266 -13 OFFCURVE",
"302 -13 CURVE SMOOTH"
);
}
);
width = 2260;
}
);
unicode = 0050;
},
{
glyphname = Thorn;
layers = (
{
layerId = "083AB92F-A21B-420A-A5F3-096AB5C32ED3";
name = Regular;
paths = (
{
closed = 1;
nodes = (
"1338 929 CURVE SMOOTH",
"1338 1273 OFFCURVE",
"1078 1372 OFFCURVE",
"775 1372 CURVE SMOOTH",
"745 1372 OFFCURVE",
"711 1371 OFFCURVE",
"673 1369 CURVE",
"681 1486 OFFCURVE",
"686 1531 OFFCURVE",
"691 1610 CURVE",
"691 1637 OFFCURVE",
"680 1644 OFFCURVE",
"661 1644 CURVE SMOOTH",
"638 1644 OFFCURVE",
"609 1637 OFFCURVE",
"592 1631 CURVE SMOOTH",
"517 1602 OFFCURVE",
"309 1538 OFFCURVE",
"309 1529 CURVE",
"292 1498 LINE",
"270 1294 LINE",
"251 1283 OFFCURVE",
"242 1272 OFFCURVE",
"241 1259 CURVE",
"219 1181 OFFCURVE",
"173 1009 OFFCURVE",
"173 1009 CURVE",
"173 997 OFFCURVE",
"180 991 OFFCURVE",
"194 991 CURVE SMOOTH",
"198 991 OFFCURVE",
"210 992 OFFCURVE",
"230 994 CURVE",
"222 874 OFFCURVE",
"210 722 OFFCURVE",
"194 521 CURVE SMOOTH",
"178 319 LINE SMOOTH",
"169 206 OFFCURVE",
"160 72 OFFCURVE",
"154 -18 CURVE",
"154 -45 OFFCURVE",
"165 -52 OFFCURVE",
"184 -52 CURVE SMOOTH",
"207 -52 OFFCURVE",
"234 -46 OFFCURVE",
"253 -39 CURVE SMOOTH",
"330 -11 OFFCURVE",
"532 52 OFFCURVE",
"536 63 CURVE",
"553 94 LINE",
"580 368 LINE",
"607 365 OFFCURVE",
"632 364 OFFCURVE",
"659 364 CURVE SMOOTH",
"975 364 OFFCURVE",
"1338 562 OFFCURVE"
);
},
{
closed = 1;
nodes = (
"608 665 CURVE",
"617 752 OFFCURVE",
"643 1027 OFFCURVE",
"643 1029 CURVE SMOOTH",
"646 1052 OFFCURVE",
"702 1060 OFFCURVE",
"739 1060 CURVE SMOOTH",
"843 1060 OFFCURVE",
"914 1017 OFFCURVE",
"914 924 CURVE SMOOTH",
"914 731 OFFCURVE",
"724 637 OFFCURVE",
"634 637 CURVE SMOOTH",
"610 637 OFFCURVE",
"608 650 OFFCURVE"
);
}
);
width = 1286;
}
);
unicode = 00DE;
},
{
glyphname = Q;
layers = (
{
layerId = "083AB92F-A21B-420A-A5F3-096AB5C32ED3";
name = Regular;
paths = (
{
closed = 1;
nodes = (
"1264 401 CURVE",
"1264 395 OFFCURVE",
"1274 383 OFFCURVE",
"1287 368 CURVE SMOOTH",
"1291 362 LINE",
"1290 362 OFFCURVE",
"1289 363 OFFCURVE",
"1288 363 CURVE SMOOTH",
"1287 363 OFFCURVE",
"1286 362 OFFCURVE",
"1284 361 CURVE",
"1068 361 OFFCURVE",
"930 456 OFFCURVE",
"930 705 CURVE SMOOTH",
"930 952 OFFCURVE",
"1063 1067 OFFCURVE",
"1287 1067 CURVE SMOOTH",
"1512 1067 OFFCURVE",
"1647 982 OFFCURVE",
"1647 742 CURVE SMOOTH",
"1647 763 OFFCURVE",
"1651 788 OFFCURVE",
"1659 808 CURVE",
"1674 792 OFFCURVE",
"1670 795 OFFCURVE",
"1670 787 CURVE SMOOTH",
"1670 728 OFFCURVE",
"1662 661 OFFCURVE",
"1639 607 CURVE",
"1607 403 OFFCURVE",
"1357 471 OFFCURVE"
);
},
{
closed = 1;
nodes = (
"1398 -13 CURVE",
"1413 -30 OFFCURVE",
"1451 -75 OFFCURVE",
"1464 -75 CURVE SMOOTH",
"1465 -75 OFFCURVE",
"1466 -75 OFFCURVE",
"1467 -74 CURVE SMOOTH",
"1470 -73 OFFCURVE",
"1621 4 OFFCURVE",
"1620 31 CURVE SMOOTH",
"1619 44 OFFCURVE",
"1582 86 OFFCURVE",
"1536 136 CURVE",
"1713 226 OFFCURVE",
"1889 262 OFFCURVE",
"2097 365 CURVE",
"2097 361 OFFCURVE",
"2110 346 OFFCURVE",
"2126 329 CURVE",
"2302 430 OFFCURVE",
"2434 587 OFFCURVE",
"2434 833 CURVE SMOOTH",
"2434 1034 OFFCURVE",
"2303 1164 OFFCURVE",
"2117 1234 CURVE",
"1898 1409 OFFCURVE",
"1655 1469 OFFCURVE",
"1242 1505 CURVE",
"1232 1497 OFFCURVE",
"1235 1456 OFFCURVE",
"1222 1456 CURVE",
"752 1418 OFFCURVE",
"127 1248 OFFCURVE",
"127 689 CURVE SMOOTH",
"127 166 OFFCURVE",
"587 -38 OFFCURVE",
"1085 -38 CURVE SMOOTH",
"1195 -38 OFFCURVE",
"1300 -28 OFFCURVE"
);
}
);
width = 2516;
}
);
unicode = 0051;
},
{
glyphname = R;
layers = (
{
anchors = (
{
name = bottom;
position = "{1139, 0}";
},
{
name = top;
position = "{1139, 1481}";
}
);
layerId = "083AB92F-A21B-420A-A5F3-096AB5C32ED3";
name = Regular;
paths = (
{
closed = 1;
nodes = (
"174 1394 CURVE",
"164 811 LINE",
"158 646 LINE SMOOTH",
"149 406 OFFCURVE",
"138 166 OFFCURVE",
"138 -15 CURVE",
"211 -26 OFFCURVE",
"291 -30 OFFCURVE",
"372 -30 CURVE SMOOTH",
"477 -30 OFFCURVE",
"701 -7 OFFCURVE",
"826 0 CURVE",
"833 1 OFFCURVE",
"833 5 OFFCURVE",
"833 9 CURVE SMOOTH",
"850 522 LINE",
"972 522 OFFCURVE",
"1095 544 OFFCURVE",
"1095 544 CURVE",
"1147 421 OFFCURVE",
"1333 27 OFFCURVE",
"1391 -49 CURVE",
"1414 -64 OFFCURVE",
"1456 -70 OFFCURVE",
"1508 -70 CURVE SMOOTH",
"1696 -70 OFFCURVE",
"2025 8 OFFCURVE",
"2172 19 CURVE",
"2031 195 OFFCURVE",
"1806 472 OFFCURVE",
"1673 617 CURVE",
"1868 673 OFFCURVE",
"2068 808 OFFCURVE",
"2068 1027 CURVE SMOOTH",
"2068 1415 OFFCURVE",
"1652 1449 OFFCURVE",
"1193 1449 CURVE SMOOTH",
"283 1394 OFFCURVE",
"188 1394 OFFCURVE"
);
},
{
closed = 1;
nodes = (
"885 1064 LINE",
"961 1067 OFFCURVE",
"1017 1070 OFFCURVE",
"1115 1070 CURVE SMOOTH",
"1202 1070 OFFCURVE",
"1357 1057 OFFCURVE",
"1357 954 CURVE SMOOTH",
"1357 803 OFFCURVE",
"1135 812 OFFCURVE",
"868 782 CURVE"
);
}
);
width = 2278;
}
);
unicode = 0052;
},
{
glyphname = S;
layers = (
{
anchors = (
{
name = bottom;
position = "{1075, 0}";
},
{
name = top;
position = "{1075, 1481}";
}
);
layerId = "083AB92F-A21B-420A-A5F3-096AB5C32ED3";
name = Regular;
paths = (
{
closed = 1;
nodes = (
"1006 -51 CURVE",
"1611 -51 OFFCURVE",
"2043 69 OFFCURVE",
"2043 454 CURVE SMOOTH",
"2043 837 OFFCURVE",
"1511 879 OFFCURVE",
"1075 950 CURVE SMOOTH",
"945 971 OFFCURVE",
"873 979 OFFCURVE",
"873 1019 CURVE SMOOTH",
"873 1082 OFFCURVE",
"1014 1085 OFFCURVE",
"1092 1085 CURVE SMOOTH",
"1242 1085 OFFCURVE",
"1528 1043 OFFCURVE",
"1815 968 CURVE",
"1854 1053 OFFCURVE",
"1880 1161 OFFCURVE",
"1927 1330 CURVE",
"1775 1423 OFFCURVE",
"1444 1465 OFFCURVE",
"1203 1465 CURVE SMOOTH",
"700 1465 OFFCURVE",
"120 1421 OFFCURVE",
"120 985 CURVE SMOOTH",
"120 574 OFFCURVE",
"630 534 OFFCURVE",
"1173 450 CURVE SMOOTH",
"1195 447 OFFCURVE",
"1246 445 OFFCURVE",
"1246 399 CURVE SMOOTH",
"1246 352 OFFCURVE",
"1150 344 OFFCURVE",
"1081 344 CURVE SMOOTH",
"738 344 OFFCURVE",
"532 393 OFFCURVE",
"230 466 CURVE",
"224 466 OFFCURVE",
"222 462 OFFCURVE",
"222 459 CURVE",
"186 328 OFFCURVE",
"154 217 OFFCURVE",
"121 84 CURVE",
"358 -8 OFFCURVE",
"743 -49 OFFCURVE"
);
}
);
width = 2150;
}
);
leftKerningGroup = S;
rightKerningGroup = S;
unicode = 0053;
},
{
glyphname = T;
layers = (
{
anchors = (
{
name = bottom;
position = "{985, 0}";
},
{
name = center;
position = "{985, 741}";
},
{
name = top;
position = "{985, 1481}";
}
);
layerId = "083AB92F-A21B-420A-A5F3-096AB5C32ED3";
name = Regular;
paths = (
{
closed = 1;
nodes = (
"1278 40 CURVE",
"1277 44 OFFCURVE",
"1297 590 OFFCURVE",
"1308 835 CURVE",
"1314 1051 LINE",
"1835 1051 LINE",
"1866 1151 OFFCURVE",
"1896 1360 OFFCURVE",
"1906 1446 CURVE",
"1856 1447 OFFCURVE",
"1797 1449 OFFCURVE",
"1740 1449 CURVE SMOOTH",
"1272 1446 OFFCURVE",
"511 1432 OFFCURVE",
"123 1420 CURVE",
"107 1320 OFFCURVE",
"86 1091 OFFCURVE",
"84 1051 CURVE",
"502 1051 OFFCURVE",
"566 1052 OFFCURVE",
"630 1051 CURVE",
"623 919 OFFCURVE",
"620 826 OFFCURVE",
"615 669 CURVE SMOOTH",
"603 265 LINE",
"595 93 OFFCURVE",
"594 34 OFFCURVE",
"594 -25 CURVE",
"655 -28 OFFCURVE",
"1222 35 OFFCURVE"
);
}
);
width = 1970;
}
);
leftKerningGroup = T;
rightKerningGroup = T;
unicode = 0054;
},
{
glyphname = U;
layers = (
{
anchors = (
{
name = ogonek;
position = "{2179, 10}";
},
{
name = top;
position = "{1211, 1481}";
}
);
layerId = "083AB92F-A21B-420A-A5F3-096AB5C32ED3";
name = Regular;
paths = (
{
closed = 1;
nodes = (
"1177 -48 CURVE SMOOTH",
"1604 -48 OFFCURVE",
"2133 56 OFFCURVE",
"2253 545 CURVE",
"2272 587 OFFCURVE",
"2296 1024 OFFCURVE",
"2301 1283 CURVE",
"2301 1333 OFFCURVE",
"2300 1379 OFFCURVE",
"2300 1426 CURVE",
"2256 1427 OFFCURVE",
"2211 1429 OFFCURVE",
"2165 1429 CURVE SMOOTH",
"2161 1429 OFFCURVE",
"2157 1429 OFFCURVE",
"2153 1426 CURVE",
"1943 1417 OFFCURVE",
"1717 1411 OFFCURVE",
"1516 1401 CURVE",
"1520 1367 OFFCURVE",
"1521 1332 OFFCURVE",
"1521 1297 CURVE SMOOTH",
"1521 1277 OFFCURVE",
"1522 1258 OFFCURVE",
"1521 1238 CURVE SMOOTH",
"1502 710 LINE",
"1501 483 OFFCURVE",
"1374 358 OFFCURVE",
"1195 358 CURVE SMOOTH",
"955 358 OFFCURVE",
"906 528 OFFCURVE",
"914 632 CURVE SMOOTH",
"945 1285 LINE",
"945 1336 OFFCURVE",
"945 1389 OFFCURVE",
"948 1443 CURVE",
"894 1447 OFFCURVE",
"838 1449 OFFCURVE",
"781 1449 CURVE SMOOTH",
"735 1449 OFFCURVE",
"684 1440 OFFCURVE",
"639 1437 CURVE",
"154 1415 LINE",
"139 1312 OFFCURVE",
"142 1184 OFFCURVE",
"135 984 CURVE",
"130 677 LINE SMOOTH",
"129 648 OFFCURVE",
"128 618 OFFCURVE",
"128 592 CURVE SMOOTH",
"128 494 OFFCURVE",
"137 420 OFFCURVE",
"153 380 CURVE",
"279 56 OFFCURVE",
"781 -48 OFFCURVE"
);
}
);
width = 2421;
}
);
leftKerningGroup = U;
rightKerningGroup = U;
unicode = 0055;
},
{
glyphname = V;
layers = (
{
layerId = "083AB92F-A21B-420A-A5F3-096AB5C32ED3";
name = Regular;
paths = (
{
closed = 1;
nodes = (
"1354 1434 CURVE",
"1356 1441 OFFCURVE",
"1358 1448 OFFCURVE",
"1358 1454 CURVE SMOOTH",
"1358 1473 OFFCURVE",
"1342 1481 OFFCURVE",
"1293 1481 CURVE SMOOTH",
"1274 1481 OFFCURVE",
"1248 1475 OFFCURVE",
"1213 1468 CURVE SMOOTH",
"1135 1452 OFFCURVE",
"982 1409 OFFCURVE",
"985 1399 CURVE",
"966 1397 OFFCURVE",
"968 1390 OFFCURVE",
"961 1371 CURVE SMOOTH",
"918 1248 LINE SMOOTH",
"847 1045 OFFCURVE",
"778 843 OFFCURVE",
"708 641 CURVE",
"555 1458 LINE",
"552 1464 OFFCURVE",
"551 1468 OFFCURVE",
"547 1468 CURVE SMOOTH",
"546 1468 OFFCURVE",
"544 1468 OFFCURVE",
"543 1467 CURVE",
"543 1475 OFFCURVE",
"539 1479 OFFCURVE",
"526 1479 CURVE SMOOTH",
"504 1479 OFFCURVE",
"471 1475 OFFCURVE",
"409 1464 CURVE",
"228 1428 OFFCURVE",
"158 1424 OFFCURVE",
"158 1369 CURVE SMOOTH",
"158 1361 OFFCURVE",
"159 1353 OFFCURVE",
"162 1343 CURVE",
"160 1340 OFFCURVE",
"159 1334 OFFCURVE",
"159 1328 CURVE SMOOTH",
"159 1297 OFFCURVE",
"176 1236 OFFCURVE",
"182 1199 CURVE",
"279 758 OFFCURVE",
"372 318 OFFCURVE",
"478 -118 CURVE",
"479 -112 OFFCURVE",
"484 -102 OFFCURVE",
"496 -87 CURVE",
"569 -87 OFFCURVE",
"767 -5 OFFCURVE",
"804 13 CURVE SMOOTH",
"825 23 OFFCURVE",
"830 40 OFFCURVE",
"830 61 CURVE SMOOTH",
"830 76 OFFCURVE",
"828 93 OFFCURVE",
"826 112 CURVE",
"1356 1428 LINE",
"1356 1432 OFFCURVE",
"1358 1434 OFFCURVE",
"1358 1434 CURVE",
"1358 1435 LINE",
"1357 1435 OFFCURVE",
"1356 1434 OFFCURVE"
);
},
{
closed = 1;
nodes = (
"480 -126 CURVE",
"478 -125 OFFCURVE",
"477 -124 OFFCURVE",
"477 -122 CURVE SMOOTH",
"477 -121 OFFCURVE",
"477 -120 OFFCURVE",
"478 -119 CURVE",
"478 -121 OFFCURVE",
"479 -123 OFFCURVE"
);
}
);
width = 2209;
}
);
unicode = 0056;
},
{
glyphname = W;
layers = (
{
anchors = (
{
name = top;
position = "{1532, 1481}";
}
);
layerId = "083AB92F-A21B-420A-A5F3-096AB5C32ED3";
name = Regular;
paths = (
{
closed = 1;
nodes = (
"514 -50 LINE",
"486 -74 OFFCURVE",
"467 -87 OFFCURVE",
"454 -87 CURVE",
"457 -88 OFFCURVE",
"460 -89 OFFCURVE",
"464 -89 CURVE SMOOTH",
"525 -89 OFFCURVE",
"727 38 OFFCURVE",
"763 121 CURVE",
"984 517 LINE",
"1107 58 LINE SMOOTH",
"1120 10 OFFCURVE",
"1132 -89 OFFCURVE",
"1171 -89 CURVE SMOOTH",
"1174 -89 OFFCURVE",
"1177 -88 OFFCURVE",
"1181 -87 CURVE",
"1171 -87 OFFCURVE",
"1164 -83 OFFCURVE",
"1160 -76 CURVE",
"1429 62 OFFCURVE",
"1368 -1 OFFCURVE",
"1439 239 CURVE",
"1424 208 LINE",
"1548 575 OFFCURVE",
"1673 945 OFFCURVE",
"1799 1313 CURVE",
"1816 1358 OFFCURVE",
"1847 1418 OFFCURVE",
"1847 1457 CURVE",
"1846 1462 OFFCURVE",
"1843 1469 OFFCURVE",
"1838 1474 CURVE",
"1520 1389 LINE",
"1506 1393 OFFCURVE",
"1499 1395 OFFCURVE",
"1495 1395 CURVE SMOOTH",
"1489 1395 OFFCURVE",
"1488 1392 OFFCURVE",
"1486 1385 CURVE SMOOTH",
"1279 731 LINE",
"1153 1354 LINE",
"1153 1353 OFFCURVE",
"1153 1347 OFFCURVE",
"1148 1337 CURVE",
"1147 1345 OFFCURVE",
"1138 1349 OFFCURVE",
"1118 1349 CURVE",
"1097 1345 LINE",
"865 1320 OFFCURVE",
"801 1293 OFFCURVE",
"801 1259 CURVE SMOOTH",
"801 1253 OFFCURVE",
"798 1250 OFFCURVE",
"816 1229 CURVE",
"851 1120 OFFCURVE",
"886 1009 OFFCURVE",
"920 900 CURVE",
"734 634 LINE",
"557 1333 LINE",
"539 1410 OFFCURVE",
"530 1478 OFFCURVE",
"492 1478 CURVE SMOOTH",
"470 1478 OFFCURVE",
"436 1473 OFFCURVE",
"376 1464 CURVE",
"188 1447 OFFCURVE",
"126 1426 OFFCURVE",
"126 1367 CURVE SMOOTH",
"126 1357 OFFCURVE",
"128 1346 OFFCURVE",
"131 1334 CURVE",
"125 1342 OFFCURVE",
"125 1347 OFFCURVE",
"123 1352 CURVE SMOOTH"
);
},
{
closed = 1;
nodes = (
"1806 1479 CURVE",
"1816 1479 OFFCURVE",
"1826 1477 OFFCURVE",
"1836 1476 CURVE",
"1832 1479 OFFCURVE",
"1827 1481 OFFCURVE",
"1820 1481 CURVE SMOOTH",
"1816 1481 OFFCURVE",
"1811 1480 OFFCURVE"
);
},
{
closed = 1;
nodes = (
"1836 1476 CURVE",
"1845 1476 LINE",
"1838 1474 LINE",
"1838 1475 OFFCURVE",
"1837 1475 OFFCURVE"
);
},
{
closed = 1;
nodes = (
"1406 152 LINE",
"1408 159 LINE"
);
}
);
width = 3064;
}
);
unicode = 0057;
},
{
glyphname = X;
layers = (
{
layerId = "083AB92F-A21B-420A-A5F3-096AB5C32ED3";
name = Regular;
paths = (
{
closed = 1;
nodes = (
"1181 1426 CURVE",
"1185 1433 OFFCURVE",
"1188 1438 OFFCURVE",
"1188 1442 CURVE SMOOTH",
"1188 1447 OFFCURVE",
"1184 1449 OFFCURVE",
"1177 1449 CURVE",
"1177 1448 OFFCURVE",
"1180 1446 OFFCURVE",
"1180 1445 CURVE",
"1085 1426 LINE",
"734 1343 LINE",
"620 1094 LINE",
"554 1228 OFFCURVE",
"458 1428 OFFCURVE",
"454 1428 CURVE",
"454 1426 LINE SMOOTH",
"451 1441 OFFCURVE",
"454 1442 OFFCURVE",
"449 1442 CURVE SMOOTH",
"449 1442 OFFCURVE",
"445 1440 OFFCURVE",
"439 1439 CURVE",
"121 1328 LINE",
"111 1332 OFFCURVE",
"103 1335 OFFCURVE",
"97 1335 CURVE SMOOTH",
"89 1335 OFFCURVE",
"86 1323 OFFCURVE",
"86 1318 CURVE SMOOTH",
"86 1301 OFFCURVE",
"122 1254 OFFCURVE",
"134 1233 CURVE",
"415 681 LINE",
"312 469 LINE SMOOTH",
"278 399 OFFCURVE",
"247 334 OFFCURVE",
"219 268 CURVE SMOOTH",
"184 186 OFFCURVE",
"78 -12 OFFCURVE",
"78 -59 CURVE SMOOTH",
"78 -64 OFFCURVE",
"79 -68 OFFCURVE",
"82 -69 CURVE",
"66 -80 OFFCURVE",
"58 -86 OFFCURVE",
"54 -88 CURVE",
"84 -87 OFFCURVE",
"127 -73 OFFCURVE",
"148 -73 CURVE",
"232 -47 OFFCURVE",
"484 35 OFFCURVE",
"484 52 CURVE",
"484 53 LINE",
"489 50 LINE",
"621 309 LINE",
"700 144 LINE",
"778 0 OFFCURVE",
"832 -89 OFFCURVE",
"856 -89 CURVE SMOOTH",
"881 -89 OFFCURVE",
"903 -69 OFFCURVE",
"919 -69 CURVE",
"997 -33 OFFCURVE",
"1099 15 OFFCURVE",
"1099 46 CURVE SMOOTH",
"1099 50 OFFCURVE",
"1097 53 OFFCURVE",
"1092 56 CURVE",
"1129 60 LINE",
"1023 287 OFFCURVE",
"985 417 OFFCURVE",
"826 699 CURVE",
"868 777 OFFCURVE",
"919 874 OFFCURVE",
"962 950 CURVE",
"1161 1345 LINE",
"1169 1368 OFFCURVE",
"1185 1396 OFFCURVE",
"1185 1414 CURVE SMOOTH",
"1185 1419 OFFCURVE",
"1184 1423 OFFCURVE"
);
}
);
width = 2245;
}
);
unicode = 0058;
},
{
glyphname = Y;
layers = (
{
anchors = (
{
name = top;
position = "{1039, 1481}";
}
);
layerId = "083AB92F-A21B-420A-A5F3-096AB5C32ED3";
name = Regular;
paths = (
{
closed = 1;
nodes = (
"1191 1419 CURVE",
"1194 1426 OFFCURVE",
"1196 1431 OFFCURVE",
"1196 1436 CURVE SMOOTH",
"1196 1443 OFFCURVE",
"1191 1446 OFFCURVE",
"1183 1446 CURVE",
"1184 1445 OFFCURVE",
"1184 1445 OFFCURVE",
"1184 1444 CURVE SMOOTH",
"1184 1437 OFFCURVE",
"1101 1421 OFFCURVE",
"1084 1416 CURVE SMOOTH",
"801 1332 LINE",
"801 1336 LINE",
"795 1336 OFFCURVE",
"753 1259 OFFCURVE",
"709 1183 CURVE",
"621 1024 LINE",
"420 1416 LINE SMOOTH",
"408 1438 OFFCURVE",
"403 1444 OFFCURVE",
"399 1444 CURVE",
"400 1443 OFFCURVE",
"400 1442 OFFCURVE",
"400 1441 CURVE SMOOTH",
"400 1428 OFFCURVE",
"335 1408 OFFCURVE",
"318 1401 CURVE",
"252 1363 OFFCURVE",
"146 1315 OFFCURVE",
"140 1299 CURVE",
"135 1299 LINE SMOOTH",
"111 1299 OFFCURVE",
"103 1276 OFFCURVE",
"102 1271 CURVE",
"127 1215 OFFCURVE",
"332 762 OFFCURVE",
"368 673 CURVE",
"326 421 OFFCURVE",
"249 137 OFFCURVE",
"249 -105 CURVE SMOOTH",
"249 -108 OFFCURVE",
"251 -109 OFFCURVE",
"254 -109 CURVE SMOOTH",
"263 -109 OFFCURVE",
"281 -102 OFFCURVE",
"302 -88 CURVE",
"363 -88 OFFCURVE",
"470 -4 OFFCURVE",
"545 46 CURVE SMOOTH",
"679 136 LINE SMOOTH",
"681 138 OFFCURVE",
"683 140 OFFCURVE",
"683 143 CURVE SMOOTH",
"683 147 OFFCURVE",
"680 152 OFFCURVE",
"676 158 CURVE",
"680 164 OFFCURVE",
"680 171 OFFCURVE",
"684 192 CURVE SMOOTH",
"705 323 OFFCURVE",
"726 423 OFFCURVE",
"755 575 CURVE",
"734 560 LINE",
"803 686 OFFCURVE",
"1010 1064 OFFCURVE",
"1156 1333 CURVE",
"1195 1402 LINE SMOOTH",
"1196 1405 OFFCURVE",
"1197 1408 OFFCURVE",
"1197 1410 CURVE SMOOTH",
"1197 1415 OFFCURVE",
"1194 1419 OFFCURVE"
);
}
);
width = 2078;
}
);
leftKerningGroup = Y;
rightKerningGroup = Y;
unicode = 0059;
},
{
glyphname = Z;
layers = (
{
anchors = (
{
name = top;
position = "{992, 1481}";
}
);
layerId = "083AB92F-A21B-420A-A5F3-096AB5C32ED3";
name = Regular;
paths = (
{
closed = 1;
nodes = (
"713 0 OFFCURVE",
"1047 0 OFFCURVE",
"1381 0 CURVE SMOOTH",
"1537 0 OFFCURVE",
"1794 25 OFFCURVE",
"1818 28 CURVE",
"1830 77 OFFCURVE",
"1885 374 OFFCURVE",
"1885 415 CURVE",
"1839 421 OFFCURVE",
"1786 426 OFFCURVE",
"1732 426 CURVE SMOOTH",
"1652 426 OFFCURVE",
"1575 420 OFFCURVE",
"1494 420 CURVE SMOOTH",
"1191 420 LINE",
"1415 710 OFFCURVE",
"1814 1334 OFFCURVE",
"1854 1408 CURVE",
"1460 1408 OFFCURVE",
"1071 1420 OFFCURVE",
"675 1420 CURVE SMOOTH",
"519 1420 OFFCURVE",
"358 1416 OFFCURVE",
"221 1392 CURVE",
"166 1011 LINE",
"224 1007 OFFCURVE",
"289 1000 OFFCURVE",
"352 1000 CURVE SMOOTH",
"365 1000 OFFCURVE",
"376 1003 OFFCURVE",
"389 1003 CURVE SMOOTH",
"525 1003 OFFCURVE",
"762 1001 OFFCURVE",
"879 996 CURVE",
"162 59 LINE",
"162 58 OFFCURVE",
"161 26 OFFCURVE",
"161 25 CURVE",
"219 4 OFFCURVE",
"292 0 OFFCURVE",
"361 0 CURVE SMOOTH"
);
}
);
width = 1984;
}
);
leftKerningGroup = Z;
rightKerningGroup = Z;
unicode = 005A;
},
{
glyphname = a;
layers = (
{
anchors = (
{
name = ogonek;
position = "{1641, 10}";
},
{
name = top;
position = "{912, 473}";
}
);
layerId = "083AB92F-A21B-420A-A5F3-096AB5C32ED3";
name = Regular;
paths = (
{
closed = 1;
nodes = (
"770 181 CURVE SMOOTH",
"688 181 OFFCURVE",
"654 209 OFFCURVE",
"654 273 CURVE",
"654 364 OFFCURVE",
"1100 413 OFFCURVE",
"1181 413 CURVE SMOOTH",
"1190 413 OFFCURVE",
"1194 413 OFFCURVE",
"1194 412 CURVE SMOOTH",
"1194 286 OFFCURVE",
"868 181 OFFCURVE"
);
},
{
closed = 1;
nodes = (
"1294 198 CURVE",
"1324 100 OFFCURVE",
"1359 8 OFFCURVE",
"1361 -11 CURVE",
"1361 -14 LINE",
"1493 0 OFFCURVE",
"1658 -1 OFFCURVE",
"1663 38 CURVE SMOOTH",
"1705 646 OFFCURVE",
"1706 566 OFFCURVE",
"1706 586 CURVE SMOOTH",
"1706 878 OFFCURVE",
"1505 1055 OFFCURVE",
"908 1055 CURVE SMOOTH",
"745 1055 OFFCURVE",
"378 987 OFFCURVE",
"159 859 CURVE",
"199 800 OFFCURVE",
"290 696 OFFCURVE",
"328 610 CURVE",
"516 687 OFFCURVE",
"843 738 OFFCURVE",
"959 738 CURVE SMOOTH",
"1146 738 OFFCURVE",
"1192 666 OFFCURVE",
"1192 623 CURVE SMOOTH",
"1192 608 OFFCURVE",
"1189 594 OFFCURVE",
"1189 583 CURVE",
"466 578 OFFCURVE",
"237 455 OFFCURVE",
"237 225 CURVE SMOOTH",
"237 195 OFFCURVE",
"241 164 OFFCURVE",
"248 131 CURVE SMOOTH",
"275 1 OFFCURVE",
"410 -45 OFFCURVE",
"605 -45 CURVE SMOOTH",
"886 -45 OFFCURVE",
"1207 48 OFFCURVE"
);
}
);
width = 1823;
}
);
leftKerningGroup = a1;
rightKerningGroup = a1;
unicode = 0061;
},
{
glyphname = ae;
layers = (
{
anchors = (
{
name = top;
position = "{959, 473}";
}
);
layerId = "083AB92F-A21B-420A-A5F3-096AB5C32ED3";
name = Regular;
paths = (
{
closed = 1;
nodes = (
"1112 1008 LINE",
"965 1065 OFFCURVE",
"811 1106 OFFCURVE",
"623 1106 CURVE SMOOTH",
"340 1106 OFFCURVE",
"103 846 OFFCURVE",
"103 465 CURVE SMOOTH",
"103 143 OFFCURVE",
"321 -61 OFFCURVE",
"546 -61 CURVE SMOOTH",
"690 -61 OFFCURVE",
"863 -3 OFFCURVE",
"1006 121 CURVE",
"1113 4 OFFCURVE",
"1269 -61 OFFCURVE",
"1430 -61 CURVE SMOOTH",
"1569 -61 OFFCURVE",
"1748 2 OFFCURVE",
"1835 50 CURVE SMOOTH",
"1843 55 OFFCURVE",
"1851 61 OFFCURVE",
"1851 72 CURVE SMOOTH",
"1851 77 OFFCURVE",
"1849 83 OFFCURVE",
"1846 90 CURVE",
"1849 229 OFFCURVE",
"1848 323 OFFCURVE",
"1849 322 CURVE",
"1841 322 OFFCURVE",
"1833 320 OFFCURVE",
"1821 317 CURVE",
"1730 266 OFFCURVE",
"1620 211 OFFCURVE",
"1492 211 CURVE SMOOTH",
"1361 211 OFFCURVE",
"1239 264 OFFCURVE",
"1228 385 CURVE",
"1356 417 OFFCURVE",
"1493 424 OFFCURVE",
"1621 451 CURVE SMOOTH",
"1824 494 OFFCURVE",
"1894 468 OFFCURVE",
"1894 548 CURVE",
"1907 597 OFFCURVE",
"1915 647 OFFCURVE",
"1915 694 CURVE SMOOTH",
"1915 934 OFFCURVE",
"1685 1117 OFFCURVE",
"1496 1117 CURVE SMOOTH",
"1327 1117 OFFCURVE",
"1187 1030 OFFCURVE",
"1083 890 CURVE"
);
},
{
closed = 1;
nodes = (
"829 273 CURVE",
"765 233 OFFCURVE",
"706 209 OFFCURVE",
"657 209 CURVE SMOOTH",
"558 209 OFFCURVE",
"500 303 OFFCURVE",
"500 514 CURVE SMOOTH",
"500 631 OFFCURVE",
"547 844 OFFCURVE",
"691 844 CURVE SMOOTH",
"767 844 OFFCURVE",
"833 818 OFFCURVE",
"880 799 CURVE",
"877 727 OFFCURVE",
"866 605 OFFCURVE"
);
},
{
closed = 1;
nodes = (
"1471 850 CURVE SMOOTH",
"1543 850 OFFCURVE",
"1631 800 OFFCURVE",
"1631 701 CURVE SMOOTH",
"1631 696 OFFCURVE",
"1630 690 OFFCURVE",
"1630 685 CURVE",
"1219 604 LINE",
"1262 752 OFFCURVE",
"1346 850 OFFCURVE"
);
}
);
width = 1917;
}
);
leftKerningGroup = a1;
rightKerningGroup = a1;
unicode = 00E6;
},
{
glyphname = b;
layers = (
{
layerId = "083AB92F-A21B-420A-A5F3-096AB5C32ED3";
name = Regular;
paths = (
{
closed = 1;
nodes = (
"1870 528 CURVE SMOOTH",
"1870 866 OFFCURVE",
"1570 1055 OFFCURVE",
"1228 1055 CURVE SMOOTH",
"1057 1055 OFFCURVE",
"885 1003 OFFCURVE",
"769 932 CURVE",
"771 1006 OFFCURVE",
"789 1269 OFFCURVE",
"789 1345 CURVE SMOOTH",
"789 1378 OFFCURVE",
"791 1412 OFFCURVE",
"791 1445 CURVE",
"745 1455 OFFCURVE",
"691 1457 OFFCURVE",
"639 1457 CURVE SMOOTH",
"629 1457 OFFCURVE",
"618 1452 OFFCURVE",
"611 1451 CURVE SMOOTH",
"357 1423 LINE",
"297 1419 OFFCURVE",
"250 1417 OFFCURVE",
"203 1411 CURVE",
"203 1367 OFFCURVE",
"204 1323 OFFCURVE",
"204 1278 CURVE SMOOTH",
"204 1277 OFFCURVE",
"203 1275 OFFCURVE",
"203 1273 CURVE SMOOTH",
"155 132 LINE",
"155 133 OFFCURVE",
"156 133 OFFCURVE",
"156 134 CURVE SMOOTH",
"154 90 OFFCURVE",
"153 46 OFFCURVE",
"152 0 CURVE",
"169 -15 OFFCURVE",
"193 -22 OFFCURVE",
"221 -22 CURVE SMOOTH",
"223 -22 OFFCURVE",
"227 -22 OFFCURVE",
"230 -21 CURVE SMOOTH",
"382 8 OFFCURVE",
"418 10 OFFCURVE",
"435 19 CURVE",
"526 157 OFFCURVE",
"544 188 OFFCURVE",
"546 188 CURVE",
"546 185 LINE",
"680 34 OFFCURVE",
"918 -45 OFFCURVE",
"1166 -45 CURVE SMOOTH",
"1547 -45 OFFCURVE",
"1870 212 OFFCURVE"
);
},
{
closed = 1;
nodes = (
"1277 545 CURVE SMOOTH",
"1277 383 OFFCURVE",
"1161 250 OFFCURVE",
"1003 250 CURVE SMOOTH",
"849 250 OFFCURVE",
"748 348 OFFCURVE",
"738 432 CURVE",
"760 583 OFFCURVE",
"818 710 OFFCURVE",
"978 761 CURVE",
"1003 766 OFFCURVE",
"1027 768 OFFCURVE",
"1050 768 CURVE SMOOTH",
"1197 768 OFFCURVE",
"1277 671 OFFCURVE"
);
}
);
width = 1914;
}
);
unicode = 0062;
},
{
glyphname = c;
layers = (
{
anchors = (
{
name = bottom;
position = "{805, 0}";
},
{
name = top;
position = "{805, 473}";
}
);
layerId = "083AB92F-A21B-420A-A5F3-096AB5C32ED3";
name = Regular;
paths = (
{
closed = 1;
nodes = (
"116 121 OFFCURVE",
"501 -45 OFFCURVE",
"932 -45 CURVE SMOOTH",
"1212 -45 OFFCURVE",
"1394 -14 OFFCURVE",
"1527 4 CURVE",
"1519 123 OFFCURVE",
"1462 277 OFFCURVE",
"1449 307 CURVE",
"1304 285 OFFCURVE",
"1158 265 OFFCURVE",
"1065 265 CURVE SMOOTH",
"737 265 OFFCURVE",
"704 386 OFFCURVE",
"704 497 CURVE SMOOTH",
"704 670 OFFCURVE",
"870 738 OFFCURVE",
"1045 738 CURVE SMOOTH",
"1208 738 OFFCURVE",
"1400 709 OFFCURVE",
"1519 691 CURVE",
"1527 768 OFFCURVE",
"1545 914 OFFCURVE",
"1545 995 CURVE",
"1425 1021 OFFCURVE",
"1169 1056 OFFCURVE",
"1046 1056 CURVE SMOOTH",
"598 1056 OFFCURVE",
"116 909 OFFCURVE",
"116 490 CURVE SMOOTH"
);
}
);
width = 1610;
}
);
leftKerningGroup = c1;
rightKerningGroup = c1;
unicode = 0063;
},
{
glyphname = d;
layers = (
{
anchors = (
{
name = center;
position = "{959, 237}";
}
);
layerId = "083AB92F-A21B-420A-A5F3-096AB5C32ED3";
name = Regular;
paths = (
{
closed = 1;
nodes = (
"83 482 CURVE SMOOTH",
"83 170 OFFCURVE",
"370 -41 OFFCURVE",
"736 -41 CURVE SMOOTH",
"985 -41 OFFCURVE",
"1237 26 OFFCURVE",
"1377 178 CURVE",
"1403 106 OFFCURVE",
"1447 44 OFFCURVE",
"1496 -43 CURVE",
"1557 -31 LINE",
"1526 -34 LINE",
"1595 -18 OFFCURVE",
"1751 19 OFFCURVE",
"1769 32 CURVE",
"1769 1310 LINE",
"1824 1445 LINE",
"1779 1455 OFFCURVE",
"1724 1457 OFFCURVE",
"1672 1457 CURVE SMOOTH",
"1663 1457 OFFCURVE",
"1652 1452 OFFCURVE",
"1645 1451 CURVE SMOOTH",
"1255 1423 LINE",
"1239 1386 OFFCURVE",
"1237 1352 OFFCURVE",
"1237 1313 CURVE",
"1234 1194 OFFCURVE",
"1228 1049 OFFCURVE",
"1225 931 CURVE",
"1121 1003 OFFCURVE",
"958 1055 OFFCURVE",
"796 1055 CURVE SMOOTH",
"440 1055 OFFCURVE",
"83 865 OFFCURVE"
);
},
{
closed = 1;
nodes = (
"686 502 CURVE SMOOTH",
"686 619 OFFCURVE",
"782 770 OFFCURVE",
"960 770 CURVE SMOOTH",
"1121 770 OFFCURVE",
"1214 652 OFFCURVE",
"1214 528 CURVE",
"1210 394 OFFCURVE",
"1118 255 OFFCURVE",
"907 255 CURVE SMOOTH",
"760 255 OFFCURVE",
"686 344 OFFCURVE"
);
},
{
closed = 1;
nodes = (
"1587 -25 LINE",
"1577 -28 OFFCURVE",
"1568 -30 OFFCURVE",
"1558 -31 CURVE"
);
}
);
width = 1917;
}
);
unicode = 0064;
},
{
glyphname = eth;
layers = (
{
layerId = "083AB92F-A21B-420A-A5F3-096AB5C32ED3";
name = Regular;
paths = (
{
closed = 1;
nodes = (
"668 1129 LINE",
"691 1078 OFFCURVE",
"710 1028 OFFCURVE",
"726 983 CURVE",
"701 1002 OFFCURVE",
"653 1020 OFFCURVE",
"576 1020 CURVE SMOOTH",
"253 1020 OFFCURVE",
"106 768 OFFCURVE",
"106 511 CURVE SMOOTH",
"106 242 OFFCURVE",
"316 -52 OFFCURVE",
"680 -52 CURVE SMOOTH",
"1116 -52 OFFCURVE",
"1310 227 OFFCURVE",
"1310 495 CURVE SMOOTH",
"1310 759 OFFCURVE",
"1162 1002 OFFCURVE",
"994 1215 CURVE",
"1128 1259 LINE SMOOTH",
"1132 1260 OFFCURVE",
"1145 1268 OFFCURVE",
"1145 1279 CURVE",
"1143 1285 OFFCURVE",
"1129 1309 OFFCURVE",
"1092 1360 CURVE SMOOTH",
"1055 1411 LINE",
"1048 1418 OFFCURVE",
"1042 1423 OFFCURVE",
"1031 1423 CURVE SMOOTH",
"1025 1423 OFFCURVE",
"1016 1421 OFFCURVE",
"1004 1417 CURVE SMOOTH",
"863 1373 LINE",
"815 1429 OFFCURVE",
"767 1482 OFFCURVE",
"724 1533 CURVE SMOOTH",
"720 1537 OFFCURVE",
"713 1542 OFFCURVE",
"704 1542 CURVE SMOOTH",
"699 1542 OFFCURVE",
"695 1541 OFFCURVE",
"690 1538 CURVE SMOOTH",
"625 1500 OFFCURVE",
"588 1480 OFFCURVE",
"521 1461 CURVE SMOOTH",
"504 1456 OFFCURVE",
"496 1449 OFFCURVE",
"496 1439 CURVE SMOOTH",
"496 1423 OFFCURVE",
"559 1338 OFFCURVE",
"588 1288 CURVE",
"490 1258 LINE",
"432 1237 OFFCURVE",
"403 1221 OFFCURVE",
"403 1210 CURVE SMOOTH",
"403 1195 OFFCURVE",
"495 1098 OFFCURVE",
"534 1098 CURVE SMOOTH",
"539 1098 OFFCURVE",
"544 1099 OFFCURVE",
"550 1101 CURVE SMOOTH"
);
},
{
closed = 1;
nodes = (
"525 495 CURVE SMOOTH",
"524 506 OFFCURVE",
"524 516 OFFCURVE",
"524 527 CURVE SMOOTH",
"524 647 OFFCURVE",
"577 753 OFFCURVE",
"720 753 CURVE SMOOTH",
"745 753 OFFCURVE",
"760 749 OFFCURVE",
"792 737 CURVE",
"843 603 OFFCURVE",
"858 564 OFFCURVE",
"858 424 CURVE SMOOTH",
"858 330 OFFCURVE",
"839 210 OFFCURVE",
"738 210 CURVE SMOOTH",
"590 210 OFFCURVE",
"533 374 OFFCURVE"
);
}
);
width = 1325;
}
);
unicode = 00F0;
},
{
glyphname = e;
layers = (
{
anchors = (
{
name = bottom;
position = "{877, 0}";
},
{
name = ogonek;
position = "{1578, 10}";
},
{
name = top;
position = "{877, 473}";
}
);
layerId = "083AB92F-A21B-420A-A5F3-096AB5C32ED3";
name = Regular;
paths = (
{
closed = 1;
nodes = (
"105 484 CURVE SMOOTH",
"105 61 OFFCURVE",
"539 -45 OFFCURVE",
"911 -45 CURVE SMOOTH",
"1362 -45 OFFCURVE",
"1541 52 OFFCURVE",
"1594 98 CURVE",
"1593 222 OFFCURVE",
"1592 319 OFFCURVE",
"1592 404 CURVE",
"1518 358 OFFCURVE",
"1475 341 OFFCURVE",
"1403 312 CURVE",
"1276 280 OFFCURVE",
"1153 261 OFFCURVE",
"1042 261 CURVE SMOOTH",
"994 261 OFFCURVE",
"949 264 OFFCURVE",
"906 272 CURVE",
"769 284 OFFCURVE",
"702 313 OFFCURVE",
"702 415 CURVE",
"749 411 OFFCURVE",
"794 410 OFFCURVE",
"838 410 CURVE SMOOTH",
"1158 410 OFFCURVE",
"1438 486 OFFCURVE",
"1629 556 CURVE",
"1629 556 OFFCURVE",
"1630 556 OFFCURVE",
"1630 556 CURVE",
"1634 556 OFFCURVE",
"1638 561 OFFCURVE",
"1641 561 CURVE SMOOTH",
"1642 561 OFFCURVE",
"1642 561 OFFCURVE",
"1643 561 CURVE",
"1644 572 OFFCURVE",
"1644 563 OFFCURVE",
"1644 573 CURVE SMOOTH",
"1644 911 OFFCURVE",
"1250 1055 OFFCURVE",
"936 1055 CURVE SMOOTH",
"541 1055 OFFCURVE",
"105 922 OFFCURVE"
);
},
{
closed = 1;
nodes = (
"697 605 CURVE",
"712 748 OFFCURVE",
"873 788 OFFCURVE",
"957 788 CURVE SMOOTH",
"1032 788 OFFCURVE",
"1138 774 OFFCURVE",
"1149 681 CURVE",
"1059 657 OFFCURVE",
"929 629 OFFCURVE"
);
}
);
width = 1753;
}
);
leftKerningGroup = e;
rightKerningGroup = e;
unicode = 0065;
},
{
glyphname = f;
layers = (
{
layerId = "083AB92F-A21B-420A-A5F3-096AB5C32ED3";
name = Regular;
paths = (
{
closed = 1;
nodes = (
"1486 1176 CURVE",
"1479 1223 OFFCURVE",
"1460 1280 OFFCURVE",
"1460 1370 CURVE SMOOTH",
"1460 1390 OFFCURVE",
"1461 1411 OFFCURVE",
"1463 1435 CURVE",
"1460 1458 OFFCURVE",
"1458 1482 OFFCURVE",
"1458 1505 CURVE",
"1344 1521 OFFCURVE",
"1114 1526 OFFCURVE",
"1015 1526 CURVE SMOOTH",
"699 1526 OFFCURVE",
"483 1423 OFFCURVE",
"383 1160 CURVE SMOOTH",
"364 1111 OFFCURVE",
"353 1055 OFFCURVE",
"350 988 CURVE",
"141 988 LINE",
"136 934 OFFCURVE",
"79 804 OFFCURVE",
"79 752 CURVE",
"106 744 OFFCURVE",
"144 742 OFFCURVE",
"201 742 CURVE SMOOTH",
"337 742 LINE",
"321 473 OFFCURVE",
"307 207 OFFCURVE",
"305 75 CURVE SMOOTH",
"305 40 OFFCURVE",
"308 11 OFFCURVE",
"309 -19 CURVE",
"340 -21 OFFCURVE",
"371 -22 OFFCURVE",
"403 -22 CURVE SMOOTH",
"413 -22 OFFCURVE",
"423 -18 OFFCURVE",
"429 -15 CURVE",
"704 23 LINE",
"784 27 OFFCURVE",
"849 30 OFFCURVE",
"914 35 CURVE",
"914 63 OFFCURVE",
"912 92 OFFCURVE",
"912 121 CURVE SMOOTH",
"912 271 OFFCURVE",
"929 510 OFFCURVE",
"941 744 CURVE",
"1090 744 LINE",
"1127 745 OFFCURVE",
"1155 748 OFFCURVE",
"1184 757 CURVE",
"1378 791 LINE",
"1390 865 OFFCURVE",
"1398 929 OFFCURVE",
"1398 977 CURVE",
"1337 985 OFFCURVE",
"1272 988 OFFCURVE",
"1207 988 CURVE SMOOTH",
"944 988 LINE",
"982 1131 OFFCURVE",
"1035 1179 OFFCURVE",
"1205 1179 CURVE SMOOTH",
"1281 1179 OFFCURVE",
"1372 1175 OFFCURVE",
"1440 1175 CURVE SMOOTH",
"1457 1175 OFFCURVE",
"1472 1175 OFFCURVE"
);
}
);
width = 1413;
}
);
leftKerningGroup = f;
rightKerningGroup = f;
unicode = 0066;
},
{
glyphname = g;
layers = (
{
anchors = (
{
name = top;
position = "{966, 473}";
}
);
layerId = "083AB92F-A21B-420A-A5F3-096AB5C32ED3";
name = Regular;
paths = (
{
closed = 1;
nodes = (
"1191 -23 CURVE",
"1160 -108 OFFCURVE",
"1042 -212 OFFCURVE",
"820 -212 CURVE SMOOTH",
"674 -212 OFFCURVE",
"577 -196 OFFCURVE",
"479 -168 CURVE",
"473 -161 OFFCURVE",
"463 -161 OFFCURVE",
"452 -161 CURVE SMOOTH",
"427 -161 OFFCURVE",
"411 -171 OFFCURVE",
"400 -212 CURVE",
"377 -298 LINE",
"360 -368 OFFCURVE",
"337 -455 OFFCURVE",
"337 -483 CURVE",
"479 -543 OFFCURVE",
"671 -556 OFFCURVE",
"831 -556 CURVE SMOOTH",
"1237 -556 OFFCURVE",
"1711 -333 OFFCURVE",
"1773 17 CURVE",
"1773 16 LINE",
"1791 380 OFFCURVE",
"1792 543 OFFCURVE",
"1810 906 CURVE SMOOTH",
"1811 931 OFFCURVE",
"1815 957 OFFCURVE",
"1818 983 CURVE",
"1795 986 OFFCURVE",
"1774 989 OFFCURVE",
"1752 994 CURVE SMOOTH",
"1717 1001 LINE",
"1586 1008 OFFCURVE",
"1414 1025 OFFCURVE",
"1278 1035 CURVE",
"1278 1035 OFFCURVE",
"1278 1035 OFFCURVE",
"1268 935 CURVE",
"1153 1001 OFFCURVE",
"1002 1055 OFFCURVE",
"808 1055 CURVE SMOOTH",
"421 1055 OFFCURVE",
"98 798 OFFCURVE",
"98 481 CURVE SMOOTH",
"98 141 OFFCURVE",
"394 -45 OFFCURVE",
"737 -45 CURVE SMOOTH",
"909 -45 OFFCURVE",
"1082 -1 OFFCURVE",
"1197 63 CURVE",
"1195 29 OFFCURVE",
"1191 -4 OFFCURVE"
);
},
{
closed = 1;
nodes = (
"692 463 CURVE SMOOTH",
"692 624 OFFCURVE",
"807 760 OFFCURVE",
"957 760 CURVE SMOOTH",
"1087 760 OFFCURVE",
"1179 684 OFFCURVE",
"1215 594 CURVE",
"1217 587 OFFCURVE",
"1220 581 OFFCURVE",
"1220 570 CURVE",
"1212 448 OFFCURVE",
"1191 378 OFFCURVE",
"1157 330 CURVE",
"1101 280 OFFCURVE",
"1015 241 OFFCURVE",
"920 241 CURVE SMOOTH",
"772 241 OFFCURVE",
"692 331 OFFCURVE"
);
}
);
width = 1932;
}
);
leftKerningGroup = g1;
rightKerningGroup = g1;
unicode = 0067;
},
{
glyphname = h;
layers = (
{
anchors = (
{
name = center;
position = "{959, 237}";
},
{
name = top;
position = "{959, 473}";
}
);
layerId = "083AB92F-A21B-420A-A5F3-096AB5C32ED3";
name = Regular;
paths = (
{
closed = 1;
nodes = (
"157 93 LINE",
"157 55 OFFCURVE",
"158 17 OFFCURVE",
"161 -19 CURVE",
"194 -21 OFFCURVE",
"230 -22 OFFCURVE",
"265 -22 CURVE SMOOTH",
"275 -22 OFFCURVE",
"286 -18 OFFCURVE",
"292 -15 CURVE",
"627 23 LINE",
"672 26 OFFCURVE",
"707 29 OFFCURVE",
"739 34 CURVE",
"739 246 LINE SMOOTH",
"739 405 OFFCURVE",
"741 520 OFFCURVE",
"764 600 CURVE",
"791 710 OFFCURVE",
"933 770 OFFCURVE",
"1036 770 CURVE SMOOTH",
"1242 770 OFFCURVE",
"1272 661 OFFCURVE",
"1272 585 CURVE SMOOTH",
"1245 61 OFFCURVE",
"1238 11 OFFCURVE",
"1238 -14 CURVE SMOOTH",
"1238 -16 OFFCURVE",
"1238 -17 OFFCURVE",
"1238 -19 CURVE",
"1273 -21 OFFCURVE",
"1321 -22 OFFCURVE",
"1357 -22 CURVE SMOOTH",
"1367 -22 OFFCURVE",
"1378 -17 OFFCURVE",
"1385 -15 CURVE",
"1719 14 LINE",
"1766 17 OFFCURVE",
"1802 19 OFFCURVE",
"1834 24 CURVE",
"1834 252 OFFCURVE",
"1852 575 OFFCURVE",
"1852 593 CURVE SMOOTH",
"1852 641 OFFCURVE",
"1847 686 OFFCURVE",
"1835 724 CURVE",
"1777 986 OFFCURVE",
"1466 1049 OFFCURVE",
"1283 1049 CURVE SMOOTH",
"1280 1049 OFFCURVE",
"1277 1049 OFFCURVE",
"1274 1049 CURVE SMOOTH",
"1131 1047 OFFCURVE",
"900 999 OFFCURVE",
"772 935 CURVE",
"777 1033 OFFCURVE",
"794 1317 OFFCURVE",
"794 1396 CURVE SMOOTH",
"794 1429 OFFCURVE",
"790 1460 OFFCURVE",
"780 1485 CURVE",
"738 1485 OFFCURVE",
"696 1479 OFFCURVE",
"658 1478 CURVE",
"296 1443 OFFCURVE",
"250 1440 OFFCURVE",
"204 1438 CURVE"
);
}
);
width = 1918;
}
);
leftKerningGroup = h1;
rightKerningGroup = h1;
unicode = 0068;
},
{
glyphname = i;
layers = (
{
layerId = "083AB92F-A21B-420A-A5F3-096AB5C32ED3";
name = Regular;
paths = (
{
closed = 1;
nodes = (
"171 990 CURVE",
"155 878 OFFCURVE",
"144 586 OFFCURVE",
"139 412 CURVE",
"129 200 OFFCURVE",
"122 28 OFFCURVE",
"122 -20 CURVE",
"155 -22 OFFCURVE",
"190 -22 OFFCURVE",
"225 -22 CURVE",
"369 -8 OFFCURVE",
"616 29 OFFCURVE",
"708 41 CURVE",
"706 63 OFFCURVE",
"706 89 OFFCURVE",
"706 112 CURVE",
"744 1023 LINE",
"711 1025 OFFCURVE",
"677 1026 OFFCURVE",
"644 1026 CURVE SMOOTH",
"640 1026 LINE SMOOTH",
"484 1009 OFFCURVE",
"325 1000 OFFCURVE"
);
},
{
closed = 1;
nodes = (
"724 1530 CURVE",
"687 1569 OFFCURVE",
"624 1583 OFFCURVE",
"554 1583 CURVE SMOOTH",
"431 1583 OFFCURVE",
"285 1538 OFFCURVE",
"230 1500 CURVE",
"152 1471 OFFCURVE",
"136 1409 OFFCURVE",
"136 1359 CURVE SMOOTH",
"136 1195 OFFCURVE",
"218 1174 OFFCURVE",
"440 1174 CURVE SMOOTH",
"590 1174 OFFCURVE",
"789 1223 OFFCURVE",
"789 1352 CURVE SMOOTH",
"789 1415 OFFCURVE",
"767 1478 OFFCURVE"
);
}
);
width = 892;
}
);
leftKerningGroup = i1;
rightKerningGroup = i1;
unicode = 0069;
},
{
glyphname = dotlessi;
layers = (
{
anchors = (
{
name = ogonek;
position = "{550, 10}";
},
{
name = top;
position = "{306, 473}";
}
);
layerId = "083AB92F-A21B-420A-A5F3-096AB5C32ED3";
name = Regular;
paths = (
{
closed = 1;
nodes = (
"146 424 CURVE",
"134 288 OFFCURVE",
"107 -53 OFFCURVE",
"107 -58 CURVE SMOOTH",
"107 -65 OFFCURVE",
"111 -68 OFFCURVE",
"118 -68 CURVE SMOOTH",
"122 -68 OFFCURVE",
"125 -68 OFFCURVE",
"127 -67 CURVE SMOOTH",
"256 -24 OFFCURVE",
"370 21 OFFCURVE",
"483 56 CURVE",
"507 61 OFFCURVE",
"508 74 OFFCURVE",
"512 118 CURVE SMOOTH",
"602 1108 LINE SMOOTH",
"602 1113 OFFCURVE",
"598 1116 OFFCURVE",
"591 1116 CURVE SMOOTH",
"587 1116 OFFCURVE",
"584 1116 OFFCURVE",
"582 1115 CURVE SMOOTH",
"466 1076 OFFCURVE",
"337 1055 OFFCURVE",
"224 1032 CURVE SMOOTH",
"200 1027 OFFCURVE",
"198 1014 OFFCURVE",
"195 970 CURVE SMOOTH",
"180 782 OFFCURVE",
"165 607 OFFCURVE"
);
}
);
width = 611;
}
);
leftKerningGroup = i1;
rightKerningGroup = i1;
unicode = 0131;
},
{
glyphname = j;
layers = (
{
layerId = "083AB92F-A21B-420A-A5F3-096AB5C32ED3";
name = Regular;
paths = (
{
closed = 1;
nodes = (
"79 -138 CURVE SMOOTH",
"28 -135 OFFCURVE",
"-19 -124 OFFCURVE",
"-34 -118 CURVE",
"-38 -145 OFFCURVE",
"-72 -277 OFFCURVE",
"-72 -397 CURVE SMOOTH",
"-72 -414 OFFCURVE",
"-72 -431 OFFCURVE",
"-70 -447 CURVE",
"-59 -447 OFFCURVE",
"-47 -446 OFFCURVE",
"-34 -446 CURVE SMOOTH",
"51 -446 OFFCURVE",
"186 -456 OFFCURVE",
"273 -456 CURVE SMOOTH",
"613 -456 OFFCURVE",
"798 -355 OFFCURVE",
"903 -103 CURVE SMOOTH",
"927 -46 OFFCURVE",
"943 23 OFFCURVE",
"947 99 CURVE",
"976 1023 LINE",
"955 1025 OFFCURVE",
"934 1026 OFFCURVE",
"910 1026 CURVE SMOOTH",
"906 1026 LINE SMOOTH",
"755 1014 OFFCURVE",
"490 994 OFFCURVE",
"388 980 CURVE",
"382 655 OFFCURVE",
"374 451 OFFCURVE",
"362 180 CURVE SMOOTH",
"359 122 OFFCURVE",
"353 76 OFFCURVE",
"351 29 CURVE SMOOTH",
"348 -36 OFFCURVE",
"307 -76 OFFCURVE",
"247 -131 CURVE",
"214 -138 OFFCURVE",
"180 -141 OFFCURVE",
"146 -141 CURVE SMOOTH",
"124 -141 OFFCURVE",
"101 -140 OFFCURVE"
);
},
{
closed = 1;
nodes = (
"957 1530 CURVE",
"910 1565 OFFCURVE",
"861 1587 OFFCURVE",
"765 1587 CURVE SMOOTH",
"762 1587 LINE SMOOTH",
"639 1570 OFFCURVE",
"533 1542 OFFCURVE",
"460 1500 CURVE",
"383 1471 OFFCURVE",
"368 1409 OFFCURVE",
"368 1358 CURVE SMOOTH",
"368 1204 OFFCURVE",
"417 1174 OFFCURVE",
"673 1174 CURVE SMOOTH",
"798 1174 OFFCURVE",
"913 1200 OFFCURVE",
"955 1260 CURVE",
"1004 1286 OFFCURVE",
"1020 1313 OFFCURVE",
"1020 1355 CURVE SMOOTH",
"1020 1417 OFFCURVE",
"998 1479 OFFCURVE"
);
}
);
width = 1097;
}
);
leftKerningGroup = i1;
rightKerningGroup = i1;
unicode = 006A;
},
{
glyphname = k;
layers = (
{
anchors = (
{
name = bottom;
position = "{930, 0}";
}
);
layerId = "083AB92F-A21B-420A-A5F3-096AB5C32ED3";
name = Regular;
paths = (
{
closed = 1;
nodes = (
"707 20 LINE SMOOTH",
"739 23 OFFCURVE",
"739 73 OFFCURVE",
"739 102 CURVE SMOOTH",
"739 198 OFFCURVE",
"741 300 OFFCURVE",
"741 300 CURVE",
"741 300 OFFCURVE",
"829 349 OFFCURVE",
"850 367 CURVE",
"959 252 OFFCURVE",
"1144 32 OFFCURVE",
"1238 -36 CURVE",
"1436 -36 OFFCURVE",
"1690 26 OFFCURVE",
"1849 29 CURVE",
"1813 66 OFFCURVE",
"1769 95 OFFCURVE",
"1731 132 CURVE SMOOTH",
"1419 431 LINE",
"1281 561 LINE",
"1329 601 OFFCURVE",
"1375 636 OFFCURVE",
"1417 668 CURVE",
"1722 927 LINE",
"1757 952 OFFCURVE",
"1790 973 OFFCURVE",
"1820 995 CURVE",
"1778 996 OFFCURVE",
"1733 997 OFFCURVE",
"1687 997 CURVE",
"1096 986 LINE",
"1068 967 OFFCURVE",
"1019 923 OFFCURVE",
"968 878 CURVE",
"762 721 LINE",
"766 822 OFFCURVE",
"775 973 OFFCURVE",
"783 1111 CURVE SMOOTH",
"798 1372 LINE",
"798 1412 OFFCURVE",
"799 1451 OFFCURVE",
"799 1490 CURVE",
"752 1500 OFFCURVE",
"698 1502 OFFCURVE",
"646 1502 CURVE SMOOTH",
"636 1502 OFFCURVE",
"625 1497 OFFCURVE",
"618 1495 CURVE",
"362 1468 LINE",
"303 1464 OFFCURVE",
"253 1460 OFFCURVE",
"207 1454 CURVE",
"207 1408 OFFCURVE",
"209 1363 OFFCURVE",
"209 1318 CURVE",
"156 122 LINE",
"156 73 OFFCURVE",
"158 26 OFFCURVE",
"159 -19 CURVE"
);
}
);
width = 1860;
}
);
unicode = 006B;
},
{
glyphname = l;
layers = (
{
anchors = (
{
name = bottom;
position = "{443, 0}";
},
{
name = top;
position = "{443, 473}";
},
{
name = topright;
position = "{866, 473}";
}
);
layerId = "083AB92F-A21B-420A-A5F3-096AB5C32ED3";
name = Regular;
paths = (
{
closed = 1;
nodes = (
"747 40 CURVE",
"743 57 OFFCURVE",
"742 73 OFFCURVE",
"742 90 CURVE SMOOTH",
"742 108 OFFCURVE",
"744 125 OFFCURVE",
"745 142 CURVE SMOOTH",
"762 543 OFFCURVE",
"776 946 OFFCURVE",
"791 1347 CURVE SMOOTH",
"791 1350 OFFCURVE",
"791 1351 OFFCURVE",
"788 1351 CURVE",
"786 1399 OFFCURVE",
"785 1446 OFFCURVE",
"784 1494 CURVE",
"595 1470 OFFCURVE",
"285 1490 OFFCURVE",
"195 1419 CURVE",
"195 1202 OFFCURVE",
"186 1092 OFFCURVE",
"181 928 CURVE",
"171 652 OFFCURVE",
"166 377 OFFCURVE",
"155 135 CURVE",
"155 75 OFFCURVE",
"160 23 OFFCURVE",
"169 -25 CURVE",
"370 -25 OFFCURVE",
"587 24 OFFCURVE"
);
}
);
width = 886;
}
);
leftKerningGroup = l;
rightKerningGroup = l;
unicode = 006C;
},
{
glyphname = m;
layers = (
{
layerId = "083AB92F-A21B-420A-A5F3-096AB5C32ED3";
name = Regular;
paths = (
{
closed = 1;
nodes = (
"188 977 CURVE",
"150 61 LINE",
"150 33 OFFCURVE",
"152 7 OFFCURVE",
"153 -19 CURVE",
"179 -21 OFFCURVE",
"206 -22 OFFCURVE",
"232 -22 CURVE SMOOTH",
"277 -22 OFFCURVE",
"323 -18 OFFCURVE",
"364 -15 CURVE",
"715 23 LINE",
"735 50 OFFCURVE",
"739 109 OFFCURVE",
"739 180 CURVE SMOOTH",
"739 242 OFFCURVE",
"736 313 OFFCURVE",
"736 382 CURVE",
"739 461 OFFCURVE",
"745 539 OFFCURVE",
"782 663 CURVE SMOOTH",
"804 738 OFFCURVE",
"902 763 OFFCURVE",
"976 763 CURVE SMOOTH",
"1056 763 OFFCURVE",
"1111 699 OFFCURVE",
"1136 611 CURVE",
"1146 586 OFFCURVE",
"1152 559 OFFCURVE",
"1152 530 CURVE SMOOTH",
"1152 523 OFFCURVE",
"1151 517 OFFCURVE",
"1151 510 CURVE SMOOTH",
"1135 270 OFFCURVE",
"1144 306 OFFCURVE",
"1127 69 CURVE",
"1127 36 OFFCURVE",
"1128 8 OFFCURVE",
"1133 -19 CURVE",
"1158 -21 OFFCURVE",
"1184 -22 OFFCURVE",
"1212 -22 CURVE SMOOTH",
"1256 -22 OFFCURVE",
"1301 -17 OFFCURVE",
"1343 -15 CURVE",
"1525 3 LINE SMOOTH",
"1592 10 OFFCURVE",
"1667 19 OFFCURVE",
"1701 24 CURVE",
"1701 109 LINE SMOOTH",
"1701 216 OFFCURVE",
"1706 310 OFFCURVE",
"1721 596 CURVE",
"1721 705 OFFCURVE",
"1828 755 OFFCURVE",
"1900 789 CURVE",
"2020 783 OFFCURVE",
"2120 665 OFFCURVE",
"2120 527 CURVE SMOOTH",
"2120 521 OFFCURVE",
"2119 516 OFFCURVE",
"2119 510 CURVE SMOOTH",
"2103 270 OFFCURVE",
"2111 306 OFFCURVE",
"2095 69 CURVE",
"2095 36 OFFCURVE",
"2096 8 OFFCURVE",
"2099 -19 CURVE",
"2126 -21 OFFCURVE",
"2153 -22 OFFCURVE",
"2181 -22 CURVE SMOOTH",
"2191 -22 OFFCURVE",
"2202 -17 OFFCURVE",
"2209 -15 CURVE",
"2489 14 LINE",
"2564 17 OFFCURVE",
"2626 19 OFFCURVE",
"2684 24 CURVE",
"2684 184 OFFCURVE",
"2698 340 OFFCURVE",
"2698 501 CURVE SMOOTH",
"2698 580 OFFCURVE",
"2686 654 OFFCURVE",
"2660 722 CURVE",
"2564 949 OFFCURVE",
"2400 1051 OFFCURVE",
"2141 1051 CURVE SMOOTH",
"1949 1051 OFFCURVE",
"1744 1002 OFFCURVE",
"1606 890 CURVE",
"1504 997 OFFCURVE",
"1359 1044 OFFCURVE",
"1207 1044 CURVE SMOOTH",
"1184 1044 OFFCURVE",
"1161 1043 OFFCURVE",
"1138 1041 CURVE SMOOTH",
"925 1018 OFFCURVE",
"729 986 OFFCURVE",
"616 833 CURVE",
"565 965 LINE",
"545 990 OFFCURVE",
"528 1013 OFFCURVE",
"509 1038 CURVE",
"483 1037 OFFCURVE",
"456 1037 OFFCURVE",
"430 1037 CURVE",
"379 1022 OFFCURVE",
"325 1013 OFFCURVE",
"275 1003 CURVE",
"239 1000 OFFCURVE",
"213 996 OFFCURVE"
);
}
);
width = 2819;
}
);
leftKerningGroup = h1;
rightKerningGroup = h1;
unicode = 006D;
},
{
glyphname = n;
layers = (
{
anchors = (
{
name = bottom;
position = "{991, 0}";
},
{
name = top;
position = "{991, 473}";
}
);
layerId = "083AB92F-A21B-420A-A5F3-096AB5C32ED3";
name = Regular;
paths = (
{
closed = 1;
nodes = (
"667 32 OFFCURVE",
"713 32 OFFCURVE",
"723 34 CURVE",
"723 158 OFFCURVE",
"721 230 OFFCURVE",
"721 302 CURVE SMOOTH",
"721 433 OFFCURVE",
"727 565 OFFCURVE",
"757 604 CURVE",
"795 695 OFFCURVE",
"868 769 OFFCURVE",
"1032 769 CURVE SMOOTH",
"1121 769 OFFCURVE",
"1203 714 OFFCURVE",
"1244 643 CURVE",
"1259 608 OFFCURVE",
"1268 569 OFFCURVE",
"1268 531 CURVE SMOOTH",
"1268 524 OFFCURVE",
"1255 232 OFFCURVE",
"1244 69 CURVE",
"1244 36 OFFCURVE",
"1245 8 OFFCURVE",
"1250 -19 CURVE",
"1251 -19 OFFCURVE",
"1252 -19 OFFCURVE",
"1253 -19 CURVE SMOOTH",
"1439 14 OFFCURVE",
"1801 19 OFFCURVE",
"1833 24 CURVE",
"1843 392 OFFCURVE",
"1851 466 OFFCURVE",
"1851 540 CURVE SMOOTH",
"1851 589 OFFCURVE",
"1848 639 OFFCURVE",
"1838 687 CURVE",
"1774 929 OFFCURVE",
"1547 1044 OFFCURVE",
"1235 1044 CURVE SMOOTH",
"1007 1044 OFFCURVE",
"732 994 OFFCURVE",
"606 834 CURVE",
"541 991 OFFCURVE",
"521 1013 OFFCURVE",
"502 1038 CURVE",
"501 1038 LINE SMOOTH",
"475 1038 OFFCURVE",
"206 1012 OFFCURVE",
"171 965 CURVE",
"171 962 OFFCURVE",
"166 772 OFFCURVE",
"139 80 CURVE",
"139 46 OFFCURVE",
"141 2 OFFCURVE",
"143 -29 CURVE",
"426 29 OFFCURVE",
"578 32 OFFCURVE",
"659 32 CURVE SMOOTH"
);
}
);
width = 1981;
}
);
leftKerningGroup = h1;
rightKerningGroup = h1;
unicode = 006E;
},
{
glyphname = o;
layers = (
{
anchors = (
{
name = top;
position = "{940, 473}";
}
);
layerId = "083AB92F-A21B-420A-A5F3-096AB5C32ED3";
name = Regular;
paths = (
{
closed = 1;
nodes = (
"125 46 OFFCURVE",
"557 -45 OFFCURVE",
"945 -45 CURVE SMOOTH",
"1323 -45 OFFCURVE",
"1792 31 OFFCURVE",
"1792 526 CURVE SMOOTH",
"1792 879 OFFCURVE",
"1453 1078 OFFCURVE",
"1008 1078 CURVE SMOOTH",
"495 1078 OFFCURVE",
"125 920 OFFCURVE",
"125 492 CURVE SMOOTH"
);
},
{
closed = 1;
nodes = (
"1235 359 OFFCURVE",
"1143 239 OFFCURVE",
"963 236 CURVE",
"787 236 OFFCURVE",
"690 328 OFFCURVE",
"690 497 CURVE SMOOTH",
"690 629 OFFCURVE",
"780 773 OFFCURVE",
"957 773 CURVE SMOOTH",
"1131 773 OFFCURVE",
"1235 663 OFFCURVE",
"1235 522 CURVE SMOOTH"
);
}
);
width = 1880;
}
);
leftKerningGroup = o;
rightKerningGroup = o;
unicode = 006F;
},
{
glyphname = oslash;
layers = (
{
anchors = (
{
name = top;
position = "{655, 473}";
}
);
layerId = "083AB92F-A21B-420A-A5F3-096AB5C32ED3";
name = Regular;
paths = (
{
closed = 1;
nodes = (
"581 -57 CURVE SMOOTH",
"977 -57 OFFCURVE",
"1306 181 OFFCURVE",
"1306 578 CURVE SMOOTH",
"1306 757 OFFCURVE",
"1225 911 OFFCURVE",
"1092 1007 CURVE",
"1159 1136 LINE",
"1159 1137 OFFCURVE",
"1160 1137 OFFCURVE",
"1160 1140 CURVE SMOOTH",
"1160 1147 OFFCURVE",
"1155 1149 OFFCURVE",
"1148 1152 CURVE",
"1090 1170 OFFCURVE",
"1033 1217 OFFCURVE",
"974 1252 CURVE SMOOTH",
"973 1253 OFFCURVE",
"970 1253 OFFCURVE",
"966 1253 CURVE SMOOTH",
"954 1252 OFFCURVE",
"946 1240 OFFCURVE",
"927 1205 CURVE",
"873 1097 LINE",
"841 1103 OFFCURVE",
"808 1106 OFFCURVE",
"773 1106 CURVE SMOOTH",
"410 1106 OFFCURVE",
"101 863 OFFCURVE",
"101 499 CURVE SMOOTH",
"101 306 OFFCURVE",
"176 123 OFFCURVE",
"320 22 CURVE",
"264 -84 LINE SMOOTH",
"260 -91 OFFCURVE",
"258 -98 OFFCURVE",
"258 -104 CURVE SMOOTH",
"258 -135 OFFCURVE",
"320 -162 OFFCURVE",
"336 -170 CURVE",
"419 -221 LINE SMOOTH",
"429 -227 OFFCURVE",
"437 -230 OFFCURVE",
"442 -230 CURVE SMOOTH",
"456 -229 OFFCURVE",
"458 -209 OFFCURVE",
"469 -189 CURVE SMOOTH",
"538 -55 LINE",
"553 -56 OFFCURVE",
"566 -57 OFFCURVE"
);
},
{
closed = 1;
nodes = (
"486 510 CURVE SMOOTH",
"486 627 OFFCURVE",
"539 844 OFFCURVE",
"699 844 CURVE SMOOTH",
"713 844 OFFCURVE",
"728 842 OFFCURVE",
"745 839 CURVE",
"673 697 OFFCURVE",
"576 522 OFFCURVE",
"504 378 CURVE",
"491 421 OFFCURVE",
"486 465 OFFCURVE"
);
},
{
closed = 1;
nodes = (
"937 569 CURVE SMOOTH",
"937 432 OFFCURVE",
"894 211 OFFCURVE",
"690 211 CURVE SMOOTH",
"686 211 OFFCURVE",
"682 211 OFFCURVE",
"678 213 CURVE",
"920 677 LINE",
"931 641 OFFCURVE",
"937 605 OFFCURVE"
);
}
);
width = 1310;
}
);
leftKerningGroup = o;
rightKerningGroup = o;
unicode = 00F8;
},
{
glyphname = oe;
layers = (
{
anchors = (
{
name = top;
position = "{944, 473}";
}
);
layerId = "083AB92F-A21B-420A-A5F3-096AB5C32ED3";
name = Regular;
paths = (
{
closed = 1;
nodes = (
"535 -60 CURVE SMOOTH",
"808 -60 OFFCURVE",
"893 7 OFFCURVE",
"1019 126 CURVE",
"1128 -18 OFFCURVE",
"1257 -103 OFFCURVE",
"1449 -103 CURVE SMOOTH",
"1561 -103 OFFCURVE",
"1685 -52 OFFCURVE",
"1781 -40 CURVE",
"1790 -32 OFFCURVE",
"1792 9 OFFCURVE",
"1792 60 CURVE",
"1822 140 OFFCURVE",
"1852 298 OFFCURVE",
"1858 298 CURVE",
"1858 307 LINE",
"1752 249 OFFCURVE",
"1627 194 OFFCURVE",
"1488 194 CURVE SMOOTH",
"1382 194 OFFCURVE",
"1278 261 OFFCURVE",
"1272 411 CURVE",
"1341 410 OFFCURVE",
"1411 409 OFFCURVE",
"1483 406 CURVE",
"1717 416 OFFCURVE",
"1856 411 OFFCURVE",
"1856 444 CURVE SMOOTH",
"1856 446 OFFCURVE",
"1855 447 OFFCURVE",
"1855 449 CURVE",
"1879 455 OFFCURVE",
"1890 471 OFFCURVE",
"1890 497 CURVE",
"1914 566 OFFCURVE",
"1925 632 OFFCURVE",
"1925 701 CURVE SMOOTH",
"1925 945 OFFCURVE",
"1715 1125 OFFCURVE",
"1511 1125 CURVE SMOOTH",
"1338 1125 OFFCURVE",
"1196 1051 OFFCURVE",
"1084 936 CURVE",
"999 1034 OFFCURVE",
"886 1097 OFFCURVE",
"749 1097 CURVE SMOOTH",
"398 1097 OFFCURVE",
"106 844 OFFCURVE",
"106 485 CURVE SMOOTH",
"106 228 OFFCURVE",
"232 -60 OFFCURVE"
);
},
{
closed = 1;
nodes = (
"696 217 CURVE",
"539 217 OFFCURVE",
"485 369 OFFCURVE",
"485 499 CURVE SMOOTH",
"485 599 OFFCURVE",
"535 828 OFFCURVE",
"680 828 CURVE SMOOTH",
"806 828 OFFCURVE",
"887 703 OFFCURVE",
"887 574 CURVE SMOOTH",
"887 467 OFFCURVE",
"856 227 OFFCURVE"
);
},
{
closed = 1;
nodes = (
"1507 831 CURVE SMOOTH",
"1570 831 OFFCURVE",
"1660 781 OFFCURVE",
"1660 682 CURVE SMOOTH",
"1660 678 OFFCURVE",
"1659 674 OFFCURVE",
"1659 671 CURVE",
"1260 631 LINE",
"1299 744 OFFCURVE",
"1393 831 OFFCURVE"
);
},
{
closed = 1;
nodes = (
"1921 342 CURVE",
"1901 330 OFFCURVE",
"1880 318 OFFCURVE",
"1858 307 CURVE",
"1863 331 OFFCURVE",
"1890 342 OFFCURVE"
);
}
);
width = 1888;
}
);
leftKerningGroup = e;
rightKerningGroup = e;
unicode = 0153;
},
{
glyphname = p;
layers = (
{
layerId = "083AB92F-A21B-420A-A5F3-096AB5C32ED3";
name = Regular;
paths = (
{
closed = 1;
nodes = (
"1880 560 CURVE SMOOTH",
"1880 842 OFFCURVE",
"1613 1052 OFFCURVE",
"1266 1052 CURVE SMOOTH",
"1010 1052 OFFCURVE",
"757 997 OFFCURVE",
"613 835 CURVE",
"601 913 OFFCURVE",
"583 938 OFFCURVE",
"564 962 CURVE SMOOTH",
"543 987 OFFCURVE",
"522 1010 OFFCURVE",
"496 1031 CURVE",
"418 1005 OFFCURVE",
"347 1005 OFFCURVE",
"271 996 CURVE",
"237 994 OFFCURVE",
"212 989 OFFCURVE",
"186 970 CURVE",
"136 -236 LINE",
"136 -280 OFFCURVE",
"138 -321 OFFCURVE",
"139 -361 CURVE",
"188 -363 OFFCURVE",
"239 -364 OFFCURVE",
"289 -364 CURVE SMOOTH",
"299 -364 OFFCURVE",
"310 -359 OFFCURVE",
"315 -357 CURVE",
"563 -330 LINE",
"625 -326 OFFCURVE",
"673 -323 OFFCURVE",
"718 -319 CURVE",
"718 -189 LINE SMOOTH",
"718 -156 OFFCURVE",
"733 28 OFFCURVE",
"733 61 CURVE",
"842 -2 OFFCURVE",
"1012 -45 OFFCURVE",
"1183 -45 CURVE SMOOTH",
"1554 -45 OFFCURVE",
"1880 196 OFFCURVE"
);
},
{
closed = 1;
nodes = (
"1284 523 CURVE SMOOTH",
"1284 378 OFFCURVE",
"1176 233 OFFCURVE",
"1009 233 CURVE SMOOTH",
"886 233 OFFCURVE",
"796 293 OFFCURVE",
"756 373 CURVE",
"752 391 OFFCURVE",
"750 407 OFFCURVE",
"750 434 CURVE SMOOTH",
"750 512 OFFCURVE",
"751 622 OFFCURVE",
"841 688 CURVE SMOOTH",
"877 715 OFFCURVE",
"954 751 OFFCURVE",
"1039 751 CURVE SMOOTH",
"1177 751 OFFCURVE",
"1284 671 OFFCURVE"
);
}
);
width = 1939;
}
);
leftKerningGroup = p;
rightKerningGroup = p;
unicode = 0070;
},
{
glyphname = thorn;
layers = (
{
layerId = "083AB92F-A21B-420A-A5F3-096AB5C32ED3";
name = Regular;
paths = (
{
closed = 1;
nodes = (
"575 709 LINE",
"616 771 OFFCURVE",
"705 845 OFFCURVE",
"790 845 CURVE SMOOTH",
"893 845 OFFCURVE",
"943 735 OFFCURVE",
"943 588 CURVE SMOOTH",
"943 409 OFFCURVE",
"869 206 OFFCURVE",
"722 206 CURVE SMOOTH",
"638 206 OFFCURVE",
"577 261 OFFCURVE",
"546 341 CURVE",
"549 392 OFFCURVE",
"556 438 OFFCURVE",
"572 694 CURVE"
);
},
{
closed = 1;
nodes = (
"633 1412 LINE",
"633 1418 LINE SMOOTH",
"633 1441 OFFCURVE",
"617 1449 OFFCURVE",
"598 1449 CURVE SMOOTH",
"575 1448 OFFCURVE",
"549 1437 OFFCURVE",
"534 1433 CURVE SMOOTH",
"271 1366 LINE SMOOTH",
"235 1357 OFFCURVE",
"229 1351 OFFCURVE",
"229 1339 CURVE SMOOTH",
"229 1334 OFFCURVE",
"231 1327 OFFCURVE",
"231 1316 CURVE SMOOTH",
"231 1297 OFFCURVE",
"198 989 OFFCURVE",
"198 970 CURVE",
"78 -469 LINE",
"78 -492 OFFCURVE",
"94 -500 OFFCURVE",
"113 -500 CURVE SMOOTH",
"136 -500 OFFCURVE",
"162 -488 OFFCURVE",
"177 -484 CURVE SMOOTH",
"440 -417 LINE SMOOTH",
"475 -408 OFFCURVE",
"481 -402 OFFCURVE",
"481 -391 CURVE SMOOTH",
"481 -384 OFFCURVE",
"480 -378 OFFCURVE",
"480 -367 CURVE SMOOTH",
"480 -347 OFFCURVE",
"516 32 OFFCURVE",
"516 52 CURVE",
"596 -12 OFFCURVE",
"688 -56 OFFCURVE",
"788 -56 CURVE SMOOTH",
"1129 -56 OFFCURVE",
"1324 317 OFFCURVE",
"1324 641 CURVE SMOOTH",
"1324 889 OFFCURVE",
"1211 1107 OFFCURVE",
"960 1107 CURVE SMOOTH",
"827 1107 OFFCURVE",
"710 1056 OFFCURVE",
"598 980 CURVE"
);
}
);
width = 1330;
}
);
leftKerningGroup = p;
rightKerningGroup = p;
unicode = 00FE;
},
{
glyphname = q;
layers = (
{
layerId = "083AB92F-A21B-420A-A5F3-096AB5C32ED3";
name = Regular;
paths = (
{
closed = 1;
nodes = (
"62 481 CURVE SMOOTH",
"62 141 OFFCURVE",
"358 -45 OFFCURVE",
"701 -45 CURVE SMOOTH",
"873 -45 OFFCURVE",
"1046 -1 OFFCURVE",
"1161 63 CURVE",
"1159 29 OFFCURVE",
"1142 -212 OFFCURVE",
"1142 -231 CURVE SMOOTH",
"1142 -281 OFFCURVE",
"1150 -323 OFFCURVE",
"1158 -362 CURVE",
"1212 -362 OFFCURVE",
"1270 -357 OFFCURVE",
"1322 -355 CURVE",
"1571 -315 LINE",
"1631 -311 OFFCURVE",
"1680 -308 OFFCURVE",
"1725 -303 CURVE",
"1725 -181 LINE",
"1743 183 OFFCURVE",
"1756 543 OFFCURVE",
"1774 906 CURVE SMOOTH",
"1775 931 OFFCURVE",
"1779 957 OFFCURVE",
"1782 983 CURVE",
"1759 986 OFFCURVE",
"1738 989 OFFCURVE",
"1716 994 CURVE SMOOTH",
"1681 1001 LINE",
"1649 973 OFFCURVE",
"1609 941 OFFCURVE",
"1572 915 CURVE",
"1396 957 OFFCURVE",
"1244 995 OFFCURVE",
"1112 995 CURVE SMOOTH",
"1059 995 OFFCURVE",
"1008 988 OFFCURVE",
"961 974 CURVE",
"909 1022 OFFCURVE",
"849 1055 OFFCURVE",
"772 1055 CURVE SMOOTH",
"385 1055 OFFCURVE",
"62 798 OFFCURVE"
);
},
{
closed = 1;
nodes = (
"656 463 CURVE SMOOTH",
"656 624 OFFCURVE",
"771 760 OFFCURVE",
"921 760 CURVE SMOOTH",
"1051 760 OFFCURVE",
"1143 684 OFFCURVE",
"1179 594 CURVE",
"1181 587 OFFCURVE",
"1184 581 OFFCURVE",
"1184 570 CURVE",
"1176 448 OFFCURVE",
"1155 378 OFFCURVE",
"1121 330 CURVE",
"1065 280 OFFCURVE",
"979 241 OFFCURVE",
"884 241 CURVE SMOOTH",
"736 241 OFFCURVE",
"656 331 OFFCURVE"
);
},
{
closed = 1;
nodes = (
"1663 1005 CURVE",
"1680 1012 OFFCURVE",
"1697 1018 OFFCURVE",
"1705 1023 CURVE",
"1681 1001 LINE",
"1675 1003 OFFCURVE",
"1669 1004 OFFCURVE"
);
},
{
closed = 1;
nodes = (
"1710 1027 CURVE",
"1707 1024 LINE SMOOTH",
"1709 1025 OFFCURVE",
"1710 1026 OFFCURVE"
);
},
{
closed = 1;
nodes = (
"1707 1024 CURVE",
"1705 1023 LINE",
"1706 1023 OFFCURVE",
"1706 1023 OFFCURVE"
);
}
);
width = 1915;
}
);
leftKerningGroup = g1;
rightKerningGroup = g1;
unicode = 0071;
},
{
glyphname = r;
layers = (
{
anchors = (
{
name = bottom;
position = "{702, 0}";
},
{
name = top;
position = "{702, 473}";
}
);
layerId = "083AB92F-A21B-420A-A5F3-096AB5C32ED3";
name = Regular;
paths = (
{
closed = 1;
nodes = (
"185 966 CURVE",
"148 59 LINE",
"148 32 OFFCURVE",
"151 6 OFFCURVE",
"154 -19 CURVE",
"186 -22 OFFCURVE",
"218 -23 OFFCURVE",
"257 -23 CURVE SMOOTH",
"355 -23 OFFCURVE",
"451 -2 OFFCURVE",
"547 9 CURVE",
"634 21 LINE",
"680 26 OFFCURVE",
"708 30 OFFCURVE",
"732 35 CURVE",
"732 162 LINE",
"735 355 OFFCURVE",
"747 360 OFFCURVE",
"758 554 CURVE",
"781 655 OFFCURVE",
"841 708 OFFCURVE",
"945 708 CURVE SMOOTH",
"1026 708 OFFCURVE",
"1069 655 OFFCURVE",
"1092 608 CURVE",
"1081 580 OFFCURVE",
"1068 567 OFFCURVE",
"1057 563 CURVE",
"1330 575 LINE",
"1356 644 OFFCURVE",
"1380 720 OFFCURVE",
"1398 798 CURVE SMOOTH",
"1402 815 OFFCURVE",
"1409 834 OFFCURVE",
"1414 852 CURVE",
"1395 940 OFFCURVE",
"1304 985 OFFCURVE",
"1205 1006 CURVE",
"1162 1019 OFFCURVE",
"1115 1027 OFFCURVE",
"1066 1027 CURVE SMOOTH",
"943 1027 OFFCURVE",
"734 986 OFFCURVE",
"600 826 CURVE",
"593 892 OFFCURVE",
"581 902 OFFCURVE",
"566 912 CURVE",
"538 951 OFFCURVE",
"508 989 OFFCURVE",
"475 1026 CURVE",
"418 1009 OFFCURVE",
"353 1001 OFFCURVE",
"296 991 CURVE",
"253 989 OFFCURVE",
"220 983 OFFCURVE"
);
},
{
closed = 1;
nodes = (
"1040 563 CURVE",
"1057 563 LINE",
"1054 561 OFFCURVE",
"1051 561 OFFCURVE",
"1048 561 CURVE SMOOTH",
"1045 561 OFFCURVE",
"1042 561 OFFCURVE"
);
}
);
width = 1403;
}
);
leftKerningGroup = m;
rightKerningGroup = m;
unicode = 0072;
},
{
glyphname = s;
layers = (
{
anchors = (
{
name = bottom;
position = "{797, 0}";
},
{
name = top;
position = "{797, 473}";
}
);
layerId = "083AB92F-A21B-420A-A5F3-096AB5C32ED3";
name = Regular;
paths = (
{
closed = 1;
nodes = (
"742 -47 CURVE SMOOTH",
"1357 -47 OFFCURVE",
"1491 96 OFFCURVE",
"1491 313 CURVE SMOOTH",
"1491 622 OFFCURVE",
"1112 645 OFFCURVE",
"784 682 CURVE SMOOTH",
"701 691 OFFCURVE",
"652 691 OFFCURVE",
"652 717 CURVE SMOOTH",
"652 751 OFFCURVE",
"752 766 OFFCURVE",
"906 766 CURVE SMOOTH",
"1064 766 OFFCURVE",
"1267 712 OFFCURVE",
"1318 695 CURVE",
"1401 898 OFFCURVE",
"1403 924 OFFCURVE",
"1408 957 CURVE",
"1251 1038 OFFCURVE",
"1092 1049 OFFCURVE",
"929 1056 CURVE SMOOTH",
"852 1059 OFFCURVE",
"110 1079 OFFCURVE",
"110 702 CURVE SMOOTH",
"110 421 OFFCURVE",
"471 412 OFFCURVE",
"788 353 CURVE SMOOTH",
"880 336 OFFCURVE",
"919 329 OFFCURVE",
"919 294 CURVE SMOOTH",
"919 263 OFFCURVE",
"860 250 OFFCURVE",
"780 250 CURVE SMOOTH",
"419 250 OFFCURVE",
"220 326 OFFCURVE",
"178 333 CURVE",
"160 232 OFFCURVE",
"137 141 OFFCURVE",
"110 49 CURVE",
"241 -26 OFFCURVE",
"556 -47 OFFCURVE"
);
}
);
width = 1593;
}
);
leftKerningGroup = s;
rightKerningGroup = s;
unicode = 0073;
},
{
glyphname = germandbls;
layers = (
{
layerId = "083AB92F-A21B-420A-A5F3-096AB5C32ED3";
name = Regular;
paths = (
{
closed = 1;
nodes = (
"134 170 CURVE SMOOTH",
"130 123 OFFCURVE",
"123 99 OFFCURVE",
"123 52 CURVE SMOOTH",
"123 36 OFFCURVE",
"130 19 OFFCURVE",
"157 13 CURVE SMOOTH",
"246 -9 OFFCURVE",
"364 -23 OFFCURVE",
"473 -38 CURVE",
"489 -38 OFFCURVE",
"513 -31 OFFCURVE",
"514 -12 CURVE SMOOTH",
"533 253 LINE",
"549 447 OFFCURVE",
"545 666 OFFCURVE",
"585 947 CURVE",
"598 1092 OFFCURVE",
"736 1126 OFFCURVE",
"787 1126 CURVE SMOOTH",
"876 1126 OFFCURVE",
"925 1066 OFFCURVE",
"925 957 CURVE SMOOTH",
"925 880 OFFCURVE",
"817 827 OFFCURVE",
"745 800 CURVE",
"703 741 LINE SMOOTH",
"664 687 OFFCURVE",
"643 662 OFFCURVE",
"643 642 CURVE SMOOTH",
"643 627 OFFCURVE",
"648 615 OFFCURVE",
"665 613 CURVE SMOOTH",
"723 604 OFFCURVE",
"971 584 OFFCURVE",
"971 468 CURVE SMOOTH",
"971 282 OFFCURVE",
"819 224 OFFCURVE",
"651 196 CURVE SMOOTH",
"616 190 OFFCURVE",
"608 170 OFFCURVE",
"608 135 CURVE SMOOTH",
"608 111 OFFCURVE",
"612 79 OFFCURVE",
"615 39 CURVE SMOOTH",
"623 -79 OFFCURVE",
"615 -112 OFFCURVE",
"662 -112 CURVE SMOOTH",
"1024 -112 OFFCURVE",
"1356 149 OFFCURVE",
"1356 498 CURVE SMOOTH",
"1356 650 OFFCURVE",
"1258 698 OFFCURVE",
"1099 794 CURVE",
"1248 887 OFFCURVE",
"1310 994 OFFCURVE",
"1310 1094 CURVE SMOOTH",
"1310 1283 OFFCURVE",
"1082 1448 OFFCURVE",
"788 1448 CURVE SMOOTH",
"76 1448 OFFCURVE",
"193 862 OFFCURVE"
);
}
);
width = 1365;
}
);
unicode = 00DF;
},
{
glyphname = t;
layers = (
{
anchors = (
{
name = bottom;
position = "{739, 0}";
},
{
name = center;
position = "{739, 237}";
}
);
layerId = "083AB92F-A21B-420A-A5F3-096AB5C32ED3";
name = Regular;
paths = (
{
closed = 1;
nodes = (
"325 741 LINE",
"320 645 OFFCURVE",
"319 545 OFFCURVE",
"312 439 CURVE",
"312 427 LINE SMOOTH",
"312 108 OFFCURVE",
"577 -43 OFFCURVE",
"930 -43 CURVE SMOOTH",
"1066 -43 OFFCURVE",
"1294 -17 OFFCURVE",
"1427 40 CURVE",
"1427 62 OFFCURVE",
"1427 85 OFFCURVE",
"1426 110 CURVE",
"1408 226 OFFCURVE",
"1414 296 OFFCURVE",
"1403 347 CURVE",
"1341 328 OFFCURVE",
"1218 291 OFFCURVE",
"1116 286 CURVE",
"1000 286 OFFCURVE",
"904 315 OFFCURVE",
"904 466 CURVE",
"907 552 OFFCURVE",
"913 648 OFFCURVE",
"921 744 CURVE",
"1179 744 LINE SMOOTH",
"1198 744 OFFCURVE",
"1216 743 OFFCURVE",
"1234 743 CURVE SMOOTH",
"1275 743 OFFCURVE",
"1312 745 OFFCURVE",
"1341 756 CURVE",
"1357 859 LINE",
"1369 910 OFFCURVE",
"1375 950 OFFCURVE",
"1375 977 CURVE",
"1349 985 OFFCURVE",
"1317 988 OFFCURVE",
"1285 988 CURVE SMOOTH",
"931 988 LINE",
"938 1124 OFFCURVE",
"948 1252 OFFCURVE",
"948 1350 CURVE SMOOTH",
"948 1378 OFFCURVE",
"946 1404 OFFCURVE",
"942 1431 CURVE",
"793 1431 OFFCURVE",
"492 1410 OFFCURVE",
"338 1394 CURVE",
"335 1294 OFFCURVE",
"338 1176 OFFCURVE",
"330 988 CURVE",
"145 988 LINE",
"140 934 OFFCURVE",
"85 803 OFFCURVE",
"85 751 CURVE",
"109 743 OFFCURVE",
"148 741 OFFCURVE",
"203 741 CURVE SMOOTH"
);
}
);
width = 1477;
}
);
leftKerningGroup = t;
rightKerningGroup = t;
unicode = 0074;
},
{
glyphname = u;
layers = (
{
anchors = (
{
name = ogonek;
position = "{1771, 10}";
},
{
name = top;
position = "{984, 473}";
}
);
layerId = "083AB92F-A21B-420A-A5F3-096AB5C32ED3";
name = Regular;
paths = (
{
closed = 1;
nodes = (
"1779 26 CURVE",
"1832 930 OFFCURVE",
"1831 924 OFFCURVE",
"1831 918 CURVE SMOOTH",
"1831 957 OFFCURVE",
"1831 995 OFFCURVE",
"1830 1035 CURVE",
"1544 1019 OFFCURVE",
"1399 1011 OFFCURVE",
"1256 1001 CURVE",
"1235 874 OFFCURVE",
"1264 552 OFFCURVE",
"1204 431 CURVE",
"1166 348 OFFCURVE",
"1113 249 OFFCURVE",
"953 249 CURVE SMOOTH",
"798 249 OFFCURVE",
"734 362 OFFCURVE",
"734 507 CURVE SMOOTH",
"734 518 OFFCURVE",
"751 853 OFFCURVE",
"761 1027 CURVE",
"716 1031 OFFCURVE",
"667 1035 OFFCURVE",
"609 1035 CURVE SMOOTH",
"462 1035 OFFCURVE",
"231 1004 OFFCURVE",
"150 990 CURVE",
"145 809 OFFCURVE",
"127 692 OFFCURVE",
"127 407 CURVE SMOOTH",
"127 65 OFFCURVE",
"455 -42 OFFCURVE",
"758 -42 CURVE SMOOTH",
"981 -42 OFFCURVE",
"1228 25 OFFCURVE",
"1366 181 CURVE",
"1375 111 OFFCURVE",
"1442 4 OFFCURVE",
"1462 -21 CURVE",
"1624 1 OFFCURVE",
"1705 13 OFFCURVE"
);
}
);
width = 1968;
}
);
leftKerningGroup = u;
rightKerningGroup = u;
unicode = 0075;
},
{
glyphname = uni020B;
layers = (
{
layerId = "083AB92F-A21B-420A-A5F3-096AB5C32ED3";
name = Regular;
paths = (
{
closed = 1;
nodes = (
"145 424 CURVE",
"133 288 OFFCURVE",
"106 -53 OFFCURVE",
"106 -58 CURVE SMOOTH",
"106 -65 OFFCURVE",
"110 -68 OFFCURVE",
"117 -68 CURVE SMOOTH",
"121 -68 OFFCURVE",
"124 -68 OFFCURVE",
"126 -67 CURVE SMOOTH",
"255 -24 OFFCURVE",
"369 21 OFFCURVE",
"482 56 CURVE",
"506 61 OFFCURVE",
"507 74 OFFCURVE",
"511 118 CURVE SMOOTH",
"601 1108 LINE SMOOTH",
"601 1113 OFFCURVE",
"597 1116 OFFCURVE",
"590 1116 CURVE SMOOTH",
"586 1116 OFFCURVE",
"583 1116 OFFCURVE",
"581 1115 CURVE SMOOTH",
"465 1076 OFFCURVE",
"336 1055 OFFCURVE",
"223 1032 CURVE SMOOTH",
"199 1027 OFFCURVE",
"197 1014 OFFCURVE",
"194 970 CURVE SMOOTH",
"179 782 OFFCURVE",
"164 607 OFFCURVE"
);
},
{
closed = 1;
nodes = (
"456 1229 CURVE SMOOTH",
"456 1226 OFFCURVE",
"455 1226 OFFCURVE",
"455 1223 CURVE SMOOTH",
"455 1210 OFFCURVE",
"468 1202 OFFCURVE",
"540 1202 CURVE SMOOTH",
"630 1202 OFFCURVE",
"637 1212 OFFCURVE",
"637 1239 CURVE SMOOTH",
"637 1362 OFFCURVE",
"562 1488 OFFCURVE",
"381 1488 CURVE SMOOTH",
"212 1488 OFFCURVE",
"77 1402 OFFCURVE",
"77 1253 CURVE SMOOTH",
"77 1221 OFFCURVE",
"81 1207 OFFCURVE",
"172 1207 CURVE SMOOTH",
"238 1207 OFFCURVE",
"243 1216 OFFCURVE",
"246 1230 CURVE",
"246 1231 OFFCURVE",
"245 1232 OFFCURVE",
"245 1233 CURVE SMOOTH",
"245 1272 OFFCURVE",
"270 1332 OFFCURVE",
"356 1332 CURVE SMOOTH",
"425 1332 OFFCURVE",
"460 1292 OFFCURVE",
"460 1256 CURVE SMOOTH",
"460 1245 OFFCURVE",
"457 1236 OFFCURVE"
);
}
);
width = 611;
}
);
unicode = 020B;
},
{
glyphname = v;
layers = (
{
layerId = "083AB92F-A21B-420A-A5F3-096AB5C32ED3";
name = Regular;
paths = (
{
closed = 1;
nodes = (
"104 983 CURVE",
"163 864 LINE",
"274 591 OFFCURVE",
"381 318 OFFCURVE",
"477 87 CURVE",
"495 52 OFFCURVE",
"514 18 OFFCURVE",
"534 -17 CURVE",
"558 -19 OFFCURVE",
"584 -19 OFFCURVE",
"609 -19 CURVE SMOOTH",
"659 -19 LINE",
"861 7 OFFCURVE",
"1141 -11 OFFCURVE",
"1255 55 CURVE",
"1261 79 OFFCURVE",
"1273 101 OFFCURVE",
"1281 115 CURVE SMOOTH",
"1687 864 LINE",
"1712 903 OFFCURVE",
"1733 941 OFFCURVE",
"1756 977 CURVE",
"1690 977 OFFCURVE",
"1446 1026 OFFCURVE",
"1341 1026 CURVE SMOOTH",
"1289 1026 OFFCURVE",
"1239 1026 OFFCURVE",
"1188 1024 CURVE",
"1125 907 OFFCURVE",
"982 542 OFFCURVE",
"922 416 CURVE",
"867 588 OFFCURVE",
"810 759 OFFCURVE",
"754 931 CURVE",
"738 962 OFFCURVE",
"724 993 OFFCURVE",
"708 1025 CURVE",
"666 1026 OFFCURVE",
"623 1026 OFFCURVE",
"580 1026 CURVE",
"468 1012 LINE",
"338 1001 OFFCURVE",
"251 995 OFFCURVE"
);
}
);
width = 1774;
}
);
unicode = 0076;
},
{
glyphname = w;
layers = (
{
anchors = (
{
name = top;
position = "{1265, 473}";
}
);
layerId = "083AB92F-A21B-420A-A5F3-096AB5C32ED3";
name = Regular;
paths = (
{
closed = 1;
nodes = (
"129 983 CURVE",
"252 637 OFFCURVE",
"355 287 OFFCURVE",
"456 -13 CURVE",
"494 -17 OFFCURVE",
"538 -19 OFFCURVE",
"582 -19 CURVE",
"765 -5 OFFCURVE",
"1021 9 OFFCURVE",
"1161 25 CURVE",
"1167 58 OFFCURVE",
"1178 94 OFFCURVE",
"1187 127 CURVE SMOOTH",
"1273 440 LINE",
"1313 261 OFFCURVE",
"1343 124 OFFCURVE",
"1372 -20 CURVE",
"1411 -24 OFFCURVE",
"1452 -26 OFFCURVE",
"1497 -26 CURVE",
"1676 -12 OFFCURVE",
"1936 2 OFFCURVE",
"2072 20 CURVE",
"2087 59 OFFCURVE",
"2103 98 OFFCURVE",
"2121 135 CURVE",
"2237 418 OFFCURVE",
"2353 702 OFFCURVE",
"2474 982 CURVE",
"2391 985 OFFCURVE",
"2186 1030 OFFCURVE",
"2071 1030 CURVE SMOOTH",
"2019 1030 OFFCURVE",
"1968 1025 OFFCURVE",
"1915 1020 CURVE",
"1908 988 OFFCURVE",
"1900 955 OFFCURVE",
"1892 925 CURVE SMOOTH",
"1754 412 LINE",
"1626 925 LINE",
"1606 1020 LINE",
"1533 1024 OFFCURVE",
"1458 1026 OFFCURVE",
"1378 1026 CURVE",
"1261 1010 OFFCURVE",
"1138 1000 OFFCURVE",
"1019 990 CURVE",
"1004 959 OFFCURVE",
"994 927 OFFCURVE",
"985 894 CURVE SMOOTH",
"843 407 LINE",
"742 923 LINE SMOOTH",
"735 956 OFFCURVE",
"730 987 OFFCURVE",
"725 1020 CURVE",
"684 1025 OFFCURVE",
"642 1026 OFFCURVE",
"596 1026 CURVE",
"486 1012 LINE",
"358 1001 OFFCURVE",
"274 995 OFFCURVE"
);
}
);
width = 2530;
}
);
unicode = 0077;
},
{
glyphname = x;
layers = (
{
layerId = "083AB92F-A21B-420A-A5F3-096AB5C32ED3";
name = Regular;
paths = (
{
closed = 1;
nodes = (
"132 986 CURVE",
"320 824 OFFCURVE",
"496 648 OFFCURVE",
"676 478 CURVE",
"241 104 LINE",
"195 67 OFFCURVE",
"156 37 OFFCURVE",
"120 10 CURVE",
"248 10 OFFCURVE",
"488 -29 OFFCURVE",
"634 -29 CURVE SMOOTH",
"675 -29 OFFCURVE",
"715 -29 OFFCURVE",
"756 -27 CURVE",
"843 30 LINE",
"862 40 OFFCURVE",
"923 110 OFFCURVE",
"985 175 CURVE",
"1060 83 OFFCURVE",
"1137 -6 OFFCURVE",
"1168 -27 CURVE",
"1214 -30 OFFCURVE",
"1259 -31 OFFCURVE",
"1303 -32 CURVE",
"1488 -22 OFFCURVE",
"1778 5 OFFCURVE",
"1946 11 CURVE",
"1915 39 OFFCURVE",
"1881 67 OFFCURVE",
"1843 98 CURVE",
"1370 552 LINE",
"1538 698 OFFCURVE",
"1712 850 OFFCURVE",
"1892 986 CURVE",
"1770 987 OFFCURVE",
"1535 1026 OFFCURVE",
"1403 1026 CURVE SMOOTH",
"1365 1026 OFFCURVE",
"1326 1026 OFFCURVE",
"1289 1025 CURVE",
"1215 972 LINE",
"1084 836 LINE",
"1041 891 OFFCURVE",
"1000 946 OFFCURVE",
"957 1001 CURVE",
"885 1052 LINE",
"844 1045 OFFCURVE",
"805 1036 OFFCURVE",
"765 1028 CURVE",
"579 1018 OFFCURVE",
"298 992 OFFCURVE"
);
}
);
width = 2038;
}
);
unicode = 0078;
},
{
glyphname = y;
layers = (
{
anchors = (
{
name = top;
position = "{845, 473}";
}
);
layerId = "083AB92F-A21B-420A-A5F3-096AB5C32ED3";
name = Regular;
paths = (
{
closed = 1;
nodes = (
"138 990 LINE",
"152 959 OFFCURVE",
"169 928 OFFCURVE",
"187 895 CURVE",
"187 891 OFFCURVE",
"187 885 OFFCURVE",
"191 876 CURVE SMOOTH",
"345 580 OFFCURVE",
"505 255 OFFCURVE",
"655 -38 CURVE",
"676 -96 OFFCURVE",
"690 -147 OFFCURVE",
"698 -188 CURVE",
"648 -335 OFFCURVE",
"567 -434 OFFCURVE",
"519 -434 CURVE SMOOTH",
"492 -434 OFFCURVE",
"473 -409 OFFCURVE",
"473 -362 CURVE SMOOTH",
"473 -327 OFFCURVE",
"485 -309 OFFCURVE",
"512 -282 CURVE",
"495 -289 OFFCURVE",
"461 -292 OFFCURVE",
"440 -312 CURVE",
"413 -366 OFFCURVE",
"406 -407 OFFCURVE",
"406 -442 CURVE SMOOTH",
"406 -573 OFFCURVE",
"461 -672 OFFCURVE",
"642 -672 CURVE SMOOTH",
"706 -672 OFFCURVE",
"784 -611 OFFCURVE",
"833 -570 CURVE",
"985 -432 OFFCURVE",
"1073 -333 OFFCURVE",
"1175 -105 CURVE",
"1632 876 LINE",
"1650 920 OFFCURVE",
"1661 954 OFFCURVE",
"1672 990 CURVE",
"1537 1000 OFFCURVE",
"1401 1009 OFFCURVE",
"1267 1026 CURVE",
"1236 1026 OFFCURVE",
"1205 1026 OFFCURVE",
"1176 1024 CURVE",
"1130 912 OFFCURVE",
"1005 553 OFFCURVE",
"961 433 CURVE",
"770 976 LINE",
"772 967 OFFCURVE",
"775 957 OFFCURVE",
"778 948 CURVE",
"739 1025 LINE",
"705 1026 OFFCURVE",
"671 1026 OFFCURVE",
"638 1026 CURVE",
"522 1012 LINE"
);
},
{
closed = 1;
nodes = (
"769 979 CURVE",
"767 985 LINE SMOOTH",
"767 983 OFFCURVE",
"768 981 OFFCURVE"
);
},
{
closed = 1;
nodes = (
"770 976 CURVE",
"769 979 LINE",
"769 978 OFFCURVE",
"769 977 OFFCURVE"
);
}
);
width = 1689;
}
);
leftKerningGroup = y;
rightKerningGroup = y;
unicode = 0079;
},
{
glyphname = z;
layers = (
{
anchors = (
{
name = top;
position = "{773, 473}";
}
);
layerId = "083AB92F-A21B-420A-A5F3-096AB5C32ED3";
name = Regular;
paths = (
{
closed = 1;
nodes = (
"250 0 CURVE",
"561 0 LINE SMOOTH",
"679 0 OFFCURVE",
"780 5 OFFCURVE",
"780 70 CURVE",
"893 277 LINE",
"928 319 OFFCURVE",
"952 363 OFFCURVE",
"952 374 CURVE SMOOTH",
"952 379 OFFCURVE",
"950 380 OFFCURVE",
"947 380 CURVE SMOOTH",
"858 380 OFFCURVE",
"773 372 OFFCURVE",
"679 372 CURVE SMOOTH",
"678 372 OFFCURVE",
"677 373 OFFCURVE",
"677 374 CURVE SMOOTH",
"677 375 OFFCURVE",
"680 377 OFFCURVE",
"691 380 CURVE",
"872 895 LINE SMOOTH",
"886 935 OFFCURVE",
"944 1026 OFFCURVE",
"944 1070 CURVE SMOOTH",
"944 1073 OFFCURVE",
"943 1076 OFFCURVE",
"943 1079 CURVE SMOOTH",
"943 1079 OFFCURVE",
"919 1076 OFFCURVE",
"900 1059 CURVE",
"679 1059 OFFCURVE",
"473 1074 OFFCURVE",
"250 1074 CURVE SMOOTH",
"227 1074 OFFCURVE",
"202 1065 OFFCURVE",
"202 1019 CURVE",
"73 762 LINE",
"63 751 OFFCURVE",
"58 740 OFFCURVE",
"58 736 CURVE SMOOTH",
"58 735 OFFCURVE",
"58 735 OFFCURVE",
"59 735 CURVE SMOOTH",
"132 735 OFFCURVE",
"322 746 OFFCURVE",
"425 746 CURVE",
"140 28 LINE",
"159 6 OFFCURVE",
"212 0 OFFCURVE"
);
},
{
closed = 1;
nodes = (
"135 61 CURVE",
"133 56 OFFCURVE",
"132 52 OFFCURVE",
"132 48 CURVE SMOOTH",
"132 42 OFFCURVE",
"134 38 OFFCURVE",
"136 34 CURVE",
"136 42 OFFCURVE",
"135 51 OFFCURVE"
);
},
{
closed = 1;
nodes = (
"137 19 LINE",
"137 24 OFFCURVE",
"137 29 OFFCURVE",
"136 34 CURVE",
"140 28 LINE"
);
}
);
width = 1545;
}
);
leftKerningGroup = z;
rightKerningGroup = z;
unicode = 007A;
},
{
glyphname = fi;
layers = (
{
layerId = "083AB92F-A21B-420A-A5F3-096AB5C32ED3";
name = Regular;
paths = (
{
closed = 1;
nodes = (
"1074 424 LINE SMOOTH",
"1061 288 OFFCURVE",
"1036 -53 OFFCURVE",
"1035 -58 CURVE",
"1035 -65 OFFCURVE",
"1035 -68 OFFCURVE",
"1046 -68 CURVE",
"1179 -27 OFFCURVE",
"1294 20 OFFCURVE",
"1411 56 CURVE",
"1435 61 OFFCURVE",
"1435 74 OFFCURVE",
"1440 118 CURVE",
"1530 1076 LINE",
"1527 1078 LINE SMOOTH",
"1524 1079 OFFCURVE",
"1521 1082 OFFCURVE",
"1519 1086 CURVE",
"1515 1086 OFFCURVE",
"1512 1086 OFFCURVE",
"1510 1085 CURVE SMOOTH",
"1402 1056 OFFCURVE",
"1282 1024 OFFCURVE",
"1174 1024 CURVE SMOOTH",
"717 1024 LINE",
"725 1092 OFFCURVE",
"732 1164 OFFCURVE",
"747 1224 CURVE SMOOTH",
"772 1328 OFFCURVE",
"816 1358 OFFCURVE",
"876 1358 CURVE SMOOTH",
"903 1358 OFFCURVE",
"926 1346 OFFCURVE",
"954 1334 CURVE",
"969 1334 OFFCURVE",
"977 1335 OFFCURVE",
"986 1324 CURVE",
"1011 1324 OFFCURVE",
"1005 1364 OFFCURVE",
"1077 1511 CURVE SMOOTH",
"1082 1520 OFFCURVE",
"1084 1527 OFFCURVE",
"1084 1532 CURVE SMOOTH",
"1084 1559 OFFCURVE",
"862 1642 OFFCURVE",
"801 1642 CURVE SMOOTH",
"529 1642 OFFCURVE",
"394 1492 OFFCURVE",
"359 1183 CURVE",
"339 1024 LINE",
"217 1024 LINE",
"205 1008 OFFCURVE",
"70 806 OFFCURVE",
"70 791 CURVE SMOOTH",
"70 772 OFFCURVE",
"100 768 OFFCURVE",
"172 768 CURVE SMOOTH",
"305 768 LINE",
"269 396 OFFCURVE",
"236 23 OFFCURVE",
"232 -21 CURVE SMOOTH",
"232 -27 LINE SMOOTH",
"232 -50 OFFCURVE",
"248 -58 OFFCURVE",
"267 -58 CURVE SMOOTH",
"290 -58 OFFCURVE",
"316 -47 OFFCURVE",
"331 -42 CURVE SMOOTH",
"594 51 LINE",
"630 60 OFFCURVE",
"634 66 OFFCURVE",
"634 78 CURVE SMOOTH",
"634 81 OFFCURVE",
"633 85 OFFCURVE",
"633 90 CURVE SMOOTH",
"633 95 OFFCURVE",
"633 99 OFFCURVE",
"634 101 CURVE",
"645 202 OFFCURVE",
"672 495 OFFCURVE",
"701 771 CURVE",
"1107 771 LINE"
);
},
{
closed = 1;
nodes = (
"1590 1652 CURVE",
"1590 1664 OFFCURVE",
"1590 1672 OFFCURVE",
"1579 1672 CURVE",
"1446 1645 OFFCURVE",
"1330 1611 OFFCURVE",
"1214 1588 CURVE SMOOTH",
"1190 1583 OFFCURVE",
"1190 1570 OFFCURVE",
"1185 1526 CURVE",
"1163 1252 LINE",
"1174 1242 LINE",
"1291 1277 OFFCURVE",
"1424 1302 OFFCURVE",
"1541 1326 CURVE SMOOTH",
"1565 1331 OFFCURVE",
"1566 1344 OFFCURVE",
"1570 1388 CURVE SMOOTH",
"1590 1649 OFFCURVE",
"1574 1424 OFFCURVE"
);
}
);
width = 1542;
}
);
leftKerningGroup = i1;
rightKerningGroup = i1;
unicode = FB01;
},
{
glyphname = e.alt;
layers = (
{
anchors = (
{
name = bottom;
position = "{575, 0}";
},
{
name = ogonek;
position = "{1035, 10}";
},
{
name = top;
position = "{575, 473}";
}
);
layerId = "083AB92F-A21B-420A-A5F3-096AB5C32ED3";
name = Regular;
paths = (
{
closed = 1;
nodes = (
"1126 548 CURVE",
"1139 597 OFFCURVE",
"1147 647 OFFCURVE",
"1147 694 CURVE SMOOTH",
"1147 934 OFFCURVE",
"916 1117 OFFCURVE",
"728 1117 CURVE SMOOTH",
"365 1117 OFFCURVE",
"100 837 OFFCURVE",
"100 488 CURVE SMOOTH",
"100 149 OFFCURVE",
"373 -61 OFFCURVE",
"662 -61 CURVE SMOOTH",
"801 -61 OFFCURVE",
"980 2 OFFCURVE",
"1067 50 CURVE SMOOTH",
"1075 55 OFFCURVE",
"1083 61 OFFCURVE",
"1083 72 CURVE SMOOTH",
"1083 77 OFFCURVE",
"1081 83 OFFCURVE",
"1078 90 CURVE",
"1081 229 OFFCURVE",
"1080 323 OFFCURVE",
"1081 322 CURVE",
"1073 322 OFFCURVE",
"1065 320 OFFCURVE",
"1053 317 CURVE",
"962 266 OFFCURVE",
"852 211 OFFCURVE",
"724 211 CURVE SMOOTH",
"609 211 OFFCURVE",
"501 264 OFFCURVE",
"490 385 CURVE",
"609 417 OFFCURVE",
"736 422 OFFCURVE",
"853 451 CURVE",
"1055 493 OFFCURVE",
"1126 468 OFFCURVE"
);
},
{
closed = 1;
nodes = (
"703 850 CURVE SMOOTH",
"775 850 OFFCURVE",
"863 800 OFFCURVE",
"863 701 CURVE SMOOTH",
"863 696 OFFCURVE",
"862 690 OFFCURVE",
"862 685 CURVE",
"481 604 LINE",
"516 752 OFFCURVE",
"595 850 OFFCURVE"
);
}
);
width = 1150;
}
);
leftKerningGroup = e;
rightKerningGroup = e;
},
{
glyphname = mu;
layers = (
{
layerId = "083AB92F-A21B-420A-A5F3-096AB5C32ED3";
name = Regular;
paths = (
{
closed = 1;
nodes = (
"86 -323 LINE",
"107 -322 OFFCURVE",
"135 -317 OFFCURVE",
"148 -314 CURVE SMOOTH",
"214 -298 OFFCURVE",
"434 -283 OFFCURVE",
"434 -279 CURVE SMOOTH",
"434 -264 OFFCURVE",
"437 -263 OFFCURVE",
"437 -264 CURVE",
"506 21 LINE",
"506 8 OFFCURVE",
"532 1 OFFCURVE",
"571 1 CURVE SMOOTH",
"634 1 OFFCURVE",
"728 21 OFFCURVE",
"784 58 CURVE",
"768 -23 OFFCURVE",
"761 -64 OFFCURVE",
"756 -84 CURVE",
"810 -71 OFFCURVE",
"892 -23 OFFCURVE",
"942 -6 CURVE",
"981 4 OFFCURVE",
"1184 50 OFFCURVE",
"1184 61 CURVE SMOOTH",
"1184 65 OFFCURVE",
"1181 68 OFFCURVE",
"1177 70 CURVE",
"1183 71 OFFCURVE",
"1184 78 OFFCURVE",
"1188 100 CURVE",
"1299 1039 LINE",
"1309 1141 LINE",
"1295 1086 OFFCURVE",
"1039 1041 OFFCURVE",
"923 1014 CURVE",
"919 1016 OFFCURVE",
"916 1018 OFFCURVE",
"913 1018 CURVE SMOOTH",
"870 1018 OFFCURVE",
"865 778 OFFCURVE",
"852 668 CURVE SMOOTH",
"851 664 OFFCURVE",
"851 658 OFFCURVE",
"851 650 CURVE SMOOTH",
"851 636 OFFCURVE",
"852 617 OFFCURVE",
"852 594 CURVE SMOOTH",
"852 467 OFFCURVE",
"836 231 OFFCURVE",
"635 231 CURVE SMOOTH",
"597 231 OFFCURVE",
"555 261 OFFCURVE",
"555 354 CURVE SMOOTH",
"555 420 OFFCURVE",
"569 508 OFFCURVE",
"579 586 CURVE SMOOTH",
"626 960 OFFCURVE",
"626 989 OFFCURVE",
"652 1109 CURVE",
"654 1111 LINE",
"588 1111 OFFCURVE",
"504 1069 OFFCURVE",
"449 1057 CURVE SMOOTH",
"389 1043 OFFCURVE",
"325 1029 OFFCURVE",
"252 1014 CURVE",
"243 1011 OFFCURVE",
"240 1005 OFFCURVE",
"240 995 CURVE SMOOTH",
"240 984 OFFCURVE",
"244 967 OFFCURVE",
"248 941 CURVE",
"247 942 LINE",
"240 942 OFFCURVE",
"178 350 OFFCURVE",
"78 -330 CURVE"
);
},
{
closed = 1;
nodes = (
"747 -100 CURVE",
"743 -97 OFFCURVE",
"739 -92 OFFCURVE",
"736 -87 CURVE",
"756 -84 LINE",
"752 -97 OFFCURVE",
"750 -101 OFFCURVE",
"748 -101 CURVE SMOOTH",
"748 -101 OFFCURVE",
"747 -101 OFFCURVE"
);
},
{
closed = 1;
nodes = (
"78 -330 CURVE",
"76 -340 OFFCURVE",
"75 -349 OFFCURVE",
"74 -359 CURVE",
"72 -348 OFFCURVE",
"72 -338 OFFCURVE",
"72 -332 CURVE",
"73 -332 OFFCURVE",
"75 -331 OFFCURVE"
);
},
{
closed = 1;
nodes = (
"734 -83 LINE",
"732 -85 OFFCURVE",
"730 -86 OFFCURVE",
"730 -86 CURVE",
"730 -87 OFFCURVE",
"731 -87 OFFCURVE",
"733 -87 CURVE SMOOTH",
"736 -87 LINE"
);
}
);
width = 1277;
}
);
unicode = 03BC;
},
{
glyphname = zero;
layers = (
{
layerId = "083AB92F-A21B-420A-A5F3-096AB5C32ED3";
name = Regular;
paths = (
{
closed = 1;
nodes = (
"881 266 CURVE SMOOTH",
"643 266 OFFCURVE",
"586 516 OFFCURVE",
"586 718 CURVE SMOOTH",
"586 931 OFFCURVE",
"658 1190 OFFCURVE",
"925 1190 CURVE SMOOTH",
"1141 1190 OFFCURVE",
"1217 929 OFFCURVE",
"1217 770 CURVE SMOOTH",
"1217 558 OFFCURVE",
"1140 266 OFFCURVE"
);
},
{
closed = 1;
nodes = (
"869 -54 CURVE SMOOTH",
"1301 -54 OFFCURVE",
"1637 222 OFFCURVE",
"1637 761 CURVE SMOOTH",
"1637 1140 OFFCURVE",
"1413 1493 OFFCURVE",
"938 1493 CURVE SMOOTH",
"427 1493 OFFCURVE",
"155 1142 OFFCURVE",
"155 666 CURVE SMOOTH",
"155 206 OFFCURVE",
"479 -54 OFFCURVE"
);
}
);
width = 1633;
}
);
unicode = 0030;
},
{
glyphname = one;
layers = (
{
layerId = "083AB92F-A21B-420A-A5F3-096AB5C32ED3";
name = Regular;
paths = (
{
closed = 1;
nodes = (
"480 102 LINE",
"487 101 OFFCURVE",
"493 101 OFFCURVE",
"499 101 CURVE SMOOTH",
"527 101 OFFCURVE",
"539 111 OFFCURVE",
"542 163 CURVE SMOOTH",
"566 548 OFFCURVE",
"588 933 OFFCURVE",
"611 1318 CURVE SMOOTH",
"617 1412 LINE",
"617 1426 OFFCURVE",
"616 1433 OFFCURVE",
"610 1434 CURVE",
"610 1437 LINE SMOOTH",
"610 1444 OFFCURVE",
"607 1446 OFFCURVE",
"603 1446 CURVE SMOOTH",
"599 1446 OFFCURVE",
"592 1445 OFFCURVE",
"583 1440 CURVE",
"521 1414 OFFCURVE",
"464 1400 OFFCURVE",
"402 1378 CURVE",
"268 1355 LINE",
"315 1374 LINE",
"315 1454 LINE",
"249 1434 OFFCURVE",
"219 1401 OFFCURVE",
"184 1327 CURVE",
"132 301 OFFCURVE",
"115 17 OFFCURVE",
"109 -29 CURVE",
"117 -56 OFFCURVE",
"138 -65 OFFCURVE",
"162 -65 CURVE",
"171 -50 OFFCURVE",
"181 -33 OFFCURVE",
"192 -16 CURVE"
);
},
{
closed = 1;
nodes = (
"109 -29 CURVE",
"108 -34 OFFCURVE",
"108 -37 OFFCURVE",
"107 -37 CURVE",
"107 -18 LINE SMOOTH",
"107 -22 OFFCURVE",
"108 -26 OFFCURVE"
);
}
);
width = 638;
}
);
unicode = 0031;
},
{
glyphname = two;
layers = (
{
layerId = "083AB92F-A21B-420A-A5F3-096AB5C32ED3";
name = Regular;
paths = (
{
closed = 1;
nodes = (
"92 -21 CURVE SMOOTH",
"92 -29 OFFCURVE",
"101 -33 OFFCURVE",
"122 -33 CURVE SMOOTH",
"154 -33 OFFCURVE",
"213 -24 OFFCURVE",
"310 -7 CURVE",
"492 -7 OFFCURVE",
"527 -4 OFFCURVE",
"892 1 CURVE",
"889 3 OFFCURVE",
"888 3 OFFCURVE",
"888 5 CURVE SMOOTH",
"888 8 OFFCURVE",
"890 14 OFFCURVE",
"894 34 CURVE",
"894 33 OFFCURVE",
"895 33 OFFCURVE",
"895 33 CURVE",
"910 33 OFFCURVE",
"1002 212 OFFCURVE",
"1030 249 CURVE SMOOTH",
"1056 283 OFFCURVE",
"1104 320 OFFCURVE",
"1104 366 CURVE",
"1108 372 OFFCURVE",
"1110 377 OFFCURVE",
"1110 381 CURVE SMOOTH",
"1110 390 OFFCURVE",
"1100 394 OFFCURVE",
"1079 394 CURVE SMOOTH",
"997 394 OFFCURVE",
"767 364 OFFCURVE",
"682 355 CURVE",
"680 354 OFFCURVE",
"678 353 OFFCURVE",
"676 353 CURVE SMOOTH",
"675 353 OFFCURVE",
"675 354 OFFCURVE",
"674 354 CURVE",
"681 355 LINE",
"674 355 LINE",
"673 356 OFFCURVE",
"672 358 OFFCURVE",
"672 361 CURVE SMOOTH",
"672 424 OFFCURVE",
"930 877 OFFCURVE",
"962 912 CURVE",
"1014 987 OFFCURVE",
"1042 1063 OFFCURVE",
"1042 1120 CURVE SMOOTH",
"1042 1329 OFFCURVE",
"835 1492 OFFCURVE",
"679 1492 CURVE SMOOTH",
"416 1492 OFFCURVE",
"309 1423 OFFCURVE",
"270 1423 CURVE SMOOTH",
"259 1423 OFFCURVE",
"250 1429 OFFCURVE",
"250 1446 CURVE",
"246 1418 OFFCURVE",
"167 1176 OFFCURVE",
"167 1047 CURVE SMOOTH",
"167 1043 OFFCURVE",
"169 1036 OFFCURVE",
"176 1036 CURVE SMOOTH",
"181 1036 OFFCURVE",
"183 1031 OFFCURVE",
"198 1057 CURVE",
"275 1119 OFFCURVE",
"357 1149 OFFCURVE",
"434 1149 CURVE",
"435 1144 OFFCURVE",
"435 1140 OFFCURVE",
"435 1136 CURVE",
"585 1068 OFFCURVE",
"609 984 OFFCURVE",
"609 929 CURVE SMOOTH",
"609 850 OFFCURVE",
"429 535 OFFCURVE",
"143 102 CURVE",
"114 52 OFFCURVE",
"93 13 OFFCURVE"
);
},
{
closed = 1;
nodes = (
"683 356 LINE",
"682 355 LINE",
"681 355 LINE"
);
}
);
width = 1096;
}
);
unicode = 0032;
},
{
glyphname = three;
layers = (
{
layerId = "083AB92F-A21B-420A-A5F3-096AB5C32ED3";
name = Regular;
paths = (
{
closed = 1;
nodes = (
"650 -48 CURVE SMOOTH",
"893 -27 OFFCURVE",
"1076 201 OFFCURVE",
"1076 428 CURVE SMOOTH",
"1076 645 OFFCURVE",
"959 742 OFFCURVE",
"878 788 CURVE",
"950 844 OFFCURVE",
"1056 950 OFFCURVE",
"1056 1119 CURVE SMOOTH",
"1056 1378 OFFCURVE",
"800 1493 OFFCURVE",
"581 1493 CURVE SMOOTH",
"460 1493 OFFCURVE",
"409 1489 OFFCURVE",
"259 1442 CURVE SMOOTH",
"199 1423 OFFCURVE",
"192 1330 OFFCURVE",
"192 1246 CURVE SMOOTH",
"192 1223 OFFCURVE",
"193 1202 OFFCURVE",
"193 1183 CURVE SMOOTH",
"193 1162 OFFCURVE",
"192 1145 OFFCURVE",
"190 1133 CURVE",
"265 1157 OFFCURVE",
"375 1184 OFFCURVE",
"470 1184 CURVE SMOOTH",
"558 1184 OFFCURVE",
"595 1121 OFFCURVE",
"595 1057 CURVE SMOOTH",
"595 962 OFFCURVE",
"540 912 OFFCURVE",
"448 912 CURVE SMOOTH",
"423 912 OFFCURVE",
"397 913 OFFCURVE",
"373 922 CURVE",
"365 922 OFFCURVE",
"356 910 OFFCURVE",
"348 867 CURVE",
"344 858 OFFCURVE",
"306 587 OFFCURVE",
"306 569 CURVE",
"486 569 LINE SMOOTH",
"618 569 OFFCURVE",
"636 464 OFFCURVE",
"636 400 CURVE SMOOTH",
"636 299 OFFCURVE",
"585 261 OFFCURVE",
"485 261 CURVE SMOOTH",
"329 261 OFFCURVE",
"231 337 OFFCURVE",
"137 396 CURVE",
"134 397 OFFCURVE",
"131 398 OFFCURVE",
"128 398 CURVE SMOOTH",
"113 398 OFFCURVE",
"96 386 OFFCURVE",
"96 367 CURVE SMOOTH",
"96 363 OFFCURVE",
"96 360 OFFCURVE",
"97 359 CURVE",
"105 326 OFFCURVE",
"125 167 OFFCURVE",
"130 132 CURVE SMOOTH",
"133 108 OFFCURVE",
"128 60 OFFCURVE",
"163 52 CURVE",
"315 -12 OFFCURVE",
"419 -52 OFFCURVE",
"570 -52 CURVE SMOOTH",
"595 -52 OFFCURVE",
"622 -51 OFFCURVE"
);
}
);
width = 1109;
}
);
unicode = 0033;
},
{
glyphname = four;
layers = (
{
layerId = "083AB92F-A21B-420A-A5F3-096AB5C32ED3";
name = Regular;
paths = (
{
closed = 1;
nodes = (
"1347 571 CURVE SMOOTH",
"1348 573 OFFCURVE",
"1348 577 OFFCURVE",
"1348 582 CURVE SMOOTH",
"1348 610 OFFCURVE",
"1328 615 OFFCURVE",
"1312 618 CURVE",
"1301 618 OFFCURVE",
"1239 617 OFFCURVE",
"1150 614 CURVE",
"1166 986 OFFCURVE",
"1183 1124 OFFCURVE",
"1199 1494 CURVE SMOOTH",
"1199 1505 LINE SMOOTH",
"1199 1530 OFFCURVE",
"1190 1537 OFFCURVE",
"1175 1537 CURVE SMOOTH",
"1167 1537 OFFCURVE",
"1158 1536 OFFCURVE",
"1148 1533 CURVE SMOOTH",
"832 1450 LINE",
"620 1408 OFFCURVE",
"586 1244 OFFCURVE",
"485 1076 CURVE SMOOTH",
"34 330 LINE SMOOTH",
"27 319 OFFCURVE",
"24 310 OFFCURVE",
"24 302 CURVE SMOOTH",
"24 273 OFFCURVE",
"73 268 OFFCURVE",
"190 268 CURVE SMOOTH",
"261 268 OFFCURVE",
"493 269 OFFCURVE",
"719 272 CURVE",
"708 143 OFFCURVE",
"702 44 OFFCURVE",
"702 -20 CURVE SMOOTH",
"702 -48 OFFCURVE",
"718 -56 OFFCURVE",
"737 -56 CURVE SMOOTH",
"779 -56 OFFCURVE",
"1055 50 OFFCURVE",
"1083 62 CURVE SMOOTH",
"1096 67 OFFCURVE",
"1099 81 OFFCURVE",
"1100 93 CURVE SMOOTH",
"1118 276 LINE",
"1282 276 OFFCURVE",
"1287 272 OFFCURVE",
"1295 312 CURVE SMOOTH",
"1318 426 LINE SMOOTH",
"1330 486 OFFCURVE",
"1341 550 OFFCURVE"
);
},
{
closed = 1;
nodes = (
"437 601 LINE",
"801 1210 LINE",
"793 1016 OFFCURVE",
"779 785 OFFCURVE",
"747 601 CURVE"
);
}
);
width = 1352;
}
);
unicode = 0034;
},
{
glyphname = five;
layers = (
{
layerId = "083AB92F-A21B-420A-A5F3-096AB5C32ED3";
name = Regular;
paths = (
{
closed = 1;
nodes = (
"222 303 CURVE SMOOTH",
"159 303 OFFCURVE",
"121 310 OFFCURVE",
"72 310 CURVE SMOOTH",
"68 310 OFFCURVE",
"50 311 OFFCURVE",
"50 308 CURVE SMOOTH",
"50 302 OFFCURVE",
"52 288 OFFCURVE",
"52 268 CURVE SMOOTH",
"52 261 OFFCURVE",
"52 253 OFFCURVE",
"51 244 CURVE",
"43 -108 LINE",
"43 -109 OFFCURVE",
"45 -110 OFFCURVE",
"49 -110 CURVE SMOOTH",
"82 -110 OFFCURVE",
"227 -78 OFFCURVE",
"250 -61 CURVE",
"333 -56 OFFCURVE",
"418 -44 OFFCURVE",
"498 -24 CURVE",
"707 44 OFFCURVE",
"963 171 OFFCURVE",
"963 548 CURVE SMOOTH",
"963 806 OFFCURVE",
"825 914 OFFCURVE",
"649 985 CURVE SMOOTH",
"606 1002 OFFCURVE",
"565 1026 OFFCURVE",
"511 1046 CURVE",
"511 1099 OFFCURVE",
"520 1117 OFFCURVE",
"544 1117 CURVE SMOOTH",
"562 1117 OFFCURVE",
"586 1107 OFFCURVE",
"618 1094 CURVE",
"633 1094 OFFCURVE",
"654 1093 OFFCURVE",
"672 1093 CURVE SMOOTH",
"779 1093 OFFCURVE",
"894 1106 OFFCURVE",
"902 1217 CURVE",
"933 1302 OFFCURVE",
"999 1542 OFFCURVE",
"1007 1554 CURVE SMOOTH",
"1010 1560 OFFCURVE",
"1011 1568 OFFCURVE",
"1011 1577 CURVE SMOOTH",
"1011 1579 OFFCURVE",
"1010 1580 OFFCURVE",
"1009 1580 CURVE SMOOTH",
"1007 1580 OFFCURVE",
"1002 1576 OFFCURVE",
"994 1567 CURVE",
"761 1525 OFFCURVE",
"546 1492 OFFCURVE",
"317 1455 CURVE",
"272 1203 OFFCURVE",
"201 949 OFFCURVE",
"188 694 CURVE",
"183 678 OFFCURVE",
"182 667 OFFCURVE",
"181 661 CURVE",
"181 650 OFFCURVE",
"185 646 OFFCURVE",
"194 646 CURVE SMOOTH",
"197 646 LINE",
"196 647 LINE",
"196 647 OFFCURVE",
"212 669 OFFCURVE",
"254 679 CURVE",
"361 679 OFFCURVE",
"450 648 OFFCURVE",
"478 589 CURVE",
"486 551 OFFCURVE",
"492 526 OFFCURVE",
"492 481 CURVE SMOOTH",
"492 315 OFFCURVE",
"342 303 OFFCURVE"
);
}
);
width = 975;
}
);
unicode = 0035;
},
{
glyphname = six;
layers = (
{
layerId = "083AB92F-A21B-420A-A5F3-096AB5C32ED3";
name = Regular;
paths = (
{
closed = 1;
nodes = (
"1019 1582 CURVE",
"1001 1598 OFFCURVE",
"976 1612 OFFCURVE",
"944 1624 CURVE",
"943 1624 LINE",
"927 1624 OFFCURVE",
"714 1539 OFFCURVE",
"696 1539 CURVE SMOOTH",
"660 1539 OFFCURVE",
"642 1486 OFFCURVE",
"630 1452 CURVE",
"510 1177 OFFCURVE",
"318 1017 OFFCURVE",
"190 810 CURVE",
"149 706 OFFCURVE",
"127 598 OFFCURVE",
"127 481 CURVE SMOOTH",
"127 239 OFFCURVE",
"264 -52 OFFCURVE",
"635 -52 CURVE SMOOTH",
"1042 -52 OFFCURVE",
"1264 186 OFFCURVE",
"1264 576 CURVE SMOOTH",
"1264 798 OFFCURVE",
"1136 1053 OFFCURVE",
"867 1053 CURVE SMOOTH",
"824 1053 LINE SMOOTH",
"811 1053 OFFCURVE",
"798 1053 OFFCURVE",
"781 1051 CURVE",
"834 1084 OFFCURVE",
"853 1159 OFFCURVE",
"871 1256 CURVE",
"909 1353 OFFCURVE",
"944 1457 OFFCURVE"
);
},
{
closed = 1;
nodes = (
"738 811 CURVE SMOOTH",
"823 811 OFFCURVE",
"840 744 OFFCURVE",
"840 672 CURVE SMOOTH",
"840 633 OFFCURVE",
"835 599 OFFCURVE",
"832 562 CURVE",
"826 451 OFFCURVE",
"811 280 OFFCURVE",
"683 280 CURVE SMOOTH",
"607 280 OFFCURVE",
"588 390 OFFCURVE",
"588 466 CURVE SMOOTH",
"588 526 OFFCURVE",
"598 572 OFFCURVE",
"618 652 CURVE",
"646 750 OFFCURVE",
"667 811 OFFCURVE"
);
}
);
width = 1241;
}
);
unicode = 0036;
},
{
glyphname = seven;
layers = (
{
layerId = "083AB92F-A21B-420A-A5F3-096AB5C32ED3";
name = Regular;
paths = (
{
closed = 1;
nodes = (
"1123 1454 CURVE",
"885 1454 OFFCURVE",
"824 1452 OFFCURVE",
"341 1447 CURVE SMOOTH",
"328 1447 OFFCURVE",
"334 1443 OFFCURVE",
"312 1402 CURVE",
"247 1268 OFFCURVE",
"186 1166 OFFCURVE",
"121 1035 CURVE",
"121 1037 OFFCURVE",
"120 1038 OFFCURVE",
"119 1038 CURVE SMOOTH",
"109 1038 OFFCURVE",
"96 1005 OFFCURVE",
"96 1003 CURVE SMOOTH",
"96 989 OFFCURVE",
"184 994 OFFCURVE",
"257 994 CURVE SMOOTH",
"382 994 OFFCURVE",
"540 994 OFFCURVE",
"667 998 CURVE",
"484 521 LINE",
"334 147 OFFCURVE",
"231 -129 OFFCURVE",
"231 -129 CURVE",
"231 -129 OFFCURVE",
"231 -128 OFFCURVE",
"232 -127 CURVE SMOOTH",
"230 -133 OFFCURVE",
"229 -139 OFFCURVE",
"229 -145 CURVE SMOOTH",
"229 -152 OFFCURVE",
"231 -158 OFFCURVE",
"235 -162 CURVE",
"319 -146 OFFCURVE",
"449 -122 OFFCURVE",
"557 -92 CURVE",
"558 -97 OFFCURVE",
"559 -100 OFFCURVE",
"562 -100 CURVE SMOOTH",
"588 -100 OFFCURVE",
"709 244 OFFCURVE",
"903 750 CURVE",
"1132 1355 LINE",
"1158 1415 OFFCURVE",
"1172 1455 OFFCURVE",
"1172 1481 CURVE SMOOTH",
"1172 1482 OFFCURVE",
"1171 1482 OFFCURVE",
"1170 1482 CURVE SMOOTH",
"1165 1482 OFFCURVE",
"1149 1473 OFFCURVE"
);
},
{
closed = 1;
nodes = (
"252 -167 CURVE",
"238 -164 LINE",
"241 -166 OFFCURVE",
"246 -167 OFFCURVE"
);
},
{
closed = 1;
nodes = (
"238 -164 CURVE",
"236 -164 OFFCURVE",
"234 -163 OFFCURVE",
"232 -163 CURVE",
"233 -162 OFFCURVE",
"233 -162 OFFCURVE",
"235 -162 CURVE",
"236 -163 OFFCURVE",
"237 -164 OFFCURVE"
);
}
);
width = 1033;
}
);
unicode = 0037;
},
{
glyphname = eight;
layers = (
{
layerId = "083AB92F-A21B-420A-A5F3-096AB5C32ED3";
name = Regular;
paths = (
{
closed = 1;
nodes = (
"1148 1138 CURVE SMOOTH",
"1148 1379 OFFCURVE",
"930 1493 OFFCURVE",
"784 1493 CURVE SMOOTH",
"529 1493 OFFCURVE",
"219 1390 OFFCURVE",
"219 1074 CURVE SMOOTH",
"219 972 OFFCURVE",
"247 879 OFFCURVE",
"341 810 CURVE",
"234 679 OFFCURVE",
"122 579 OFFCURVE",
"122 369 CURVE SMOOTH",
"122 47 OFFCURVE",
"398 -54 OFFCURVE",
"593 -54 CURVE SMOOTH",
"828 -54 OFFCURVE",
"1207 94 OFFCURVE",
"1207 438 CURVE SMOOTH",
"1207 640 OFFCURVE",
"1129 750 OFFCURVE",
"1032 832 CURVE",
"1078 906 OFFCURVE",
"1148 1003 OFFCURVE"
);
},
{
closed = 1;
nodes = (
"780 440 CURVE SMOOTH",
"780 376 OFFCURVE",
"779 122 OFFCURVE",
"694 122 CURVE SMOOTH",
"584 122 OFFCURVE",
"585 303 OFFCURVE",
"585 398 CURVE SMOOTH",
"585 486 OFFCURVE",
"591 682 OFFCURVE",
"695 682 CURVE SMOOTH",
"699 682 OFFCURVE",
"703 682 OFFCURVE",
"708 681 CURVE",
"711 682 OFFCURVE",
"714 682 OFFCURVE",
"717 682 CURVE SMOOTH",
"780 682 OFFCURVE",
"780 514 OFFCURVE"
);
},
{
closed = 1;
nodes = (
"592 1091 CURVE SMOOTH",
"592 1168 OFFCURVE",
"605 1297 OFFCURVE",
"684 1297 CURVE SMOOTH",
"767 1297 OFFCURVE",
"774 1169 OFFCURVE",
"774 1103 CURVE SMOOTH",
"774 1034 OFFCURVE",
"770 903 OFFCURVE",
"690 903 CURVE SMOOTH",
"687 903 OFFCURVE",
"683 903 OFFCURVE",
"679 904 CURVE",
"675 903 OFFCURVE",
"670 903 OFFCURVE",
"667 903 CURVE SMOOTH",
"600 903 OFFCURVE",
"592 1028 OFFCURVE"
);
}
);
width = 1223;
}
);
unicode = 0038;
},
{
glyphname = nine;
layers = (
{
layerId = "083AB92F-A21B-420A-A5F3-096AB5C32ED3";
name = Regular;
paths = (
{
closed = 1;
nodes = (
"1320 949 CURVE SMOOTH",
"1320 1162 OFFCURVE",
"1132 1496 OFFCURVE",
"823 1496 CURVE SMOOTH",
"789 1496 OFFCURVE",
"749 1489 OFFCURVE",
"714 1481 CURVE",
"411 1425 OFFCURVE",
"118 1182 OFFCURVE",
"118 833 CURVE SMOOTH",
"118 597 OFFCURVE",
"297 351 OFFCURVE",
"537 351 CURVE SMOOTH",
"597 351 OFFCURVE",
"662 362 OFFCURVE",
"723 378 CURVE",
"690 335 OFFCURVE",
"665 210 OFFCURVE",
"641 82 CURVE",
"642 60 OFFCURVE",
"647 35 OFFCURVE",
"647 5 CURVE SMOOTH",
"647 -18 OFFCURVE",
"644 -44 OFFCURVE",
"634 -75 CURVE",
"657 -86 OFFCURVE",
"685 -97 OFFCURVE",
"717 -105 CURVE",
"717 -89 OFFCURVE",
"749 -79 OFFCURVE",
"777 -79 CURVE SMOOTH",
"783 -79 OFFCURVE",
"788 -79 OFFCURVE",
"793 -80 CURVE",
"1011 221 OFFCURVE",
"1320 566 OFFCURVE"
);
},
{
closed = 1;
nodes = (
"565 926 CURVE SMOOTH",
"565 1045 OFFCURVE",
"602 1223 OFFCURVE",
"746 1223 CURVE SMOOTH",
"837 1223 OFFCURVE",
"851 1080 OFFCURVE",
"851 990 CURVE SMOOTH",
"851 836 OFFCURVE",
"847 836 OFFCURVE",
"805 663 CURVE",
"782 655 OFFCURVE",
"775 653 OFFCURVE",
"773 653 CURVE SMOOTH",
"773 653 OFFCURVE",
"774 654 OFFCURVE",
"774 655 CURVE",
"628 655 OFFCURVE",
"565 787 OFFCURVE"
);
},
{
closed = 1;
nodes = (
"816 -111 CURVE",
"795 -116 OFFCURVE",
"783 -120 OFFCURVE",
"760 -128 CURVE",
"793 -80 LINE",
"808 -83 OFFCURVE",
"819 -89 OFFCURVE",
"819 -100 CURVE SMOOTH",
"819 -104 OFFCURVE",
"818 -107 OFFCURVE"
);
}
);
width = 1289;
}
);
unicode = 0039;
},
{
glyphname = fraction;
layers = (
{
layerId = "083AB92F-A21B-420A-A5F3-096AB5C32ED3";
name = Regular;
paths = (
{
closed = 1;
nodes = (
"591 970 CURVE SMOOTH",
"399 580 OFFCURVE",
"225 212 OFFCURVE",
"37 -164 CURVE",
"49 -164 LINE SMOOTH",
"85 -164 OFFCURVE",
"214 -188 OFFCURVE",
"264 -188 CURVE SMOOTH",
"316 -188 OFFCURVE",
"358 -182 OFFCURVE",
"417 -182 CURVE",
"424 -158 OFFCURVE",
"441 -141 OFFCURVE",
"450 -123 CURVE SMOOTH",
"1231 1486 LINE",
"1258 1549 LINE SMOOTH",
"1267 1571 OFFCURVE",
"1281 1595 OFFCURVE",
"1294 1619 CURVE",
"1221 1617 OFFCURVE",
"1149 1611 OFFCURVE",
"1077 1610 CURVE",
"1024 1618 OFFCURVE",
"972 1624 OFFCURVE",
"919 1630 CURVE",
"903 1582 OFFCURVE",
"881 1540 OFFCURVE",
"864 1512 CURVE",
"807 1459 OFFCURVE",
"664 1119 OFFCURVE"
);
},
{
closed = 1;
nodes = (
"1243 1510 LINE",
"1225 1471 LINE",
"1231 1486 LINE"
);
}
);
width = 1314;
}
);
unicode = 2044;
},
{
glyphname = onehalf;
layers = (
{
layerId = "083AB92F-A21B-420A-A5F3-096AB5C32ED3";
name = Regular;
paths = (
{
closed = 1;
nodes = (
"219 1349 CURVE",
"180 604 OFFCURVE",
"181 556 OFFCURVE",
"181 550 CURVE SMOOTH",
"181 527 OFFCURVE",
"193 521 OFFCURVE",
"208 521 CURVE SMOOTH",
"211 521 OFFCURVE",
"216 522 OFFCURVE",
"223 523 CURVE",
"421 582 LINE SMOOTH",
"442 588 OFFCURVE",
"449 598 OFFCURVE",
"452 637 CURVE",
"489 1420 LINE",
"489 1441 OFFCURVE",
"485 1447 OFFCURVE",
"473 1447 CURVE SMOOTH",
"469 1447 OFFCURVE",
"464 1446 OFFCURVE",
"457 1445 CURVE",
"237 1392 LINE SMOOTH",
"221 1388 OFFCURVE",
"220 1380 OFFCURVE"
);
},
{
closed = 1;
nodes = (
"742 943 CURVE SMOOTH",
"577 587 OFFCURVE",
"483 360 OFFCURVE",
"360 101 CURVE SMOOTH",
"357 94 OFFCURVE",
"355 88 OFFCURVE",
"355 82 CURVE SMOOTH",
"355 48 OFFCURVE",
"433 28 OFFCURVE",
"453 20 CURVE SMOOTH",
"554 -22 LINE",
"563 -27 OFFCURVE",
"572 -29 OFFCURVE",
"580 -29 CURVE SMOOTH",
"601 -29 OFFCURVE",
"598 -9 OFFCURVE",
"609 15 CURVE SMOOTH",
"1250 1429 LINE",
"1250 1432 LINE SMOOTH",
"1250 1439 OFFCURVE",
"1243 1442 OFFCURVE",
"1235 1445 CURVE",
"1164 1458 OFFCURVE",
"1095 1499 OFFCURVE",
"1023 1528 CURVE",
"1016 1528 LINE SMOOTH",
"997 1528 OFFCURVE",
"992 1515 OFFCURVE",
"975 1476 CURVE SMOOTH",
"895 1293 OFFCURVE",
"823 1119 OFFCURVE"
);
},
{
closed = 1;
nodes = (
"1649 563 CURVE",
"1676 607 OFFCURVE",
"1688 650 OFFCURVE",
"1688 690 CURVE SMOOTH",
"1688 825 OFFCURVE",
"1556 930 OFFCURVE",
"1436 930 CURVE SMOOTH",
"1232 930 OFFCURVE",
"1160 855 OFFCURVE",
"1157 855 CURVE",
"1157 846 OFFCURVE",
"1116 725 OFFCURVE",
"1116 660 CURVE SMOOTH",
"1116 653 OFFCURVE",
"1118 643 OFFCURVE",
"1127 643 CURVE SMOOTH",
"1131 643 OFFCURVE",
"1138 646 OFFCURVE",
"1147 651 CURVE SMOOTH",
"1194 682 OFFCURVE",
"1245 696 OFFCURVE",
"1292 696 CURVE SMOOTH",
"1367 696 OFFCURVE",
"1426 658 OFFCURVE",
"1426 592 CURVE SMOOTH",
"1426 532 OFFCURVE",
"1353 428 OFFCURVE",
"1233 264 CURVE",
"1115 97 LINE",
"1098 70 OFFCURVE",
"1085 50 OFFCURVE",
"1085 34 CURVE SMOOTH",
"1085 10 OFFCURVE",
"1112 -3 OFFCURVE",
"1192 -3 CURVE SMOOTH",
"1312 -3 OFFCURVE",
"1365 -2 OFFCURVE",
"1576 1 CURVE",
"1587 2 OFFCURVE",
"1601 1 OFFCURVE",
"1617 17 CURVE",
"1618 17 OFFCURVE",
"1619 22 OFFCURVE",
"1620 22 CURVE",
"1710 190 LINE",
"1710 191 OFFCURVE",
"1719 206 OFFCURVE",
"1719 217 CURVE SMOOTH",
"1719 226 OFFCURVE",
"1708 231 OFFCURVE",
"1687 231 CURVE SMOOTH",
"1625 231 OFFCURVE",
"1463 211 OFFCURVE",
"1437 211 CURVE SMOOTH",
"1435 211 LINE",
"1434 211 OFFCURVE",
"1434 211 OFFCURVE",
"1434 212 CURVE",
"1532 367 LINE SMOOTH",
"1583 448 OFFCURVE",
"1636 534 OFFCURVE"
);
}
);
width = 1747;
}
);
unicode = 00BD;
},
{
glyphname = onequarter;
layers = (
{
layerId = "083AB92F-A21B-420A-A5F3-096AB5C32ED3";
name = Regular;
paths = (
{
closed = 1;
nodes = (
"217 1349 CURVE",
"178 604 OFFCURVE",
"179 556 OFFCURVE",
"179 550 CURVE SMOOTH",
"179 527 OFFCURVE",
"191 521 OFFCURVE",
"206 521 CURVE SMOOTH",
"209 521 OFFCURVE",
"214 522 OFFCURVE",
"221 523 CURVE",
"419 582 LINE SMOOTH",
"440 588 OFFCURVE",
"447 598 OFFCURVE",
"450 637 CURVE",
"487 1420 LINE",
"487 1441 OFFCURVE",
"483 1447 OFFCURVE",
"471 1447 CURVE SMOOTH",
"467 1447 OFFCURVE",
"462 1446 OFFCURVE",
"455 1445 CURVE",
"235 1392 LINE SMOOTH",
"219 1388 OFFCURVE",
"218 1380 OFFCURVE"
);
},
{
closed = 1;
nodes = (
"740 943 CURVE SMOOTH",
"575 587 OFFCURVE",
"481 360 OFFCURVE",
"358 101 CURVE SMOOTH",
"355 94 OFFCURVE",
"353 88 OFFCURVE",
"353 82 CURVE SMOOTH",
"353 48 OFFCURVE",
"431 28 OFFCURVE",
"451 20 CURVE SMOOTH",
"552 -22 LINE",
"561 -27 OFFCURVE",
"570 -29 OFFCURVE",
"578 -29 CURVE SMOOTH",
"599 -29 OFFCURVE",
"596 -9 OFFCURVE",
"607 15 CURVE SMOOTH",
"1248 1429 LINE",
"1248 1432 LINE SMOOTH",
"1248 1439 OFFCURVE",
"1241 1442 OFFCURVE",
"1233 1445 CURVE",
"1162 1458 OFFCURVE",
"1093 1499 OFFCURVE",
"1021 1528 CURVE",
"1014 1528 LINE SMOOTH",
"995 1528 OFFCURVE",
"990 1515 OFFCURVE",
"973 1476 CURVE SMOOTH",
"893 1293 OFFCURVE",
"821 1119 OFFCURVE"
);
},
{
closed = 1;
nodes = (
"1696 382 LINE",
"1697 383 OFFCURVE",
"1697 386 OFFCURVE",
"1697 389 CURVE SMOOTH",
"1697 405 OFFCURVE",
"1685 412 OFFCURVE",
"1674 412 CURVE SMOOTH",
"1667 412 OFFCURVE",
"1627 411 OFFCURVE",
"1570 410 CURVE",
"1581 646 OFFCURVE",
"1591 737 OFFCURVE",
"1602 971 CURVE SMOOTH",
"1602 978 LINE SMOOTH",
"1602 994 OFFCURVE",
"1597 998 OFFCURVE",
"1586 998 CURVE SMOOTH",
"1581 998 OFFCURVE",
"1576 997 OFFCURVE",
"1569 996 CURVE",
"1368 943 LINE",
"1234 916 OFFCURVE",
"1211 812 OFFCURVE",
"1146 704 CURVE SMOOTH",
"1014 485 LINE",
"944 372 OFFCURVE",
"875 254 OFFCURVE",
"859 228 CURVE SMOOTH",
"854 221 OFFCURVE",
"853 215 OFFCURVE",
"853 211 CURVE SMOOTH",
"853 192 OFFCURVE",
"882 189 OFFCURVE",
"958 189 CURVE SMOOTH",
"1003 189 OFFCURVE",
"1151 191 OFFCURVE",
"1296 191 CURVE",
"1289 110 OFFCURVE",
"1285 45 OFFCURVE",
"1285 5 CURVE SMOOTH",
"1285 -14 OFFCURVE",
"1295 -18 OFFCURVE",
"1307 -18 CURVE SMOOTH",
"1334 -18 OFFCURVE",
"1509 50 OFFCURVE",
"1528 58 CURVE SMOOTH",
"1536 61 OFFCURVE",
"1538 70 OFFCURVE",
"1538 77 CURVE",
"1550 194 LINE",
"1674 197 OFFCURVE",
"1657 190 OFFCURVE",
"1663 217 CURVE SMOOTH",
"1678 290 LINE"
);
},
{
closed = 1;
nodes = (
"1116 401 LINE",
"1348 790 LINE",
"1343 665 OFFCURVE",
"1332 519 OFFCURVE",
"1313 401 CURVE"
);
}
);
width = 1712;
}
);
unicode = 00BC;
},
{
glyphname = threequarters;
layers = (
{
layerId = "083AB92F-A21B-420A-A5F3-096AB5C32ED3";
name = Regular;
paths = (
{
closed = 1;
nodes = (
"470 542 CURVE",
"618 553 OFFCURVE",
"728 694 OFFCURVE",
"728 830 CURVE SMOOTH",
"728 945 OFFCURVE",
"661 1000 OFFCURVE",
"608 1024 CURVE",
"652 1059 OFFCURVE",
"715 1120 OFFCURVE",
"715 1225 CURVE SMOOTH",
"715 1381 OFFCURVE",
"561 1451 OFFCURVE",
"428 1451 CURVE SMOOTH",
"355 1451 OFFCURVE",
"323 1446 OFFCURVE",
"233 1420 CURVE SMOOTH",
"196 1409 OFFCURVE",
"192 1352 OFFCURVE",
"192 1304 CURVE SMOOTH",
"192 1289 OFFCURVE",
"193 1275 OFFCURVE",
"193 1263 CURVE SMOOTH",
"193 1251 OFFCURVE",
"192 1240 OFFCURVE",
"191 1233 CURVE",
"238 1248 OFFCURVE",
"301 1264 OFFCURVE",
"361 1264 CURVE SMOOTH",
"414 1264 OFFCURVE",
"436 1226 OFFCURVE",
"436 1187 CURVE SMOOTH",
"436 1136 OFFCURVE",
"407 1100 OFFCURVE",
"356 1100 CURVE SMOOTH",
"337 1100 OFFCURVE",
"321 1106 OFFCURVE",
"302 1106 CURVE SMOOTH",
"297 1106 OFFCURVE",
"292 1099 OFFCURVE",
"287 1072 CURVE",
"287 1065 OFFCURVE",
"262 904 OFFCURVE",
"262 892 CURVE",
"371 892 LINE SMOOTH",
"450 892 OFFCURVE",
"461 845 OFFCURVE",
"461 813 CURVE SMOOTH",
"461 752 OFFCURVE",
"430 729 OFFCURVE",
"370 729 CURVE SMOOTH",
"276 729 OFFCURVE",
"216 775 OFFCURVE",
"159 810 CURVE SMOOTH",
"158 811 OFFCURVE",
"157 811 OFFCURVE",
"154 811 CURVE SMOOTH",
"141 811 OFFCURVE",
"135 803 OFFCURVE",
"135 788 CURVE",
"151 718 OFFCURVE",
"147 610 OFFCURVE",
"175 602 CURVE",
"266 564 OFFCURVE",
"331 539 OFFCURVE",
"421 539 CURVE SMOOTH",
"436 539 OFFCURVE",
"453 540 OFFCURVE"
);
},
{
closed = 1;
nodes = (
"951 943 CURVE SMOOTH",
"786 587 OFFCURVE",
"692 360 OFFCURVE",
"569 101 CURVE SMOOTH",
"566 94 OFFCURVE",
"564 88 OFFCURVE",
"564 82 CURVE SMOOTH",
"564 48 OFFCURVE",
"642 28 OFFCURVE",
"662 20 CURVE SMOOTH",
"763 -22 LINE",
"772 -27 OFFCURVE",
"781 -29 OFFCURVE",
"789 -29 CURVE SMOOTH",
"810 -29 OFFCURVE",
"807 -9 OFFCURVE",
"818 15 CURVE SMOOTH",
"1459 1429 LINE",
"1459 1432 LINE SMOOTH",
"1459 1439 OFFCURVE",
"1452 1442 OFFCURVE",
"1444 1445 CURVE",
"1373 1458 OFFCURVE",
"1304 1499 OFFCURVE",
"1232 1528 CURVE",
"1225 1528 LINE SMOOTH",
"1206 1528 OFFCURVE",
"1201 1515 OFFCURVE",
"1184 1476 CURVE SMOOTH",
"1104 1293 OFFCURVE",
"1032 1119 OFFCURVE"
);
},
{
closed = 1;
nodes = (
"1907 382 LINE",
"1908 383 OFFCURVE",
"1908 386 OFFCURVE",
"1908 389 CURVE SMOOTH",
"1908 405 OFFCURVE",
"1896 412 OFFCURVE",
"1885 412 CURVE SMOOTH",
"1878 412 OFFCURVE",
"1838 411 OFFCURVE",
"1781 410 CURVE",
"1792 646 OFFCURVE",
"1802 737 OFFCURVE",
"1813 971 CURVE SMOOTH",
"1813 978 LINE SMOOTH",
"1813 994 OFFCURVE",
"1808 998 OFFCURVE",
"1797 998 CURVE SMOOTH",
"1792 998 OFFCURVE",
"1787 997 OFFCURVE",
"1780 996 CURVE",
"1579 943 LINE",
"1445 916 OFFCURVE",
"1422 812 OFFCURVE",
"1357 704 CURVE SMOOTH",
"1225 485 LINE",
"1155 372 OFFCURVE",
"1086 254 OFFCURVE",
"1070 228 CURVE SMOOTH",
"1065 221 OFFCURVE",
"1064 215 OFFCURVE",
"1064 211 CURVE SMOOTH",
"1064 192 OFFCURVE",
"1093 189 OFFCURVE",
"1169 189 CURVE SMOOTH",
"1214 189 OFFCURVE",
"1362 191 OFFCURVE",
"1507 191 CURVE",
"1500 110 OFFCURVE",
"1496 45 OFFCURVE",
"1496 5 CURVE SMOOTH",
"1496 -14 OFFCURVE",
"1506 -18 OFFCURVE",
"1518 -18 CURVE SMOOTH",
"1545 -18 OFFCURVE",
"1720 50 OFFCURVE",
"1739 58 CURVE SMOOTH",
"1747 61 OFFCURVE",
"1749 70 OFFCURVE",
"1749 77 CURVE",
"1761 194 LINE",
"1885 197 OFFCURVE",
"1868 190 OFFCURVE",
"1874 217 CURVE SMOOTH",
"1889 290 LINE"
);
},
{
closed = 1;
nodes = (
"1327 401 LINE",
"1559 790 LINE",
"1554 665 OFFCURVE",
"1543 519 OFFCURVE",
"1524 401 CURVE"
);
}
);
width = 1924;
}
);
unicode = 00BE;
},
{
glyphname = onesuperior;
layers = (
{
layerId = "083AB92F-A21B-420A-A5F3-096AB5C32ED3";
name = Regular;
paths = (
{
closed = 1;
nodes = (
"229 1349 CURVE",
"190 604 OFFCURVE",
"191 556 OFFCURVE",
"191 550 CURVE SMOOTH",
"191 527 OFFCURVE",
"203 521 OFFCURVE",
"218 521 CURVE SMOOTH",
"221 521 OFFCURVE",
"226 522 OFFCURVE",
"233 523 CURVE",
"431 582 LINE SMOOTH",
"452 588 OFFCURVE",
"459 598 OFFCURVE",
"462 637 CURVE",
"499 1420 LINE",
"499 1441 OFFCURVE",
"495 1447 OFFCURVE",
"483 1447 CURVE SMOOTH",
"479 1447 OFFCURVE",
"474 1446 OFFCURVE",
"467 1445 CURVE",
"247 1392 LINE SMOOTH",
"231 1388 OFFCURVE",
"230 1380 OFFCURVE"
);
}
);
width = 514;
}
);
unicode = 00B9;
},
{
glyphname = twosuperior;
layers = (
{
layerId = "083AB92F-A21B-420A-A5F3-096AB5C32ED3";
name = Regular;
paths = (
{
closed = 1;
nodes = (
"696 1126 CURVE",
"723 1170 OFFCURVE",
"735 1213 OFFCURVE",
"735 1253 CURVE SMOOTH",
"735 1388 OFFCURVE",
"603 1493 OFFCURVE",
"483 1493 CURVE SMOOTH",
"279 1493 OFFCURVE",
"207 1418 OFFCURVE",
"204 1418 CURVE",
"204 1409 OFFCURVE",
"163 1288 OFFCURVE",
"163 1223 CURVE SMOOTH",
"163 1216 OFFCURVE",
"165 1206 OFFCURVE",
"174 1206 CURVE SMOOTH",
"178 1206 OFFCURVE",
"185 1209 OFFCURVE",
"194 1214 CURVE SMOOTH",
"241 1245 OFFCURVE",
"292 1259 OFFCURVE",
"339 1259 CURVE SMOOTH",
"414 1259 OFFCURVE",
"473 1221 OFFCURVE",
"473 1155 CURVE SMOOTH",
"473 1095 OFFCURVE",
"400 991 OFFCURVE",
"280 827 CURVE",
"162 660 LINE",
"145 633 OFFCURVE",
"132 613 OFFCURVE",
"132 597 CURVE SMOOTH",
"132 573 OFFCURVE",
"159 560 OFFCURVE",
"239 560 CURVE SMOOTH",
"359 560 OFFCURVE",
"412 561 OFFCURVE",
"623 564 CURVE",
"634 565 OFFCURVE",
"648 564 OFFCURVE",
"664 580 CURVE",
"665 580 OFFCURVE",
"666 585 OFFCURVE",
"667 585 CURVE",
"757 753 LINE",
"757 754 OFFCURVE",
"766 769 OFFCURVE",
"766 780 CURVE SMOOTH",
"766 789 OFFCURVE",
"755 794 OFFCURVE",
"734 794 CURVE SMOOTH",
"672 794 OFFCURVE",
"510 774 OFFCURVE",
"484 774 CURVE SMOOTH",
"482 774 LINE",
"481 774 OFFCURVE",
"481 774 OFFCURVE",
"481 775 CURVE",
"579 930 LINE SMOOTH",
"630 1011 OFFCURVE",
"683 1097 OFFCURVE"
);
}
);
width = 734;
}
);
unicode = 00B2;
},
{
glyphname = threesuperior;
layers = (
{
layerId = "083AB92F-A21B-420A-A5F3-096AB5C32ED3";
name = Regular;
paths = (
{
closed = 1;
nodes = (
"484 542 CURVE",
"632 553 OFFCURVE",
"742 694 OFFCURVE",
"742 830 CURVE SMOOTH",
"742 945 OFFCURVE",
"675 1000 OFFCURVE",
"622 1024 CURVE",
"666 1059 OFFCURVE",
"729 1120 OFFCURVE",
"729 1225 CURVE SMOOTH",
"729 1381 OFFCURVE",
"575 1451 OFFCURVE",
"442 1451 CURVE SMOOTH",
"369 1451 OFFCURVE",
"337 1446 OFFCURVE",
"247 1420 CURVE SMOOTH",
"210 1409 OFFCURVE",
"206 1352 OFFCURVE",
"206 1304 CURVE SMOOTH",
"206 1289 OFFCURVE",
"207 1275 OFFCURVE",
"207 1263 CURVE SMOOTH",
"207 1251 OFFCURVE",
"206 1240 OFFCURVE",
"205 1233 CURVE",
"252 1248 OFFCURVE",
"315 1264 OFFCURVE",
"375 1264 CURVE SMOOTH",
"428 1264 OFFCURVE",
"450 1226 OFFCURVE",
"450 1187 CURVE SMOOTH",
"450 1136 OFFCURVE",
"421 1100 OFFCURVE",
"370 1100 CURVE SMOOTH",
"351 1100 OFFCURVE",
"335 1106 OFFCURVE",
"316 1106 CURVE SMOOTH",
"311 1106 OFFCURVE",
"306 1099 OFFCURVE",
"301 1072 CURVE",
"301 1065 OFFCURVE",
"276 904 OFFCURVE",
"276 892 CURVE",
"385 892 LINE SMOOTH",
"464 892 OFFCURVE",
"475 845 OFFCURVE",
"475 813 CURVE SMOOTH",
"475 752 OFFCURVE",
"444 729 OFFCURVE",
"384 729 CURVE SMOOTH",
"290 729 OFFCURVE",
"230 775 OFFCURVE",
"173 810 CURVE SMOOTH",
"172 811 OFFCURVE",
"171 811 OFFCURVE",
"168 811 CURVE SMOOTH",
"155 811 OFFCURVE",
"149 803 OFFCURVE",
"149 788 CURVE",
"165 718 OFFCURVE",
"161 610 OFFCURVE",
"189 602 CURVE",
"280 564 OFFCURVE",
"345 539 OFFCURVE",
"435 539 CURVE SMOOTH",
"450 539 OFFCURVE",
"467 540 OFFCURVE"
);
}
);
width = 747;
}
);
unicode = 00B3;
},
{
glyphname = foursuperior;
layers = (
{
layerId = "083AB92F-A21B-420A-A5F3-096AB5C32ED3";
name = Regular;
paths = (
{
closed = 1;
nodes = (
"906 921 LINE",
"907 922 OFFCURVE",
"907 925 OFFCURVE",
"907 928 CURVE SMOOTH",
"907 944 OFFCURVE",
"895 951 OFFCURVE",
"884 951 CURVE SMOOTH",
"877 951 OFFCURVE",
"837 950 OFFCURVE",
"780 949 CURVE",
"791 1185 OFFCURVE",
"801 1276 OFFCURVE",
"812 1510 CURVE SMOOTH",
"812 1517 LINE SMOOTH",
"812 1533 OFFCURVE",
"807 1537 OFFCURVE",
"796 1537 CURVE SMOOTH",
"791 1537 OFFCURVE",
"786 1536 OFFCURVE",
"779 1535 CURVE",
"578 1482 LINE",
"444 1455 OFFCURVE",
"421 1351 OFFCURVE",
"356 1243 CURVE SMOOTH",
"224 1024 LINE",
"154 911 OFFCURVE",
"85 793 OFFCURVE",
"69 767 CURVE SMOOTH",
"64 760 OFFCURVE",
"63 754 OFFCURVE",
"63 750 CURVE SMOOTH",
"63 731 OFFCURVE",
"92 728 OFFCURVE",
"168 728 CURVE SMOOTH",
"213 728 OFFCURVE",
"361 730 OFFCURVE",
"506 730 CURVE",
"499 649 OFFCURVE",
"495 584 OFFCURVE",
"495 544 CURVE SMOOTH",
"495 525 OFFCURVE",
"505 521 OFFCURVE",
"517 521 CURVE SMOOTH",
"544 521 OFFCURVE",
"719 589 OFFCURVE",
"738 597 CURVE SMOOTH",
"746 600 OFFCURVE",
"748 609 OFFCURVE",
"748 616 CURVE",
"760 733 LINE",
"884 736 OFFCURVE",
"867 729 OFFCURVE",
"873 756 CURVE SMOOTH",
"888 829 LINE"
);
},
{
closed = 1;
nodes = (
"326 940 LINE",
"558 1329 LINE",
"553 1204 OFFCURVE",
"542 1058 OFFCURVE",
"523 940 CURVE"
);
}
);
width = 883;
}
);
unicode = 2074;
},
{
glyphname = ordfeminine;
layers = (
{
layerId = "083AB92F-A21B-420A-A5F3-096AB5C32ED3";
name = Regular;
paths = (
{
closed = 1;
nodes = (
"1023 1471 LINE",
"942 1467 OFFCURVE",
"871 1458 OFFCURVE",
"795 1447 CURVE",
"747 1442 OFFCURVE",
"760 1438 OFFCURVE",
"749 1373 CURVE",
"685 1422 OFFCURVE",
"617 1457 OFFCURVE",
"540 1457 CURVE SMOOTH",
"320 1457 OFFCURVE",
"136 1254 OFFCURVE",
"136 958 CURVE SMOOTH",
"136 707 OFFCURVE",
"304 549 OFFCURVE",
"480 549 CURVE SMOOTH",
"553 549 OFFCURVE",
"634 582 OFFCURVE",
"699 658 CURVE",
"709 614 OFFCURVE",
"727 548 OFFCURVE",
"745 548 CURVE SMOOTH",
"748 548 OFFCURVE",
"749 548 OFFCURVE",
"750 549 CURVE SMOOTH",
"958 639 LINE SMOOTH",
"973 645 OFFCURVE",
"981 652 OFFCURVE",
"981 659 CURVE SMOOTH",
"981 670 OFFCURVE",
"942 684 OFFCURVE",
"942 745 CURVE"
);
},
{
closed = 1;
nodes = (
"677 808 LINE",
"637 777 OFFCURVE",
"598 759 OFFCURVE",
"567 759 CURVE SMOOTH",
"490 759 OFFCURVE",
"444 832 OFFCURVE",
"444 996 CURVE SMOOTH",
"444 1087 OFFCURVE",
"481 1253 OFFCURVE",
"593 1253 CURVE SMOOTH",
"644 1253 OFFCURVE",
"695 1218 OFFCURVE",
"725 1194 CURVE",
"722 1144 LINE SMOOTH",
"720 1113 OFFCURVE",
"715 1076 OFFCURVE",
"710 1039 CURVE SMOOTH"
);
}
);
width = 987;
}
);
unicode = 00AA;
},
{
glyphname = ordmasculine;
layers = (
{
layerId = "083AB92F-A21B-420A-A5F3-096AB5C32ED3";
name = Regular;
paths = (
{
closed = 1;
nodes = (
"575 546 CURVE SMOOTH",
"847 546 OFFCURVE",
"1070 726 OFFCURVE",
"1070 1038 CURVE SMOOTH",
"1070 1281 OFFCURVE",
"918 1473 OFFCURVE",
"522 1473 CURVE SMOOTH",
"517 1473 OFFCURVE",
"511 1470 OFFCURVE",
"511 1459 CURVE SMOOTH",
"511 1452 OFFCURVE",
"515 1441 OFFCURVE",
"515 1430 CURVE SMOOTH",
"515 1427 OFFCURVE",
"511 1425 OFFCURVE",
"503 1424 CURVE SMOOTH",
"283 1387 OFFCURVE",
"130 1201 OFFCURVE",
"130 976 CURVE SMOOTH",
"130 753 OFFCURVE",
"281 546 OFFCURVE"
);
},
{
closed = 1;
nodes = (
"430 985 CURVE SMOOTH",
"430 1076 OFFCURVE",
"472 1246 OFFCURVE",
"596 1246 CURVE SMOOTH",
"718 1246 OFFCURVE",
"782 1139 OFFCURVE",
"782 1031 CURVE SMOOTH",
"782 931 OFFCURVE",
"748 760 OFFCURVE",
"607 752 CURVE",
"474 752 OFFCURVE",
"430 873 OFFCURVE"
);
}
);
width = 1029;
}
);
unicode = 00BA;
},
{
glyphname = asterisk;
layers = (
{
layerId = "083AB92F-A21B-420A-A5F3-096AB5C32ED3";
name = Regular;
paths = (
{
closed = 1;
nodes = (
"555 -436 LINE SMOOTH",
"699 -442 OFFCURVE",
"775 -450 OFFCURVE",
"814 -450 CURVE SMOOTH",
"833 -450 OFFCURVE",
"846 -452 OFFCURVE",
"846 -435 CURVE SMOOTH",
"846 -428 OFFCURVE",
"843 -424 OFFCURVE",
"840 -423 CURVE",
"855 -423 OFFCURVE",
"853 -422 OFFCURVE",
"859 -365 CURVE SMOOTH",
"867 -277 OFFCURVE",
"886 -210 OFFCURVE",
"900 -123 CURVE",
"969 -171 OFFCURVE",
"1125 -317 OFFCURVE",
"1167 -317 CURVE SMOOTH",
"1180 -317 OFFCURVE",
"1190 -312 OFFCURVE",
"1197 -302 CURVE SMOOTH",
"1266 -200 OFFCURVE",
"1313 -129 OFFCURVE",
"1333 -99 CURVE",
"1343 -61 OFFCURVE",
"1351 -55 OFFCURVE",
"1351 -51 CURVE",
"1346 -35 OFFCURVE",
"1126 146 OFFCURVE",
"1042 231 CURVE",
"1374 494 OFFCURVE",
"1367 486 OFFCURVE",
"1367 504 CURVE SMOOTH",
"1367 509 OFFCURVE",
"1317 591 OFFCURVE",
"1199 776 CURVE SMOOTH",
"1198 777 OFFCURVE",
"1197 777 OFFCURVE",
"1196 777 CURVE SMOOTH",
"1195 777 OFFCURVE",
"1194 776 OFFCURVE",
"1193 776 CURVE SMOOTH",
"1192 776 OFFCURVE",
"1191 777 OFFCURVE",
"1189 777 CURVE SMOOTH",
"1161 777 OFFCURVE",
"1050 662 OFFCURVE",
"946 567 CURVE",
"961 708 OFFCURVE",
"989 812 OFFCURVE",
"989 904 CURVE SMOOTH",
"989 922 OFFCURVE",
"990 943 OFFCURVE",
"975 943 CURVE",
"970 942 OFFCURVE",
"937 942 OFFCURVE",
"893 942 CURVE SMOOTH",
"776 942 LINE SMOOTH",
"716 942 OFFCURVE",
"659 941 OFFCURVE",
"635 940 CURVE",
"633 935 OFFCURVE",
"632 930 OFFCURVE",
"632 926 CURVE SMOOTH",
"632 908 OFFCURVE",
"647 910 OFFCURVE",
"647 890 CURVE SMOOTH",
"647 861 OFFCURVE",
"610 786 OFFCURVE",
"585 551 CURVE",
"517 606 OFFCURVE",
"345 764 OFFCURVE",
"313 764 CURVE SMOOTH",
"285 764 OFFCURVE",
"246 682 OFFCURVE",
"221 640 CURVE SMOOTH",
"155 529 OFFCURVE",
"136 498 OFFCURVE",
"136 491 CURVE SMOOTH",
"136 477 OFFCURVE",
"232 404 OFFCURVE",
"461 231 CURVE",
"377 146 OFFCURVE",
"153 -39 OFFCURVE",
"153 -51 CURVE SMOOTH",
"153 -54 OFFCURVE",
"161 -64 OFFCURVE",
"171 -99 CURVE",
"184 -121 OFFCURVE",
"233 -175 OFFCURVE",
"294 -251 CURVE",
"300 -261 OFFCURVE",
"311 -266 OFFCURVE",
"324 -266 CURVE SMOOTH",
"355 -266 OFFCURVE",
"483 -167 OFFCURVE",
"540 -132 CURVE",
"532 -225 OFFCURVE",
"525 -308 OFFCURVE",
"519 -397 CURVE",
"520 -424 OFFCURVE",
"532 -436 OFFCURVE",
"551 -436 CURVE SMOOTH"
);
}
);
width = 1412;
}
);
unicode = 002A;
},
{
glyphname = backslash;
layers = (
{
layerId = "083AB92F-A21B-420A-A5F3-096AB5C32ED3";
name = Regular;
paths = (
{
closed = 1;
nodes = (
"634 1595 CURVE",
"554 1623 OFFCURVE",
"484 1628 OFFCURVE",
"399 1628 CURVE",
"305 1617 OFFCURVE",
"168 1588 OFFCURVE",
"99 1588 CURVE",
"171 1403 LINE",
"194 1351 OFFCURVE",
"217 1297 OFFCURVE",
"239 1244 CURVE SMOOTH",
"757 -10 LINE",
"779 -67 OFFCURVE",
"796 -121 OFFCURVE",
"822 -168 CURVE",
"973 -168 OFFCURVE",
"1190 -137 OFFCURVE",
"1325 -119 CURVE",
"1255 65 LINE",
"1101 440 OFFCURVE",
"940 837 OFFCURVE",
"769 1259 CURVE",
"725 1363 OFFCURVE",
"680 1476 OFFCURVE"
);
}
);
width = 1372;
}
);
unicode = 005C;
},
{
glyphname = bullet;
layers = (
{
layerId = "083AB92F-A21B-420A-A5F3-096AB5C32ED3";
name = Regular;
paths = (
{
closed = 1;
nodes = (
"515 299 CURVE SMOOTH",
"763 299 OFFCURVE",
"968 464 OFFCURVE",
"968 740 CURVE SMOOTH",
"968 944 OFFCURVE",
"814 1106 OFFCURVE",
"598 1106 CURVE SMOOTH",
"347 1106 OFFCURVE",
"132 937 OFFCURVE",
"132 685 CURVE SMOOTH",
"132 486 OFFCURVE",
"263 299 OFFCURVE"
);
}
);
width = 977;
}
);
unicode = 2022;
},
{
glyphname = colon;
layers = (
{
layerId = "083AB92F-A21B-420A-A5F3-096AB5C32ED3";
name = Regular;
paths = (
{
closed = 1;
nodes = (
"617 297 LINE",
"618 301 OFFCURVE",
"618 304 OFFCURVE",
"618 307 CURVE SMOOTH",
"618 326 OFFCURVE",
"603 331 OFFCURVE",
"586 331 CURVE SMOOTH",
"472 331 OFFCURVE",
"342 325 OFFCURVE",
"230 325 CURVE SMOOTH",
"226 325 LINE SMOOTH",
"179 325 OFFCURVE",
"174 129 OFFCURVE",
"174 3 CURVE SMOOTH",
"174 -87 LINE",
"244 -87 LINE SMOOTH",
"351 -87 OFFCURVE",
"449 -85 OFFCURVE",
"543 -83 CURVE",
"547 -84 OFFCURVE",
"551 -84 OFFCURVE",
"555 -84 CURVE SMOOTH",
"575 -84 OFFCURVE",
"576 -72 OFFCURVE",
"582 -31 CURVE"
);
},
{
closed = 1;
nodes = (
"643 1080 LINE SMOOTH",
"644 1085 OFFCURVE",
"645 1089 OFFCURVE",
"645 1093 CURVE SMOOTH",
"645 1110 OFFCURVE",
"632 1114 OFFCURVE",
"617 1114 CURVE SMOOTH",
"603 1114 OFFCURVE",
"587 1111 OFFCURVE",
"576 1111 CURVE SMOOTH",
"472 1109 OFFCURVE",
"356 1108 OFFCURVE",
"256 1108 CURVE SMOOTH",
"253 1108 LINE SMOOTH",
"191 1108 OFFCURVE",
"199 770 OFFCURVE",
"199 692 CURVE",
"201 696 LINE",
"261 696 LINE SMOOTH",
"371 696 OFFCURVE",
"472 698 OFFCURVE",
"569 700 CURVE",
"576 698 OFFCURVE",
"582 697 OFFCURVE",
"586 697 CURVE SMOOTH",
"601 697 OFFCURVE",
"602 709 OFFCURVE",
"607 744 CURVE"
);
}
);
width = 690;
}
);
unicode = 003A;
},
{
glyphname = comma;
layers = (
{
layerId = "083AB92F-A21B-420A-A5F3-096AB5C32ED3";
name = Regular;
paths = (
{
closed = 1;
nodes = (
"147 -289 CURVE",
"159 -292 OFFCURVE",
"177 -295 OFFCURVE",
"199 -298 CURVE",
"245 -316 OFFCURVE",
"266 -322 OFFCURVE",
"283 -322 CURVE SMOOTH",
"343 -322 OFFCURVE",
"522 -189 OFFCURVE",
"541 18 CURVE",
"541 40 OFFCURVE",
"544 64 OFFCURVE",
"544 92 CURVE",
"552 289 LINE SMOOTH",
"553 309 OFFCURVE",
"551 327 OFFCURVE",
"550 344 CURVE",
"535 346 OFFCURVE",
"518 347 OFFCURVE",
"501 347 CURVE SMOOTH",
"393 347 OFFCURVE",
"275 346 OFFCURVE",
"166 346 CURVE",
"147 292 OFFCURVE",
"143 114 OFFCURVE",
"143 44 CURVE SMOOTH",
"143 -9 LINE",
"158 -13 OFFCURVE",
"188 -13 OFFCURVE",
"219 -13 CURVE SMOOTH",
"282 -13 LINE",
"265 -68 OFFCURVE",
"244 -118 OFFCURVE",
"149 -171 CURVE",
"148 -210 OFFCURVE",
"147 -249 OFFCURVE"
);
}
);
width = 652;
}
);
unicode = 002C;
},
{
glyphname = ellipsis;
layers = (
{
layerId = "083AB92F-A21B-420A-A5F3-096AB5C32ED3";
name = Regular;
paths = (
{
closed = 1;
nodes = (
"90 -42 LINE SMOOTH",
"90 -49 OFFCURVE",
"93 -49 OFFCURVE",
"101 -49 CURVE SMOOTH",
"230 -49 OFFCURVE",
"349 -47 OFFCURVE",
"462 -46 CURVE",
"487 -43 OFFCURVE",
"487 -30 OFFCURVE",
"492 14 CURVE",
"520 328 LINE",
"520 347 OFFCURVE",
"511 352 OFFCURVE",
"499 352 CURVE SMOOTH",
"386 351 OFFCURVE",
"251 350 OFFCURVE",
"134 350 CURVE",
"110 346 OFFCURVE",
"107 333 OFFCURVE",
"105 289 CURVE SMOOTH",
"88 0 OFFCURVE",
"101 214 OFFCURVE",
"90 -38 CURVE SMOOTH"
);
},
{
closed = 1;
nodes = (
"669 -42 LINE SMOOTH",
"669 -49 OFFCURVE",
"672 -49 OFFCURVE",
"680 -49 CURVE SMOOTH",
"809 -49 OFFCURVE",
"928 -47 OFFCURVE",
"1041 -46 CURVE",
"1066 -43 OFFCURVE",
"1066 -30 OFFCURVE",
"1071 14 CURVE",
"1099 328 LINE",
"1099 347 OFFCURVE",
"1090 352 OFFCURVE",
"1078 352 CURVE SMOOTH",
"965 351 OFFCURVE",
"830 350 OFFCURVE",
"713 350 CURVE",
"689 346 OFFCURVE",
"686 333 OFFCURVE",
"684 289 CURVE SMOOTH",
"667 0 OFFCURVE",
"680 214 OFFCURVE",
"669 -38 CURVE SMOOTH"
);
},
{
closed = 1;
nodes = (
"1248 -42 LINE SMOOTH",
"1248 -49 OFFCURVE",
"1251 -49 OFFCURVE",
"1259 -49 CURVE SMOOTH",
"1388 -49 OFFCURVE",
"1507 -47 OFFCURVE",
"1620 -46 CURVE",
"1645 -43 OFFCURVE",
"1645 -30 OFFCURVE",
"1650 14 CURVE",
"1678 328 LINE",
"1678 347 OFFCURVE",
"1669 352 OFFCURVE",
"1657 352 CURVE SMOOTH",
"1544 351 OFFCURVE",
"1409 350 OFFCURVE",
"1292 350 CURVE",
"1268 346 OFFCURVE",
"1265 333 OFFCURVE",
"1263 289 CURVE SMOOTH",
"1246 0 OFFCURVE",
"1259 214 OFFCURVE",
"1248 -38 CURVE SMOOTH"
);
}
);
width = 1731;
}
);
leftKerningGroup = period;
rightKerningGroup = period;
unicode = 2026;
},
{
glyphname = exclam;
layers = (
{
layerId = "083AB92F-A21B-420A-A5F3-096AB5C32ED3";
name = Regular;
paths = (
{
closed = 1;
nodes = (
"385 478 CURVE",
"386 476 OFFCURVE",
"388 475 OFFCURVE",
"389 475 CURVE SMOOTH",
"427 475 OFFCURVE",
"512 1024 OFFCURVE",
"549 1180 CURVE",
"578 1293 OFFCURVE",
"634 1615 OFFCURVE",
"637 1631 CURVE",
"639 1635 OFFCURVE",
"640 1638 OFFCURVE",
"640 1641 CURVE",
"640 1642 LINE",
"532 1605 LINE SMOOTH",
"443 1574 OFFCURVE",
"361 1547 OFFCURVE",
"279 1524 CURVE",
"270 1526 OFFCURVE",
"263 1527 OFFCURVE",
"258 1527 CURVE SMOOTH",
"244 1527 OFFCURVE",
"240 1518 OFFCURVE",
"236 1489 CURVE",
"222 538 LINE",
"221 525 OFFCURVE",
"217 493 OFFCURVE",
"217 468 CURVE SMOOTH",
"217 449 OFFCURVE",
"220 433 OFFCURVE",
"227 433 CURVE SMOOTH",
"228 433 OFFCURVE",
"229 434 OFFCURVE",
"231 435 CURVE SMOOTH",
"287 454 OFFCURVE",
"334 466 OFFCURVE"
);
},
{
closed = 1;
nodes = (
"483 352 CURVE",
"470 352 OFFCURVE",
"450 342 OFFCURVE",
"435 338 CURVE SMOOTH",
"322 308 OFFCURVE",
"221 280 OFFCURVE",
"123 258 CURVE",
"116 258 LINE SMOOTH",
"92 258 OFFCURVE",
"89 246 OFFCURVE",
"86 203 CURVE",
"59 -85 LINE",
"180 -35 OFFCURVE",
"317 -9 OFFCURVE",
"435 20 CURVE",
"438 20 LINE SMOOTH",
"504 20 OFFCURVE",
"493 344 OFFCURVE",
"497 364 CURVE",
"496 364 OFFCURVE",
"491 359 OFFCURVE"
);
},
{
closed = 1;
nodes = (
"60 -101 CURVE",
"72 -87 LINE",
"68 -87 OFFCURVE",
"64 -87 OFFCURVE",
"59 -86 CURVE",
"58 -98 LINE",
"58 -98 OFFCURVE",
"59 -100 OFFCURVE"
);
},
{
closed = 1;
nodes = (
"637 1644 CURVE",
"637 1643 OFFCURVE",
"638 1643 OFFCURVE",
"640 1642 CURVE SMOOTH",
"639 1643 OFFCURVE",
"638 1644 OFFCURVE"
);
},
{
closed = 1;
nodes = (
"57 -86 LINE",
"57 -85 OFFCURVE",
"58 -85 OFFCURVE",
"59 -85 CURVE",
"59 -86 LINE"
);
}
);
width = 532;
}
);
unicode = 0021;
},
{
glyphname = exclamdown;
layers = (
{
layerId = "083AB92F-A21B-420A-A5F3-096AB5C32ED3";
name = Regular;
paths = (
{
closed = 1;
nodes = (
"150 364 CURVE",
"122 244 OFFCURVE",
"71 -53 OFFCURVE",
"71 -58 CURVE SMOOTH",
"71 -65 OFFCURVE",
"75 -68 OFFCURVE",
"82 -68 CURVE SMOOTH",
"86 -68 OFFCURVE",
"89 -68 OFFCURVE",
"91 -67 CURVE SMOOTH",
"220 -35 OFFCURVE",
"334 -1 OFFCURVE",
"447 26 CURVE SMOOTH",
"471 31 OFFCURVE",
"472 42 OFFCURVE",
"476 88 CURVE",
"466 1076 LINE SMOOTH",
"466 1083 OFFCURVE",
"466 1086 OFFCURVE",
"455 1086 CURVE",
"399 1071 OFFCURVE",
"350 1061 OFFCURVE",
"298 1052 CURVE SMOOTH",
"274 1048 OFFCURVE",
"272 1033 OFFCURVE",
"269 990 CURVE",
"234 778 OFFCURVE",
"193 572 OFFCURVE"
);
},
{
closed = 1;
nodes = (
"185 1192 CURVE SMOOTH",
"185 1185 OFFCURVE",
"189 1182 OFFCURVE",
"196 1182 CURVE SMOOTH",
"200 1182 OFFCURVE",
"203 1182 OFFCURVE",
"205 1183 CURVE",
"334 1208 OFFCURVE",
"448 1235 OFFCURVE",
"561 1256 CURVE SMOOTH",
"584 1260 OFFCURVE",
"586 1274 OFFCURVE",
"590 1318 CURVE SMOOTH",
"612 1592 LINE",
"609 1594 LINE SMOOTH",
"606 1595 OFFCURVE",
"603 1598 OFFCURVE",
"601 1602 CURVE",
"597 1602 OFFCURVE",
"594 1602 OFFCURVE",
"592 1601 CURVE SMOOTH",
"476 1562 OFFCURVE",
"347 1541 OFFCURVE",
"234 1518 CURVE SMOOTH",
"210 1513 OFFCURVE",
"208 1500 OFFCURVE",
"205 1456 CURVE SMOOTH",
"184 1195 OFFCURVE",
"201 1420 OFFCURVE"
);
}
);
width = 550;
}
);
unicode = 00A1;
},
{
glyphname = middot;
layers = (
{
layerId = "083AB92F-A21B-420A-A5F3-096AB5C32ED3";
name = Regular;
paths = (
{
closed = 1;
nodes = (
"156 811 LINE SMOOTH",
"156 804 OFFCURVE",
"159 804 OFFCURVE",
"167 804 CURVE SMOOTH",
"296 804 OFFCURVE",
"415 806 OFFCURVE",
"528 807 CURVE",
"553 810 OFFCURVE",
"553 823 OFFCURVE",
"558 867 CURVE",
"586 1181 LINE",
"586 1200 OFFCURVE",
"577 1205 OFFCURVE",
"565 1205 CURVE SMOOTH",
"452 1204 OFFCURVE",
"317 1203 OFFCURVE",
"200 1203 CURVE",
"176 1199 OFFCURVE",
"173 1186 OFFCURVE",
"171 1142 CURVE SMOOTH",
"154 853 OFFCURVE",
"167 1067 OFFCURVE",
"156 815 CURVE SMOOTH"
);
}
);
width = 561;
}
);
unicode = 00B7;
},
{
glyphname = numbersign;
layers = (
{
layerId = "083AB92F-A21B-420A-A5F3-096AB5C32ED3";
name = Regular;
paths = (
{
closed = 1;
nodes = (
"269 701 LINE",
"240 700 OFFCURVE",
"233 685 OFFCURVE",
"218 672 CURVE",
"170 603 OFFCURVE",
"102 479 OFFCURVE",
"102 456 CURVE SMOOTH",
"102 427 OFFCURVE",
"167 433 OFFCURVE",
"342 430 CURVE",
"315 319 OFFCURVE",
"290 221 OFFCURVE",
"258 101 CURVE",
"257 94 OFFCURVE",
"256 90 OFFCURVE",
"256 89 CURVE SMOOTH",
"256 48 OFFCURVE",
"347 28 OFFCURVE",
"368 20 CURVE",
"558 -32 LINE",
"568 -37 OFFCURVE",
"577 -39 OFFCURVE",
"585 -39 CURVE SMOOTH",
"605 -39 OFFCURVE",
"600 -16 OFFCURVE",
"605 5 CURVE SMOOTH",
"709 427 LINE",
"769 426 OFFCURVE",
"826 425 OFFCURVE",
"886 425 CURVE",
"859 315 OFFCURVE",
"835 220 OFFCURVE",
"803 101 CURVE",
"802 94 OFFCURVE",
"801 90 OFFCURVE",
"801 89 CURVE SMOOTH",
"801 48 OFFCURVE",
"892 28 OFFCURVE",
"913 20 CURVE",
"1103 -32 LINE",
"1113 -37 OFFCURVE",
"1122 -39 OFFCURVE",
"1130 -39 CURVE SMOOTH",
"1150 -39 OFFCURVE",
"1145 -16 OFFCURVE",
"1150 5 CURVE SMOOTH",
"1253 421 LINE",
"1298 420 OFFCURVE",
"1335 420 OFFCURVE",
"1362 420 CURVE SMOOTH",
"1403 420 LINE SMOOTH",
"1442 420 OFFCURVE",
"1449 430 OFFCURVE",
"1458 450 CURVE",
"1498 565 OFFCURVE",
"1545 680 OFFCURVE",
"1545 696 CURVE SMOOTH",
"1545 717 OFFCURVE",
"1528 722 OFFCURVE",
"1517 722 CURVE SMOOTH",
"1493 722 OFFCURVE",
"1413 713 OFFCURVE",
"1321 698 CURVE",
"1354 834 LINE",
"1401 834 OFFCURVE",
"1438 833 OFFCURVE",
"1468 833 CURVE SMOOTH",
"1543 833 OFFCURVE",
"1571 838 OFFCURVE",
"1585 866 CURVE SMOOTH",
"1632 959 LINE SMOOTH",
"1668 1031 OFFCURVE",
"1691 1081 OFFCURVE",
"1692 1092 CURVE",
"1692 1113 OFFCURVE",
"1675 1118 OFFCURVE",
"1664 1118 CURVE SMOOTH",
"1636 1118 OFFCURVE",
"1532 1105 OFFCURVE",
"1417 1089 CURVE",
"1499 1419 LINE",
"1499 1428 OFFCURVE",
"1490 1432 OFFCURVE",
"1481 1435 CURVE",
"1385 1451 OFFCURVE",
"1273 1496 OFFCURVE",
"1172 1528 CURVE",
"1165 1528 LINE SMOOTH",
"1146 1528 OFFCURVE",
"1142 1515 OFFCURVE",
"1134 1476 CURVE SMOOTH",
"1105 1343 OFFCURVE",
"1075 1215 OFFCURVE",
"1046 1086 CURVE",
"872 1089 LINE",
"954 1419 LINE",
"954 1428 OFFCURVE",
"945 1432 OFFCURVE",
"936 1435 CURVE",
"840 1451 OFFCURVE",
"728 1496 OFFCURVE",
"627 1528 CURVE",
"620 1528 LINE SMOOTH",
"601 1528 OFFCURVE",
"598 1515 OFFCURVE",
"589 1476 CURVE SMOOTH",
"560 1347 OFFCURVE",
"534 1222 OFFCURVE",
"503 1094 CURVE",
"326 1097 LINE",
"297 1096 OFFCURVE",
"290 1081 OFFCURVE",
"275 1068 CURVE",
"235 1001 OFFCURVE",
"179 874 OFFCURVE",
"179 852 CURVE SMOOTH",
"179 832 OFFCURVE",
"218 827 OFFCURVE",
"298 827 CURVE SMOOTH",
"437 827 LINE",
"405 699 LINE"
);
},
{
closed = 1;
nodes = (
"775 693 LINE",
"809 830 LINE",
"866 830 OFFCURVE",
"923 831 OFFCURVE",
"983 831 CURVE",
"971 784 OFFCURVE",
"960 737 OFFCURVE",
"949 690 CURVE"
);
}
);
width = 1702;
}
);
unicode = 0023;
},
{
glyphname = period;
layers = (
{
layerId = "083AB92F-A21B-420A-A5F3-096AB5C32ED3";
name = Regular;
paths = (
{
closed = 1;
nodes = (
"547 341 LINE",
"529 349 OFFCURVE",
"507 351 OFFCURVE",
"484 351 CURVE SMOOTH",
"381 351 OFFCURVE",
"268 349 OFFCURVE",
"165 350 CURVE",
"148 311 OFFCURVE",
"145 202 OFFCURVE",
"145 118 CURVE SMOOTH",
"145 46 OFFCURVE",
"145 17 OFFCURVE",
"147 -21 CURVE",
"206 -21 LINE SMOOTH",
"316 -21 OFFCURVE",
"420 -20 OFFCURVE",
"523 -20 CURVE",
"533 -2 OFFCURVE",
"535 22 OFFCURVE",
"536 56 CURVE SMOOTH"
);
}
);
width = 677;
}
);
leftKerningGroup = period;
rightKerningGroup = period;
unicode = 002E;
},
{
glyphname = question;
layers = (
{
layerId = "083AB92F-A21B-420A-A5F3-096AB5C32ED3";
name = Regular;
paths = (
{
closed = 1;
nodes = (
"433 599 CURVE",
"433 594 OFFCURVE",
"434 582 OFFCURVE",
"423 575 CURVE",
"423 566 OFFCURVE",
"431 556 OFFCURVE",
"450 552 CURVE SMOOTH",
"549 531 OFFCURVE",
"605 503 OFFCURVE",
"705 455 CURVE",
"708 452 OFFCURVE",
"715 451 OFFCURVE",
"719 451 CURVE SMOOTH",
"727 451 OFFCURVE",
"735 456 OFFCURVE",
"738 460 CURVE",
"925 607 OFFCURVE",
"1179 819 OFFCURVE",
"1179 1047 CURVE SMOOTH",
"1179 1232 OFFCURVE",
"973 1447 OFFCURVE",
"656 1447 CURVE SMOOTH",
"411 1447 OFFCURVE",
"144 1302 OFFCURVE",
"144 1057 CURVE SMOOTH",
"144 1020 OFFCURVE",
"151 928 OFFCURVE",
"181 928 CURVE SMOOTH",
"193 928 OFFCURVE",
"212 931 OFFCURVE",
"251 942 CURVE SMOOTH",
"454 998 OFFCURVE",
"522 985 OFFCURVE",
"522 1006 CURVE SMOOTH",
"522 1014 OFFCURVE",
"508 1042 OFFCURVE",
"508 1073 CURVE SMOOTH",
"508 1118 OFFCURVE",
"536 1175 OFFCURVE",
"643 1175 CURVE SMOOTH",
"738 1175 OFFCURVE",
"776 1124 OFFCURVE",
"776 1049 CURVE SMOOTH",
"776 911 OFFCURVE",
"618 698 OFFCURVE"
);
},
{
closed = 1;
nodes = (
"437 -38 CURVE SMOOTH",
"437 -49 OFFCURVE",
"437 -49 OFFCURVE",
"448 -49 CURVE SMOOTH",
"577 -49 OFFCURVE",
"696 -47 OFFCURVE",
"809 -46 CURVE",
"834 -43 OFFCURVE",
"834 -30 OFFCURVE",
"839 14 CURVE",
"867 322 LINE",
"867 345 OFFCURVE",
"861 352 OFFCURVE",
"846 352 CURVE SMOOTH",
"733 351 OFFCURVE",
"598 350 OFFCURVE",
"481 350 CURVE",
"457 346 OFFCURVE",
"454 333 OFFCURVE",
"452 289 CURVE SMOOTH",
"435 0 OFFCURVE",
"448 214 OFFCURVE"
);
}
);
width = 1166;
}
);
unicode = 003F;
},
{
glyphname = quotedbl;
layers = (
{
layerId = "083AB92F-A21B-420A-A5F3-096AB5C32ED3";
name = Regular;
paths = (
{
closed = 1;
nodes = (
"200 785 CURVE",
"200 771 OFFCURVE",
"201 721 OFFCURVE",
"221 721 CURVE SMOOTH",
"301 721 OFFCURVE",
"365 723 OFFCURVE",
"437 723 CURVE SMOOTH",
"462 723 OFFCURVE",
"462 740 OFFCURVE",
"473 783 CURVE SMOOTH",
"629 1420 LINE",
"629 1426 LINE SMOOTH",
"629 1445 OFFCURVE",
"620 1450 OFFCURVE",
"608 1450 CURVE SMOOTH",
"485 1450 OFFCURVE",
"331 1448 OFFCURVE",
"203 1448 CURVE",
"180 1444 OFFCURVE",
"174 1435 OFFCURVE",
"174 1400 CURVE SMOOTH",
"174 1387 LINE",
"183 1186 OFFCURVE",
"191 973 OFFCURVE"
);
},
{
closed = 1;
nodes = (
"753 785 CURVE",
"753 771 OFFCURVE",
"754 721 OFFCURVE",
"774 721 CURVE SMOOTH",
"854 721 OFFCURVE",
"918 723 OFFCURVE",
"990 723 CURVE SMOOTH",
"1015 723 OFFCURVE",
"1015 740 OFFCURVE",
"1026 783 CURVE SMOOTH",
"1182 1420 LINE",
"1182 1426 LINE SMOOTH",
"1182 1445 OFFCURVE",
"1173 1450 OFFCURVE",
"1161 1450 CURVE SMOOTH",
"1038 1450 OFFCURVE",
"884 1448 OFFCURVE",
"756 1448 CURVE",
"733 1444 OFFCURVE",
"727 1435 OFFCURVE",
"727 1400 CURVE SMOOTH",
"727 1387 LINE",
"736 1186 OFFCURVE",
"744 973 OFFCURVE"
);
}
);
width = 1101;
}
);
leftKerningGroup = quotedbl;
rightKerningGroup = quotedbl;
unicode = 0022;
},
{
glyphname = quotesingle;
layers = (
{
layerId = "083AB92F-A21B-420A-A5F3-096AB5C32ED3";
name = Regular;
paths = (
{
closed = 1;
nodes = (
"200 784 CURVE",
"200 770 OFFCURVE",
"201 720 OFFCURVE",
"221 720 CURVE SMOOTH",
"301 720 OFFCURVE",
"365 722 OFFCURVE",
"437 722 CURVE SMOOTH",
"462 722 OFFCURVE",
"462 739 OFFCURVE",
"473 782 CURVE SMOOTH",
"629 1419 LINE",
"629 1425 LINE SMOOTH",
"629 1444 OFFCURVE",
"620 1449 OFFCURVE",
"608 1449 CURVE SMOOTH",
"485 1449 OFFCURVE",
"331 1447 OFFCURVE",
"203 1447 CURVE",
"180 1443 OFFCURVE",
"174 1434 OFFCURVE",
"174 1399 CURVE SMOOTH",
"174 1386 LINE",
"183 1185 OFFCURVE",
"191 972 OFFCURVE"
);
}
);
width = 548;
}
);
leftKerningGroup = quotedbl;
rightKerningGroup = quotedbl;
unicode = 0027;
},
{
glyphname = semicolon;
layers = (
{
layerId = "083AB92F-A21B-420A-A5F3-096AB5C32ED3";
name = Regular;
paths = (
{
closed = 1;
nodes = (
"221 -311 CURVE",
"233 -314 OFFCURVE",
"251 -317 OFFCURVE",
"273 -320 CURVE",
"319 -338 OFFCURVE",
"340 -344 OFFCURVE",
"357 -344 CURVE SMOOTH",
"417 -344 OFFCURVE",
"596 -210 OFFCURVE",
"615 -4 CURVE",
"615 18 OFFCURVE",
"618 43 OFFCURVE",
"618 70 CURVE",
"626 268 LINE SMOOTH",
"627 287 OFFCURVE",
"625 305 OFFCURVE",
"624 322 CURVE",
"609 324 OFFCURVE",
"592 325 OFFCURVE",
"575 325 CURVE SMOOTH",
"467 325 OFFCURVE",
"349 324 OFFCURVE",
"240 324 CURVE",
"221 270 OFFCURVE",
"217 93 OFFCURVE",
"217 22 CURVE SMOOTH",
"217 -31 LINE",
"232 -35 OFFCURVE",
"262 -35 OFFCURVE",
"293 -35 CURVE SMOOTH",
"356 -35 LINE",
"339 -89 OFFCURVE",
"318 -140 OFFCURVE",
"223 -192 CURVE",
"222 -232 OFFCURVE",
"221 -271 OFFCURVE"
);
},
{
closed = 1;
nodes = (
"639 1098 LINE",
"624 1106 OFFCURVE",
"605 1108 OFFCURVE",
"585 1108 CURVE SMOOTH",
"479 1108 OFFCURVE",
"363 1106 OFFCURVE",
"256 1107 CURVE",
"240 1066 OFFCURVE",
"237 958 OFFCURVE",
"237 873 CURVE SMOOTH",
"237 805 OFFCURVE",
"236 773 OFFCURVE",
"239 736 CURVE",
"328 741 OFFCURVE",
"421 737 OFFCURVE",
"508 737 CURVE SMOOTH",
"615 737 LINE",
"625 753 OFFCURVE",
"627 774 OFFCURVE",
"628 806 CURVE SMOOTH"
);
}
);
width = 669;
}
);
unicode = 003B;
},
{
glyphname = slash;
layers = (
{
layerId = "083AB92F-A21B-420A-A5F3-096AB5C32ED3";
name = Regular;
paths = (
{
closed = 1;
nodes = (
"55 -119 CURVE",
"94 -137 OFFCURVE",
"203 -157 OFFCURVE",
"257 -163 CURVE",
"559 -168 LINE",
"582 -129 OFFCURVE",
"595 -84 OFFCURVE",
"615 -36 CURVE SMOOTH",
"1239 1473 LINE",
"1253 1518 OFFCURVE",
"1263 1555 OFFCURVE",
"1271 1597 CURVE",
"1129 1604 OFFCURVE",
"1024 1615 OFFCURVE",
"894 1628 CURVE",
"860 1628 OFFCURVE",
"819 1629 OFFCURVE",
"783 1639 CURVE",
"729 1556 OFFCURVE",
"589 1189 OFFCURVE",
"512 1005 CURVE SMOOTH",
"356 632 OFFCURVE",
"238 332 OFFCURVE",
"100 2 CURVE",
"85 -40 OFFCURVE",
"70 -79 OFFCURVE"
);
}
);
width = 1280;
}
);
unicode = 002F;
},
{
glyphname = underscore;
layers = (
{
layerId = "083AB92F-A21B-420A-A5F3-096AB5C32ED3";
name = Regular;
paths = (
{
closed = 1;
nodes = (
"909 -10 CURVE SMOOTH",
"930 -12 OFFCURVE",
"944 -13 OFFCURVE",
"954 -13 CURVE SMOOTH",
"976 -13 OFFCURVE",
"979 -8 OFFCURVE",
"982 2 CURVE",
"994 79 LINE",
"1007 144 OFFCURVE",
"1010 175 OFFCURVE",
"1010 181 CURVE SMOOTH",
"1010 206 OFFCURVE",
"986 209 OFFCURVE",
"964 209 CURVE SMOOTH",
"882 209 OFFCURVE",
"566 201 OFFCURVE",
"537 201 CURVE",
"179 189 LINE",
"176 190 OFFCURVE",
"172 190 OFFCURVE",
"169 190 CURVE SMOOTH",
"93 190 OFFCURVE",
"-3 38 OFFCURVE",
"-3 18 CURVE",
"-5 14 OFFCURVE",
"-6 11 OFFCURVE",
"-6 9 CURVE SMOOTH",
"-6 -8 OFFCURVE",
"37 -12 OFFCURVE",
"138 -12 CURVE",
"329 -8 OFFCURVE",
"468 -4 OFFCURVE",
"692 -4 CURVE SMOOTH",
"754 -4 OFFCURVE",
"818 -4 OFFCURVE"
);
}
);
width = 1042;
}
);
unicode = 005F;
},
{
glyphname = braceleft;
layers = (
{
layerId = "083AB92F-A21B-420A-A5F3-096AB5C32ED3";
name = Regular;
paths = (
{
closed = 1;
nodes = (
"689 -164 CURVE",
"765 -162 OFFCURVE",
"864 -157 OFFCURVE",
"930 -152 CURVE",
"941 -47 OFFCURVE",
"961 44 OFFCURVE",
"961 152 CURVE",
"827 161 OFFCURVE",
"819 242 OFFCURVE",
"813 336 CURVE",
"787 336 OFFCURVE",
"772 343 OFFCURVE",
"772 384 CURVE SMOOTH",
"772 403 LINE",
"771 401 OFFCURVE",
"771 399 OFFCURVE",
"771 398 CURVE SMOOTH",
"765 520 OFFCURVE",
"749 650 OFFCURVE",
"582 712 CURVE",
"815 767 OFFCURVE",
"753 993 OFFCURVE",
"817 1133 CURVE",
"848 1173 OFFCURVE",
"892 1196 OFFCURVE",
"966 1196 CURVE SMOOTH",
"980 1196 LINE SMOOTH",
"1008 1196 OFFCURVE",
"1016 1401 OFFCURVE",
"1021 1470 CURVE",
"1021 1567 LINE",
"954 1570 OFFCURVE",
"861 1572 OFFCURVE",
"779 1572 CURVE SMOOTH",
"355 1572 OFFCURVE",
"450 1101 OFFCURVE",
"232 983 CURVE",
"191 925 OFFCURVE",
"151 884 OFFCURVE",
"76 874 CURVE",
"76 848 OFFCURVE",
"57 737 OFFCURVE",
"57 677 CURVE SMOOTH",
"57 630 OFFCURVE",
"64 600 OFFCURVE",
"77 568 CURVE",
"215 568 OFFCURVE",
"255 482 OFFCURVE",
"281 378 CURVE",
"280 378 LINE",
"335 129 OFFCURVE",
"411 -165 OFFCURVE",
"668 -165 CURVE SMOOTH",
"675 -165 OFFCURVE",
"682 -165 OFFCURVE"
);
}
);
width = 1098;
}
);
unicode = 007B;
},
{
glyphname = braceright;
layers = (
{
layerId = "083AB92F-A21B-420A-A5F3-096AB5C32ED3";
name = Regular;
paths = (
{
closed = 1;
nodes = (
"820 261 CURVE SMOOTH",
"852 381 OFFCURVE",
"894 475 OFFCURVE",
"959 525 CURVE",
"1011 551 OFFCURVE",
"1061 513 OFFCURVE",
"1078 634 CURVE",
"1092 714 OFFCURVE",
"1091 828 OFFCURVE",
"1091 865 CURVE",
"1020 877 OFFCURVE",
"972 915 OFFCURVE",
"929 971 CURVE SMOOTH",
"921 982 OFFCURVE",
"907 988 OFFCURVE",
"894 995 CURVE",
"718 1192 OFFCURVE",
"873 1572 OFFCURVE",
"382 1572 CURVE SMOOTH",
"321 1572 OFFCURVE",
"249 1568 OFFCURVE",
"209 1562 CURVE",
"200 1473 OFFCURVE",
"187 1414 OFFCURVE",
"187 1323 CURVE SMOOTH",
"187 1283 OFFCURVE",
"191 1250 OFFCURVE",
"196 1219 CURVE",
"523 1209 OFFCURVE",
"232 789 OFFCURVE",
"567 718 CURVE",
"431 664 OFFCURVE",
"390 569 OFFCURVE",
"374 468 CURVE SMOOTH",
"349 306 OFFCURVE",
"325 188 OFFCURVE",
"152 164 CURVE",
"140 132 OFFCURVE",
"137 69 OFFCURVE",
"137 18 CURVE SMOOTH",
"137 -3 OFFCURVE",
"138 -14 OFFCURVE",
"138 -32 CURVE SMOOTH",
"138 -40 OFFCURVE",
"137 -50 OFFCURVE",
"137 -60 CURVE SMOOTH",
"137 -97 OFFCURVE",
"140 -130 OFFCURVE",
"145 -160 CURVE",
"241 -160 OFFCURVE",
"403 -130 OFFCURVE",
"520 -99 CURVE",
"735 -89 OFFCURVE",
"774 93 OFFCURVE"
);
}
);
width = 1100;
}
);
unicode = 007D;
},
{
glyphname = bracketleft;
layers = (
{
layerId = "083AB92F-A21B-420A-A5F3-096AB5C32ED3";
name = Regular;
paths = (
{
closed = 1;
nodes = (
"167 -186 CURVE",
"397 -198 OFFCURVE",
"660 -201 OFFCURVE",
"893 -201 CURVE SMOOTH",
"1042 -201 OFFCURVE",
"1169 -112 OFFCURVE",
"1285 -96 CURVE",
"1288 -7 OFFCURVE",
"1291 79 OFFCURVE",
"1291 167 CURVE",
"1165 172 OFFCURVE",
"1031 171 OFFCURVE",
"901 171 CURVE",
"911 641 LINE",
"923 846 OFFCURVE",
"933 1072 OFFCURVE",
"936 1196 CURVE",
"1105 1200 OFFCURVE",
"1212 1202 OFFCURVE",
"1319 1216 CURVE",
"1336 1389 LINE",
"1351 1468 OFFCURVE",
"1359 1538 OFFCURVE",
"1360 1583 CURVE",
"1305 1596 OFFCURVE",
"1239 1596 OFFCURVE",
"1185 1596 CURVE",
"384 1571 LINE",
"322 1570 OFFCURVE",
"253 1567 OFFCURVE",
"199 1529 CURVE",
"199 1500 OFFCURVE",
"198 1471 OFFCURVE",
"198 1447 CURVE SMOOTH",
"184 802 LINE",
"172 473 OFFCURVE",
"161 112 OFFCURVE",
"161 -45 CURVE SMOOTH",
"161 -94 OFFCURVE",
"161 -142 OFFCURVE"
);
}
);
width = 1424;
}
);
unicode = 005B;
},
{
glyphname = bracketright;
layers = (
{
layerId = "083AB92F-A21B-420A-A5F3-096AB5C32ED3";
name = Regular;
paths = (
{
closed = 1;
nodes = (
"1307 1584 CURVE",
"370 1584 LINE SMOOTH",
"269 1584 OFFCURVE",
"236 1457 OFFCURVE",
"181 1443 CURVE",
"181 1365 OFFCURVE",
"182 1307 OFFCURVE",
"182 1221 CURVE",
"221 1216 OFFCURVE",
"263 1213 OFFCURVE",
"308 1213 CURVE SMOOTH",
"401 1213 OFFCURVE",
"485 1219 OFFCURVE",
"573 1219 CURVE",
"565 859 OFFCURVE",
"546 426 OFFCURVE",
"545 194 CURVE",
"410 192 OFFCURVE",
"260 196 OFFCURVE",
"154 176 CURVE",
"139 9 LINE",
"125 -70 OFFCURVE",
"121 -133 OFFCURVE",
"120 -178 CURVE",
"175 -189 OFFCURVE",
"240 -189 OFFCURVE",
"296 -189 CURVE SMOOTH",
"364 -189 OFFCURVE",
"480 -187 OFFCURVE",
"592 -185 CURVE",
"1088 -181 LINE SMOOTH",
"1148 -181 OFFCURVE",
"1212 -181 OFFCURVE",
"1269 -152 CURVE",
"1288 576 LINE SMOOTH",
"1296 881 OFFCURVE",
"1314 1232 OFFCURVE",
"1314 1407 CURVE SMOOTH",
"1314 1467 OFFCURVE",
"1314 1530 OFFCURVE"
);
}
);
width = 1425;
}
);
unicode = 005D;
},
{
glyphname = parenleft;
layers = (
{
layerId = "083AB92F-A21B-420A-A5F3-096AB5C32ED3";
name = Regular;
paths = (
{
closed = 1;
nodes = (
"818 132 CURVE",
"768 142 OFFCURVE",
"729 184 OFFCURVE",
"700 245 CURVE",
"604 326 OFFCURVE",
"565 480 OFFCURVE",
"565 636 CURVE SMOOTH",
"565 829 OFFCURVE",
"641 1026 OFFCURVE",
"753 1111 CURVE",
"785 1173 OFFCURVE",
"826 1216 OFFCURVE",
"874 1226 CURVE",
"874 1370 OFFCURVE",
"864 1474 OFFCURVE",
"858 1534 CURVE",
"608 1524 OFFCURVE",
"408 1389 OFFCURVE",
"291 1240 CURVE",
"145 1060 OFFCURVE",
"92 816 OFFCURVE",
"92 625 CURVE SMOOTH",
"92 268 OFFCURVE",
"268 -69 OFFCURVE",
"647 -160 CURVE",
"650 -160 LINE",
"683 -169 OFFCURVE",
"716 -175 OFFCURVE",
"751 -175 CURVE SMOOTH",
"765 -175 OFFCURVE",
"779 -174 OFFCURVE",
"794 -172 CURVE",
"803 -64 OFFCURVE",
"818 22 OFFCURVE"
);
}
);
width = 953;
}
);
unicode = 0028;
},
{
glyphname = parenright;
layers = (
{
layerId = "083AB92F-A21B-420A-A5F3-096AB5C32ED3";
name = Regular;
paths = (
{
closed = 1;
nodes = (
"157 -180 CURVE",
"208 -180 OFFCURVE",
"252 -173 OFFCURVE",
"295 -160 CURVE",
"714 -66 OFFCURVE",
"909 319 OFFCURVE",
"909 706 CURVE SMOOTH",
"909 849 OFFCURVE",
"880 1005 OFFCURVE",
"811 1138 CURVE",
"711 1340 OFFCURVE",
"504 1524 OFFCURVE",
"205 1534 CURVE",
"197 1500 OFFCURVE",
"165 1393 OFFCURVE",
"165 1221 CURVE",
"214 1214 OFFCURVE",
"255 1172 OFFCURVE",
"285 1111 CURVE",
"380 1029 OFFCURVE",
"435 863 OFFCURVE",
"435 689 CURVE SMOOTH",
"435 436 OFFCURVE",
"346 173 OFFCURVE",
"157 146 CURVE",
"148 113 OFFCURVE",
"146 76 OFFCURVE",
"146 11 CURVE SMOOTH",
"146 -38 OFFCURVE",
"146 -150 OFFCURVE"
);
}
);
width = 955;
}
);
unicode = 0029;
},
{
glyphname = emdash;
layers = (
{
layerId = "083AB92F-A21B-420A-A5F3-096AB5C32ED3";
name = Regular;
paths = (
{
closed = 1;
nodes = (
"731 522 LINE SMOOTH",
"783 522 OFFCURVE",
"922 524 OFFCURVE",
"1046 524 CURVE SMOOTH",
"1284 524 LINE SMOOTH",
"1327 524 OFFCURVE",
"1331 532 OFFCURVE",
"1333 547 CURVE SMOOTH",
"1342 614 LINE SMOOTH",
"1347 649 OFFCURVE",
"1352 688 OFFCURVE",
"1352 705 CURVE SMOOTH",
"1352 730 OFFCURVE",
"1324 740 OFFCURVE",
"1304 740 CURVE SMOOTH",
"1288 740 OFFCURVE",
"781 733 OFFCURVE",
"734 733 CURVE",
"255 724 LINE",
"195 720 OFFCURVE",
"112 574 OFFCURVE",
"112 542 CURVE SMOOTH",
"112 523 OFFCURVE",
"155 517 OFFCURVE",
"259 518 CURVE SMOOTH"
);
}
);
width = 1366;
}
);
leftKerningGroup = hyphen;
rightKerningGroup = hyphen;
unicode = 2014;
},
{
glyphname = endash;
layers = (
{
layerId = "083AB92F-A21B-420A-A5F3-096AB5C32ED3";
name = Regular;
paths = (
{
closed = 1;
nodes = (
"604 522 LINE",
"656 522 OFFCURVE",
"736 523 OFFCURVE",
"803 523 CURVE SMOOTH",
"925 523 LINE SMOOTH",
"968 523 OFFCURVE",
"972 531 OFFCURVE",
"974 546 CURVE SMOOTH",
"983 613 LINE SMOOTH",
"988 648 OFFCURVE",
"993 687 OFFCURVE",
"993 704 CURVE SMOOTH",
"993 729 OFFCURVE",
"965 739 OFFCURVE",
"945 739 CURVE SMOOTH",
"928 739 OFFCURVE",
"655 733 OFFCURVE",
"607 733 CURVE",
"255 723 LINE",
"195 719 OFFCURVE",
"112 573 OFFCURVE",
"112 541 CURVE SMOOTH",
"112 521 OFFCURVE",
"155 517 OFFCURVE",
"259 517 CURVE"
);
}
);
width = 1007;
}
);
leftKerningGroup = hyphen;
rightKerningGroup = hyphen;
unicode = 2013;
},
{
glyphname = hyphen;
layers = (
{
layerId = "083AB92F-A21B-420A-A5F3-096AB5C32ED3";
name = Regular;
paths = (
{
closed = 1;
nodes = (
"323 832 LINE",
"262 828 OFFCURVE",
"96 575 OFFCURVE",
"96 554 CURVE SMOOTH",
"96 531 OFFCURVE",
"135 526 OFFCURVE",
"215 526 CURVE SMOOTH",
"316 526 OFFCURVE",
"570 531 OFFCURVE",
"810 536 CURVE",
"850 536 OFFCURVE",
"855 547 OFFCURVE",
"865 570 CURVE SMOOTH",
"918 692 OFFCURVE",
"972 804 OFFCURVE",
"972 827 CURVE SMOOTH",
"972 850 OFFCURVE",
"955 856 OFFCURVE",
"944 856 CURVE SMOOTH",
"645 845 LINE"
);
}
);
width = 958;
}
);
leftKerningGroup = hyphen;
rightKerningGroup = hyphen;
unicode = 002D;
},
{
glyphname = guillemotleft;
layers = (
{
layerId = "083AB92F-A21B-420A-A5F3-096AB5C32ED3";
name = Regular;
paths = (
{
closed = 1;
nodes = (
"1004 324 CURVE SMOOTH",
"938 359 OFFCURVE",
"601 531 OFFCURVE",
"558 555 CURVE",
"1004 717 LINE",
"1012 718 OFFCURVE",
"1017 724 OFFCURVE",
"1017 740 CURVE",
"996 840 OFFCURVE",
"995 958 OFFCURVE",
"992 1061 CURVE",
"990 1072 OFFCURVE",
"985 1077 OFFCURVE",
"976 1077 CURVE SMOOTH",
"967 1077 OFFCURVE",
"952 1074 OFFCURVE",
"931 1068 CURVE",
"647 960 OFFCURVE",
"258 825 OFFCURVE",
"122 761 CURVE",
"118 761 OFFCURVE",
"111 756 OFFCURVE",
"110 749 CURVE SMOOTH",
"108 742 LINE",
"108 741 OFFCURVE",
"109 740 OFFCURVE",
"109 737 CURVE SMOOTH",
"117 625 OFFCURVE",
"116 522 OFFCURVE",
"116 421 CURVE SMOOTH",
"116 394 OFFCURVE",
"125 386 OFFCURVE",
"168 365 CURVE",
"808 -17 LINE",
"827 -25 OFFCURVE",
"835 -29 OFFCURVE",
"846 -29 CURVE SMOOTH",
"859 -29 OFFCURVE",
"867 -23 OFFCURVE",
"872 -10 CURVE SMOOTH",
"915 93 OFFCURVE",
"950 201 OFFCURVE",
"1009 301 CURVE",
"1011 306 OFFCURVE",
"1012 310 OFFCURVE",
"1012 313 CURVE SMOOTH",
"1012 317 OFFCURVE",
"1009 321 OFFCURVE"
);
},
{
closed = 1;
nodes = (
"1994 324 CURVE SMOOTH",
"1928 359 OFFCURVE",
"1591 531 OFFCURVE",
"1548 555 CURVE",
"1994 717 LINE",
"2002 718 OFFCURVE",
"2007 724 OFFCURVE",
"2007 740 CURVE",
"1986 840 OFFCURVE",
"1985 958 OFFCURVE",
"1982 1061 CURVE",
"1980 1072 OFFCURVE",
"1975 1077 OFFCURVE",
"1966 1077 CURVE SMOOTH",
"1957 1077 OFFCURVE",
"1942 1074 OFFCURVE",
"1921 1068 CURVE",
"1637 960 OFFCURVE",
"1248 825 OFFCURVE",
"1112 761 CURVE",
"1108 761 OFFCURVE",
"1101 756 OFFCURVE",
"1100 749 CURVE SMOOTH",
"1098 742 LINE",
"1098 741 OFFCURVE",
"1099 740 OFFCURVE",
"1099 737 CURVE SMOOTH",
"1107 625 OFFCURVE",
"1106 522 OFFCURVE",
"1106 421 CURVE SMOOTH",
"1106 394 OFFCURVE",
"1115 386 OFFCURVE",
"1158 365 CURVE",
"1798 -17 LINE",
"1817 -25 OFFCURVE",
"1825 -29 OFFCURVE",
"1836 -29 CURVE SMOOTH",
"1849 -29 OFFCURVE",
"1857 -23 OFFCURVE",
"1862 -10 CURVE SMOOTH",
"1905 93 OFFCURVE",
"1940 201 OFFCURVE",
"1999 301 CURVE",
"2001 306 OFFCURVE",
"2002 310 OFFCURVE",
"2002 313 CURVE SMOOTH",
"2002 317 OFFCURVE",
"1999 321 OFFCURVE"
);
}
);
width = 2032;
}
);
leftKerningGroup = guillemotleft;
rightKerningGroup = guillemotleft;
unicode = 00AB;
},
{
glyphname = guillemotright;
layers = (
{
layerId = "083AB92F-A21B-420A-A5F3-096AB5C32ED3";
name = Regular;
paths = (
{
closed = 1;
nodes = (
"1113 324 CURVE SMOOTH",
"1106 321 OFFCURVE",
"1105 318 OFFCURVE",
"1105 313 CURVE SMOOTH",
"1105 309 OFFCURVE",
"1106 305 OFFCURVE",
"1107 301 CURVE",
"1159 201 OFFCURVE",
"1193 94 OFFCURVE",
"1232 -10 CURVE SMOOTH",
"1237 -23 OFFCURVE",
"1242 -29 OFFCURVE",
"1257 -29 CURVE SMOOTH",
"1268 -29 OFFCURVE",
"1276 -25 OFFCURVE",
"1295 -17 CURVE",
"1951 365 LINE",
"1994 386 OFFCURVE",
"2005 394 OFFCURVE",
"2005 421 CURVE",
"2009 522 OFFCURVE",
"2013 625 OFFCURVE",
"2025 737 CURVE SMOOTH",
"2025 740 OFFCURVE",
"2026 741 OFFCURVE",
"2026 742 CURVE",
"2025 749 LINE SMOOTH",
"2024 756 OFFCURVE",
"2017 761 OFFCURVE",
"2013 761 CURVE",
"1880 825 OFFCURVE",
"1497 960 OFFCURVE",
"1217 1068 CURVE",
"1196 1074 OFFCURVE",
"1181 1077 OFFCURVE",
"1172 1077 CURVE SMOOTH",
"1163 1077 OFFCURVE",
"1158 1072 OFFCURVE",
"1156 1061 CURVE",
"1148 958 OFFCURVE",
"1141 840 OFFCURVE",
"1117 740 CURVE",
"1117 725 OFFCURVE",
"1121 718 OFFCURVE",
"1129 717 CURVE",
"1569 555 LINE",
"1524 531 OFFCURVE",
"1182 360 OFFCURVE"
);
},
{
closed = 1;
nodes = (
"123 324 CURVE SMOOTH",
"116 321 OFFCURVE",
"115 318 OFFCURVE",
"115 313 CURVE SMOOTH",
"115 309 OFFCURVE",
"116 305 OFFCURVE",
"117 301 CURVE",
"169 201 OFFCURVE",
"203 94 OFFCURVE",
"242 -10 CURVE SMOOTH",
"247 -23 OFFCURVE",
"252 -29 OFFCURVE",
"267 -29 CURVE SMOOTH",
"278 -29 OFFCURVE",
"286 -25 OFFCURVE",
"305 -17 CURVE",
"961 365 LINE",
"1004 386 OFFCURVE",
"1015 394 OFFCURVE",
"1015 421 CURVE",
"1019 522 OFFCURVE",
"1023 625 OFFCURVE",
"1035 737 CURVE SMOOTH",
"1035 740 OFFCURVE",
"1036 741 OFFCURVE",
"1036 742 CURVE",
"1035 749 LINE SMOOTH",
"1034 756 OFFCURVE",
"1027 761 OFFCURVE",
"1023 761 CURVE",
"890 825 OFFCURVE",
"507 960 OFFCURVE",
"227 1068 CURVE",
"206 1074 OFFCURVE",
"191 1077 OFFCURVE",
"182 1077 CURVE SMOOTH",
"173 1077 OFFCURVE",
"168 1072 OFFCURVE",
"166 1061 CURVE",
"158 958 OFFCURVE",
"151 840 OFFCURVE",
"127 740 CURVE",
"127 725 OFFCURVE",
"131 718 OFFCURVE",
"139 717 CURVE",
"579 555 LINE",
"534 531 OFFCURVE",
"192 360 OFFCURVE"
);
}
);
width = 2011;
}
);
leftKerningGroup = guillemotright;
rightKerningGroup = guillemotright;
unicode = 00BB;
},
{
glyphname = guilsinglleft;
layers = (
{
layerId = "083AB92F-A21B-420A-A5F3-096AB5C32ED3";
name = Regular;
paths = (
{
closed = 1;
nodes = (
"1016 324 CURVE SMOOTH",
"947 360 OFFCURVE",
"605 531 OFFCURVE",
"560 555 CURVE",
"1000 717 LINE",
"1008 718 OFFCURVE",
"1012 725 OFFCURVE",
"1012 740 CURVE",
"988 840 OFFCURVE",
"981 958 OFFCURVE",
"973 1061 CURVE",
"971 1072 OFFCURVE",
"966 1077 OFFCURVE",
"957 1077 CURVE SMOOTH",
"948 1077 OFFCURVE",
"933 1074 OFFCURVE",
"912 1068 CURVE",
"632 960 OFFCURVE",
"249 825 OFFCURVE",
"116 761 CURVE",
"112 761 OFFCURVE",
"105 756 OFFCURVE",
"104 749 CURVE SMOOTH",
"103 742 LINE",
"103 741 OFFCURVE",
"104 740 OFFCURVE",
"104 737 CURVE SMOOTH",
"116 625 OFFCURVE",
"120 522 OFFCURVE",
"124 421 CURVE",
"124 394 OFFCURVE",
"135 386 OFFCURVE",
"178 365 CURVE",
"834 -17 LINE",
"853 -25 OFFCURVE",
"861 -29 OFFCURVE",
"872 -29 CURVE SMOOTH",
"884 -29 OFFCURVE",
"892 -23 OFFCURVE",
"897 -10 CURVE SMOOTH",
"934 94 OFFCURVE",
"966 201 OFFCURVE",
"1022 301 CURVE",
"1023 305 OFFCURVE",
"1024 309 OFFCURVE",
"1024 313 CURVE SMOOTH",
"1024 317 OFFCURVE",
"1021 321 OFFCURVE"
);
}
);
width = 1050;
}
);
leftKerningGroup = guillemotleft;
rightKerningGroup = guillemotleft;
unicode = 2039;
},
{
glyphname = guilsinglright;
layers = (
{
layerId = "083AB92F-A21B-420A-A5F3-096AB5C32ED3";
name = Regular;
paths = (
{
closed = 1;
nodes = (
"123 324 CURVE SMOOTH",
"116 321 OFFCURVE",
"115 318 OFFCURVE",
"115 313 CURVE SMOOTH",
"115 309 OFFCURVE",
"116 305 OFFCURVE",
"117 301 CURVE",
"169 201 OFFCURVE",
"203 94 OFFCURVE",
"242 -10 CURVE SMOOTH",
"247 -23 OFFCURVE",
"252 -29 OFFCURVE",
"267 -29 CURVE SMOOTH",
"278 -29 OFFCURVE",
"286 -25 OFFCURVE",
"305 -17 CURVE",
"961 365 LINE",
"1004 386 OFFCURVE",
"1015 394 OFFCURVE",
"1015 421 CURVE",
"1019 522 OFFCURVE",
"1023 625 OFFCURVE",
"1035 737 CURVE SMOOTH",
"1035 740 OFFCURVE",
"1036 741 OFFCURVE",
"1036 742 CURVE",
"1035 749 LINE SMOOTH",
"1034 756 OFFCURVE",
"1027 761 OFFCURVE",
"1023 761 CURVE",
"890 825 OFFCURVE",
"507 960 OFFCURVE",
"227 1068 CURVE",
"206 1074 OFFCURVE",
"191 1077 OFFCURVE",
"182 1077 CURVE SMOOTH",
"173 1077 OFFCURVE",
"168 1072 OFFCURVE",
"166 1061 CURVE",
"158 958 OFFCURVE",
"151 840 OFFCURVE",
"127 740 CURVE",
"127 725 OFFCURVE",
"131 718 OFFCURVE",
"139 717 CURVE",
"579 555 LINE",
"534 531 OFFCURVE",
"192 360 OFFCURVE"
);
}
);
width = 1021;
}
);
leftKerningGroup = guillemotright;
rightKerningGroup = guillemotright;
unicode = 203A;
},
{
glyphname = quotedblbase;
layers = (
{
layerId = "083AB92F-A21B-420A-A5F3-096AB5C32ED3";
name = Regular;
paths = (
{
closed = 1;
nodes = (
"-23 -332 CURVE SMOOTH",
"-19 -334 OFFCURVE",
"-15 -335 OFFCURVE",
"-12 -335 CURVE SMOOTH",
"7 -335 OFFCURVE",
"26 -305 OFFCURVE",
"33 -295 CURVE SMOOTH",
"50 -270 OFFCURVE",
"182 -101 OFFCURVE",
"206 -44 CURVE",
"219 -1 OFFCURVE",
"223 13 OFFCURVE",
"231 74 CURVE",
"249 318 LINE",
"249 334 OFFCURVE",
"243 342 OFFCURVE",
"232 342 CURVE SMOOTH",
"115 342 OFFCURVE",
"-25 340 OFFCURVE",
"-147 340 CURVE",
"-171 337 OFFCURVE",
"-173 323 OFFCURVE",
"-176 279 CURVE SMOOTH",
"-197 17 OFFCURVE",
"-180 210 OFFCURVE",
"-201 -18 CURVE SMOOTH",
"-201 -20 LINE SMOOTH",
"-201 -29 OFFCURVE",
"-188 -30 OFFCURVE",
"-169 -30 CURVE SMOOTH",
"-66 -31 LINE",
"-105 -99 OFFCURVE",
"-148 -166 OFFCURVE",
"-187 -226 CURVE SMOOTH",
"-189 -229 OFFCURVE",
"-190 -232 OFFCURVE",
"-190 -234 CURVE SMOOTH",
"-190 -242 OFFCURVE",
"-179 -251 OFFCURVE",
"-158 -262 CURVE SMOOTH",
"-43 -326 OFFCURVE",
"-52 -316 OFFCURVE"
);
},
{
closed = 1;
nodes = (
"1109 -332 CURVE SMOOTH",
"1113 -334 OFFCURVE",
"1117 -335 OFFCURVE",
"1120 -335 CURVE SMOOTH",
"1139 -335 OFFCURVE",
"1158 -305 OFFCURVE",
"1165 -295 CURVE SMOOTH",
"1182 -270 OFFCURVE",
"1314 -101 OFFCURVE",
"1338 -44 CURVE",
"1351 -1 OFFCURVE",
"1355 13 OFFCURVE",
"1363 74 CURVE",
"1381 318 LINE",
"1381 334 OFFCURVE",
"1375 342 OFFCURVE",
"1364 342 CURVE SMOOTH",
"1247 342 OFFCURVE",
"1107 340 OFFCURVE",
"985 340 CURVE",
"961 337 OFFCURVE",
"959 323 OFFCURVE",
"956 279 CURVE SMOOTH",
"935 17 OFFCURVE",
"952 210 OFFCURVE",
"931 -18 CURVE SMOOTH",
"931 -20 LINE SMOOTH",
"931 -29 OFFCURVE",
"944 -30 OFFCURVE",
"963 -30 CURVE SMOOTH",
"1066 -31 LINE",
"1027 -99 OFFCURVE",
"984 -166 OFFCURVE",
"945 -226 CURVE SMOOTH",
"943 -229 OFFCURVE",
"942 -232 OFFCURVE",
"942 -234 CURVE SMOOTH",
"942 -242 OFFCURVE",
"953 -251 OFFCURVE",
"974 -262 CURVE SMOOTH",
"1089 -326 OFFCURVE",
"1080 -316 OFFCURVE"
);
}
);
width = 1152;
}
);
leftKerningGroup = quotesinglbase;
rightKerningGroup = quotesinglbase;
unicode = 201E;
},
{
glyphname = quotedblleft;
layers = (
{
layerId = "083AB92F-A21B-420A-A5F3-096AB5C32ED3";
name = Regular;
paths = (
{
closed = 1;
nodes = (
"608 1485 CURVE SMOOTH",
"454 1572 OFFCURVE",
"483 1549 OFFCURVE",
"446 1577 CURVE SMOOTH",
"445 1578 LINE",
"432 1549 OFFCURVE",
"272 1399 OFFCURVE",
"219 1261 CURVE SMOOTH",
"211 1240 OFFCURVE",
"206 1222 OFFCURVE",
"199 1175 CURVE",
"176 922 LINE",
"176 902 OFFCURVE",
"193 897 OFFCURVE",
"211 897 CURVE SMOOTH",
"326 897 OFFCURVE",
"461 903 OFFCURVE",
"576 903 CURVE SMOOTH",
"577 903 OFFCURVE",
"578 902 OFFCURVE",
"580 902 CURVE SMOOTH",
"630 902 OFFCURVE",
"638 1199 OFFCURVE",
"643 1273 CURVE",
"633 1279 OFFCURVE",
"600 1280 OFFCURVE",
"567 1280 CURVE SMOOTH",
"512 1280 LINE",
"556 1346 OFFCURVE",
"604 1414 OFFCURVE",
"622 1473 CURVE",
"618 1477 OFFCURVE",
"614 1481 OFFCURVE"
);
},
{
closed = 1;
nodes = (
"1139 1485 LINE",
"984 1572 OFFCURVE",
"1014 1549 OFFCURVE",
"977 1577 CURVE",
"977 1577 OFFCURVE",
"976 1578 OFFCURVE",
"975 1578 CURVE",
"964 1550 OFFCURVE",
"804 1400 OFFCURVE",
"750 1261 CURVE SMOOTH",
"742 1240 OFFCURVE",
"736 1222 OFFCURVE",
"730 1175 CURVE",
"713 982 LINE",
"706 922 LINE",
"706 901 OFFCURVE",
"724 897 OFFCURVE",
"741 897 CURVE SMOOTH",
"855 897 OFFCURVE",
"991 903 OFFCURVE",
"1107 903 CURVE SMOOTH",
"1108 903 OFFCURVE",
"1109 902 OFFCURVE",
"1111 902 CURVE SMOOTH",
"1161 902 OFFCURVE",
"1169 1199 OFFCURVE",
"1174 1273 CURVE",
"1164 1279 OFFCURVE",
"1131 1280 OFFCURVE",
"1097 1280 CURVE SMOOTH",
"1042 1280 LINE",
"1087 1346 OFFCURVE",
"1134 1414 OFFCURVE",
"1153 1473 CURVE"
);
},
{
closed = 1;
nodes = (
"622 1473 CURVE",
"624 1480 OFFCURVE",
"626 1486 OFFCURVE",
"627 1493 CURVE",
"629 1483 OFFCURVE",
"630 1472 OFFCURVE",
"631 1461 CURVE",
"629 1465 OFFCURVE",
"626 1469 OFFCURVE"
);
},
{
closed = 1;
nodes = (
"1153 1473 CURVE",
"1158 1493 LINE",
"1159 1483 OFFCURVE",
"1161 1472 OFFCURVE",
"1161 1461 CURVE",
"1160 1465 OFFCURVE",
"1157 1469 OFFCURVE"
);
},
{
closed = 1;
nodes = (
"645 1287 CURVE",
"645 1272 LINE",
"644 1272 OFFCURVE",
"644 1273 OFFCURVE",
"643 1273 CURVE",
"644 1279 OFFCURVE",
"644 1284 OFFCURVE"
);
},
{
closed = 1;
nodes = (
"1176 1287 CURVE",
"1176 1272 LINE",
"1175 1272 OFFCURVE",
"1175 1273 OFFCURVE",
"1174 1273 CURVE",
"1175 1279 OFFCURVE",
"1175 1284 OFFCURVE"
);
},
{
closed = 1;
nodes = (
"442 1583 CURVE",
"444 1583 LINE",
"445 1583 OFFCURVE",
"446 1582 OFFCURVE",
"446 1581 CURVE SMOOTH",
"446 1580 OFFCURVE",
"446 1579 OFFCURVE",
"445 1578 CURVE",
"444 1579 OFFCURVE",
"441 1581 OFFCURVE",
"441 1582 CURVE SMOOTH",
"441 1582 OFFCURVE",
"441 1583 OFFCURVE"
);
},
{
closed = 1;
nodes = (
"972 1583 LINE",
"974 1583 LINE",
"975 1583 OFFCURVE",
"976 1582 OFFCURVE",
"976 1581 CURVE SMOOTH",
"976 1580 OFFCURVE",
"976 1579 OFFCURVE",
"975 1578 CURVE",
"973 1580 OFFCURVE",
"972 1581 OFFCURVE",
"972 1582 CURVE"
);
},
{
closed = 1;
nodes = (
"1162 1448 CURVE",
"1163 1449 OFFCURVE",
"1163 1451 OFFCURVE",
"1163 1453 CURVE SMOOTH",
"1163 1455 OFFCURVE",
"1163 1458 OFFCURVE",
"1161 1461 CURVE",
"1162 1457 OFFCURVE",
"1162 1452 OFFCURVE"
);
},
{
closed = 1;
nodes = (
"631 1448 LINE",
"632 1450 OFFCURVE",
"632 1452 OFFCURVE",
"632 1454 CURVE SMOOTH",
"632 1456 OFFCURVE",
"632 1458 OFFCURVE",
"631 1461 CURVE"
);
},
{
closed = 1;
nodes = (
"645 1272 CURVE",
"645 1266 LINE",
"645 1267 OFFCURVE",
"646 1268 OFFCURVE",
"646 1269 CURVE SMOOTH",
"646 1270 OFFCURVE",
"645 1271 OFFCURVE"
);
},
{
closed = 1;
nodes = (
"1176 1272 CURVE",
"1176 1266 LINE",
"1176 1267 OFFCURVE",
"1177 1268 OFFCURVE",
"1177 1269 CURVE SMOOTH",
"1177 1270 OFFCURVE",
"1176 1271 OFFCURVE"
);
}
);
width = 1103;
}
);
leftKerningGroup = quoteleft;
rightKerningGroup = quoteleft;
unicode = 201C;
},
{
glyphname = quotedblright;
layers = (
{
layerId = "083AB92F-A21B-420A-A5F3-096AB5C32ED3";
name = Regular;
paths = (
{
closed = 1;
nodes = (
"213 861 CURVE SMOOTH",
"351 780 OFFCURVE",
"351 767 OFFCURVE",
"376 764 CURVE",
"376 765 LINE",
"376 784 OFFCURVE",
"548 944 OFFCURVE",
"603 1086 CURVE SMOOTH",
"611 1106 OFFCURVE",
"616 1124 OFFCURVE",
"623 1171 CURVE",
"646 1424 LINE",
"646 1444 OFFCURVE",
"628 1449 OFFCURVE",
"610 1449 CURVE SMOOTH",
"496 1449 OFFCURVE",
"361 1443 OFFCURVE",
"245 1443 CURVE SMOOTH",
"241 1443 LINE SMOOTH",
"189 1443 OFFCURVE",
"183 1147 OFFCURVE",
"177 1073 CURVE",
"185 1067 OFFCURVE",
"209 1066 OFFCURVE",
"236 1066 CURVE SMOOTH",
"261 1066 OFFCURVE",
"288 1067 OFFCURVE",
"310 1067 CURVE",
"265 999 OFFCURVE",
"217 932 OFFCURVE",
"199 873 CURVE",
"202 869 OFFCURVE",
"207 865 OFFCURVE"
);
},
{
closed = 1;
nodes = (
"739 861 CURVE SMOOTH",
"877 780 OFFCURVE",
"877 767 OFFCURVE",
"902 764 CURVE",
"902 765 LINE",
"902 784 OFFCURVE",
"1074 944 OFFCURVE",
"1129 1086 CURVE SMOOTH",
"1137 1106 OFFCURVE",
"1142 1124 OFFCURVE",
"1149 1171 CURVE",
"1166 1364 LINE SMOOTH",
"1168 1384 OFFCURVE",
"1172 1405 OFFCURVE",
"1172 1424 CURVE SMOOTH",
"1172 1444 OFFCURVE",
"1155 1449 OFFCURVE",
"1137 1449 CURVE SMOOTH",
"1022 1449 OFFCURVE",
"888 1443 OFFCURVE",
"772 1443 CURVE SMOOTH",
"768 1443 LINE SMOOTH",
"715 1443 OFFCURVE",
"710 1147 OFFCURVE",
"704 1073 CURVE",
"712 1067 OFFCURVE",
"735 1066 OFFCURVE",
"763 1066 CURVE SMOOTH",
"787 1066 OFFCURVE",
"815 1067 OFFCURVE",
"836 1067 CURVE",
"791 999 OFFCURVE",
"744 932 OFFCURVE",
"726 872 CURVE",
"729 869 OFFCURVE",
"733 865 OFFCURVE"
);
},
{
closed = 1;
nodes = (
"726 872 CURVE",
"724 866 OFFCURVE",
"722 859 OFFCURVE",
"721 853 CURVE",
"719 863 OFFCURVE",
"717 873 OFFCURVE",
"717 883 CURVE",
"719 879 OFFCURVE",
"722 876 OFFCURVE"
);
},
{
closed = 1;
nodes = (
"199 873 CURVE",
"194 853 LINE",
"192 863 OFFCURVE",
"191 873 OFFCURVE",
"191 883 CURVE",
"192 880 OFFCURVE",
"195 876 OFFCURVE"
);
},
{
closed = 1;
nodes = (
"717 898 LINE",
"715 896 OFFCURVE",
"715 893 OFFCURVE",
"715 891 CURVE SMOOTH",
"715 888 OFFCURVE",
"715 885 OFFCURVE",
"717 883 CURVE"
);
},
{
closed = 1;
nodes = (
"191 898 LINE",
"189 896 OFFCURVE",
"189 894 OFFCURVE",
"189 891 CURVE SMOOTH",
"189 889 OFFCURVE",
"189 886 OFFCURVE",
"191 883 CURVE"
);
},
{
closed = 1;
nodes = (
"176 1074 LINE",
"177 1073 LINE",
"177 1068 OFFCURVE",
"176 1064 OFFCURVE",
"176 1062 CURVE SMOOTH"
);
},
{
closed = 1;
nodes = (
"703 1074 LINE",
"704 1073 LINE",
"704 1068 OFFCURVE",
"703 1064 OFFCURVE",
"703 1062 CURVE SMOOTH"
);
},
{
closed = 1;
nodes = (
"176 1081 LINE",
"175 1079 OFFCURVE",
"174 1078 OFFCURVE",
"174 1077 CURVE SMOOTH",
"174 1076 OFFCURVE",
"175 1075 OFFCURVE",
"176 1074 CURVE"
);
},
{
closed = 1;
nodes = (
"703 1081 LINE",
"702 1079 OFFCURVE",
"701 1078 OFFCURVE",
"701 1077 CURVE SMOOTH",
"701 1076 OFFCURVE",
"702 1075 OFFCURVE",
"703 1074 CURVE"
);
},
{
closed = 1;
nodes = (
"380 764 LINE",
"379 763 OFFCURVE",
"378 763 OFFCURVE",
"377 763 CURVE SMOOTH",
"376 763 OFFCURVE",
"376 763 OFFCURVE",
"376 764 CURVE"
);
},
{
closed = 1;
nodes = (
"906 764 LINE",
"905 763 OFFCURVE",
"904 763 OFFCURVE",
"903 763 CURVE SMOOTH",
"902 763 OFFCURVE",
"902 763 OFFCURVE",
"902 764 CURVE"
);
}
);
width = 1064;
}
);
leftKerningGroup = quoteright;
rightKerningGroup = quoteright;
unicode = 201D;
},
{
glyphname = quoteleft;
layers = (
{
layerId = "083AB92F-A21B-420A-A5F3-096AB5C32ED3";
name = Regular;
paths = (
{
closed = 1;
nodes = (
"613 1485 CURVE SMOOTH",
"459 1572 OFFCURVE",
"489 1549 OFFCURVE",
"452 1577 CURVE",
"452 1577 OFFCURVE",
"451 1578 OFFCURVE",
"450 1578 CURVE",
"439 1550 OFFCURVE",
"277 1400 OFFCURVE",
"224 1261 CURVE SMOOTH",
"216 1240 OFFCURVE",
"211 1222 OFFCURVE",
"204 1175 CURVE",
"181 922 LINE",
"181 902 OFFCURVE",
"198 897 OFFCURVE",
"216 897 CURVE SMOOTH",
"331 897 OFFCURVE",
"466 903 OFFCURVE",
"581 903 CURVE SMOOTH",
"582 903 OFFCURVE",
"583 902 OFFCURVE",
"585 902 CURVE SMOOTH",
"635 902 OFFCURVE",
"643 1199 OFFCURVE",
"648 1273 CURVE",
"638 1279 OFFCURVE",
"605 1280 OFFCURVE",
"572 1280 CURVE SMOOTH",
"517 1280 LINE",
"562 1346 OFFCURVE",
"609 1414 OFFCURVE",
"627 1473 CURVE",
"623 1477 OFFCURVE",
"619 1481 OFFCURVE"
);
},
{
closed = 1;
nodes = (
"627 1473 CURVE",
"629 1480 OFFCURVE",
"631 1486 OFFCURVE",
"632 1493 CURVE",
"634 1483 OFFCURVE",
"635 1472 OFFCURVE",
"636 1461 CURVE",
"634 1465 OFFCURVE",
"631 1469 OFFCURVE"
);
},
{
closed = 1;
nodes = (
"650 1287 CURVE",
"650 1272 LINE",
"649 1272 OFFCURVE",
"649 1273 OFFCURVE",
"648 1273 CURVE",
"649 1279 OFFCURVE",
"649 1284 OFFCURVE"
);
},
{
closed = 1;
nodes = (
"447 1583 LINE",
"449 1583 LINE",
"450 1583 OFFCURVE",
"451 1582 OFFCURVE",
"451 1581 CURVE SMOOTH",
"451 1580 OFFCURVE",
"451 1579 OFFCURVE",
"450 1578 CURVE",
"448 1580 OFFCURVE",
"447 1581 OFFCURVE",
"447 1582 CURVE"
);
},
{
closed = 1;
nodes = (
"636 1448 LINE",
"637 1450 OFFCURVE",
"637 1452 OFFCURVE",
"637 1454 CURVE SMOOTH",
"637 1456 OFFCURVE",
"637 1458 OFFCURVE",
"636 1461 CURVE"
);
},
{
closed = 1;
nodes = (
"650 1272 CURVE",
"650 1266 LINE",
"650 1267 OFFCURVE",
"651 1268 OFFCURVE",
"651 1269 CURVE SMOOTH",
"651 1270 OFFCURVE",
"650 1271 OFFCURVE"
);
}
);
width = 578;
}
);
leftKerningGroup = quoteleft;
rightKerningGroup = quoteleft;
unicode = 2018;
},
{
glyphname = quoteright;
layers = (
{
layerId = "083AB92F-A21B-420A-A5F3-096AB5C32ED3";
name = Regular;
paths = (
{
closed = 1;
nodes = (
"213 861 CURVE SMOOTH",
"351 780 OFFCURVE",
"351 767 OFFCURVE",
"376 764 CURVE",
"376 765 LINE",
"376 784 OFFCURVE",
"548 944 OFFCURVE",
"603 1086 CURVE SMOOTH",
"611 1106 OFFCURVE",
"616 1124 OFFCURVE",
"623 1171 CURVE",
"646 1424 LINE",
"646 1444 OFFCURVE",
"628 1449 OFFCURVE",
"610 1449 CURVE SMOOTH",
"496 1449 OFFCURVE",
"361 1443 OFFCURVE",
"245 1443 CURVE SMOOTH",
"241 1443 LINE SMOOTH",
"189 1443 OFFCURVE",
"183 1147 OFFCURVE",
"177 1073 CURVE",
"185 1067 OFFCURVE",
"209 1066 OFFCURVE",
"236 1066 CURVE SMOOTH",
"261 1066 OFFCURVE",
"288 1067 OFFCURVE",
"310 1067 CURVE",
"265 999 OFFCURVE",
"217 932 OFFCURVE",
"199 873 CURVE",
"202 869 OFFCURVE",
"207 865 OFFCURVE"
);
},
{
closed = 1;
nodes = (
"199 873 CURVE",
"194 853 LINE",
"192 863 OFFCURVE",
"191 873 OFFCURVE",
"191 883 CURVE",
"192 880 OFFCURVE",
"195 876 OFFCURVE"
);
},
{
closed = 1;
nodes = (
"191 898 LINE",
"189 896 OFFCURVE",
"189 894 OFFCURVE",
"189 891 CURVE SMOOTH",
"189 889 OFFCURVE",
"189 886 OFFCURVE",
"191 883 CURVE"
);
},
{
closed = 1;
nodes = (
"176 1074 LINE",
"177 1073 LINE",
"177 1068 OFFCURVE",
"176 1064 OFFCURVE",
"176 1062 CURVE SMOOTH"
);
},
{
closed = 1;
nodes = (
"176 1081 LINE",
"175 1079 OFFCURVE",
"174 1078 OFFCURVE",
"174 1077 CURVE SMOOTH",
"174 1076 OFFCURVE",
"175 1075 OFFCURVE",
"176 1074 CURVE"
);
},
{
closed = 1;
nodes = (
"380 764 LINE",
"379 763 OFFCURVE",
"378 763 OFFCURVE",
"377 763 CURVE SMOOTH",
"376 763 OFFCURVE",
"376 763 OFFCURVE",
"376 764 CURVE"
);
}
);
width = 543;
}
);
leftKerningGroup = quoteright;
rightKerningGroup = quoteright;
unicode = 2019;
},
{
glyphname = quotesinglbase;
layers = (
{
layerId = "083AB92F-A21B-420A-A5F3-096AB5C32ED3";
name = Regular;
paths = (
{
closed = 1;
nodes = (
"260 -332 CURVE SMOOTH",
"264 -334 OFFCURVE",
"268 -335 OFFCURVE",
"271 -335 CURVE SMOOTH",
"290 -335 OFFCURVE",
"309 -305 OFFCURVE",
"316 -295 CURVE SMOOTH",
"333 -270 OFFCURVE",
"465 -101 OFFCURVE",
"489 -44 CURVE",
"502 -1 OFFCURVE",
"506 13 OFFCURVE",
"514 74 CURVE",
"532 318 LINE",
"532 334 OFFCURVE",
"526 342 OFFCURVE",
"515 342 CURVE SMOOTH",
"398 342 OFFCURVE",
"258 340 OFFCURVE",
"136 340 CURVE",
"112 337 OFFCURVE",
"110 323 OFFCURVE",
"107 279 CURVE SMOOTH",
"86 17 OFFCURVE",
"103 210 OFFCURVE",
"82 -18 CURVE SMOOTH",
"82 -20 LINE SMOOTH",
"82 -29 OFFCURVE",
"95 -30 OFFCURVE",
"114 -30 CURVE SMOOTH",
"217 -31 LINE",
"178 -99 OFFCURVE",
"135 -166 OFFCURVE",
"96 -226 CURVE SMOOTH",
"94 -229 OFFCURVE",
"93 -232 OFFCURVE",
"93 -234 CURVE SMOOTH",
"93 -242 OFFCURVE",
"104 -251 OFFCURVE",
"125 -262 CURVE SMOOTH",
"240 -326 OFFCURVE",
"231 -316 OFFCURVE"
);
}
);
width = 587;
}
);
leftKerningGroup = quotesinglbase;
rightKerningGroup = quotesinglbase;
unicode = 201A;
},
{
glyphname = florin;
layers = (
{
layerId = "083AB92F-A21B-420A-A5F3-096AB5C32ED3";
name = Regular;
paths = (
{
closed = 1;
nodes = (
"263 282 CURVE SMOOTH",
"247 162 OFFCURVE",
"245 -58 OFFCURVE",
"101 -58 CURVE SMOOTH",
"56 -58 OFFCURVE",
"8 -42 OFFCURVE",
"-39 -23 CURVE",
"-54 -23 OFFCURVE",
"-64 -24 OFFCURVE",
"-72 -13 CURVE",
"-101 -13 OFFCURVE",
"-95 -56 OFFCURVE",
"-175 -214 CURVE SMOOTH",
"-180 -223 OFFCURVE",
"-182 -230 OFFCURVE",
"-182 -235 CURVE SMOOTH",
"-182 -271 OFFCURVE",
"99 -347 OFFCURVE",
"177 -347 CURVE SMOOTH",
"460 -347 OFFCURVE",
"584 -196 OFFCURVE",
"627 120 CURVE SMOOTH",
"659 357 OFFCURVE",
"680 568 OFFCURVE",
"705 771 CURVE",
"878 771 LINE",
"909 774 OFFCURVE",
"914 782 OFFCURVE",
"923 802 CURVE SMOOTH",
"959 883 LINE SMOOTH",
"989 950 OFFCURVE",
"1004 993 OFFCURVE",
"1005 1000 CURVE",
"1005 1017 OFFCURVE",
"993 1024 OFFCURVE",
"982 1024 CURVE SMOOTH",
"721 1024 LINE",
"729 1092 OFFCURVE",
"736 1164 OFFCURVE",
"751 1224 CURVE SMOOTH",
"776 1328 OFFCURVE",
"820 1358 OFFCURVE",
"880 1358 CURVE SMOOTH",
"923 1358 OFFCURVE",
"971 1341 OFFCURVE",
"1018 1324 CURVE SMOOTH",
"1033 1318 OFFCURVE",
"1039 1314 OFFCURVE",
"1047 1314 CURVE SMOOTH",
"1079 1314 OFFCURVE",
"1068 1350 OFFCURVE",
"1151 1511 CURVE SMOOTH",
"1156 1520 OFFCURVE",
"1158 1527 OFFCURVE",
"1158 1532 CURVE SMOOTH",
"1158 1567 OFFCURVE",
"882 1642 OFFCURVE",
"805 1642 CURVE SMOOTH",
"533 1642 OFFCURVE",
"398 1492 OFFCURVE",
"363 1183 CURVE",
"343 1024 LINE",
"221 1024 LINE",
"209 1008 OFFCURVE",
"74 806 OFFCURVE",
"74 791 CURVE SMOOTH",
"74 772 OFFCURVE",
"104 768 OFFCURVE",
"176 768 CURVE SMOOTH",
"309 768 LINE",
"280 502 OFFCURVE",
"266 306 OFFCURVE"
);
}
);
width = 918;
}
);
unicode = 0192;
},
{
glyphname = Euro;
layers = (
{
layerId = "083AB92F-A21B-420A-A5F3-096AB5C32ED3";
name = Regular;
paths = (
{
closed = 1;
nodes = (
"789 946 LINE",
"853 1046 OFFCURVE",
"950 1107 OFFCURVE",
"1078 1107 CURVE SMOOTH",
"1243 1107 OFFCURVE",
"1359 990 OFFCURVE",
"1415 974 CURVE SMOOTH",
"1424 972 OFFCURVE",
"1431 971 OFFCURVE",
"1437 971 CURVE SMOOTH",
"1458 971 OFFCURVE",
"1461 984 OFFCURVE",
"1461 992 CURVE SMOOTH",
"1461 1090 OFFCURVE",
"1444 1282 OFFCURVE",
"1444 1323 CURVE SMOOTH",
"1444 1328 OFFCURVE",
"1444 1330 OFFCURVE",
"1445 1330 CURVE SMOOTH",
"1387 1381 OFFCURVE",
"1270 1449 OFFCURVE",
"1036 1449 CURVE SMOOTH",
"703 1449 OFFCURVE",
"431 1247 OFFCURVE",
"319 956 CURVE",
"259 957 OFFCURVE",
"217 957 OFFCURVE",
"198 957 CURVE SMOOTH",
"199 957 OFFCURVE",
"156 957 OFFCURVE",
"137 926 CURVE SMOOTH",
"133 918 OFFCURVE",
"134 891 OFFCURVE",
"133 866 CURVE SMOOTH",
"130 819 LINE",
"127 806 OFFCURVE",
"126 793 OFFCURVE",
"126 782 CURVE SMOOTH",
"126 748 OFFCURVE",
"143 744 OFFCURVE",
"200 744 CURVE SMOOTH",
"218 744 OFFCURVE",
"240 745 OFFCURVE",
"267 745 CURVE",
"264 722 OFFCURVE",
"263 698 OFFCURVE",
"262 674 CURVE",
"223 675 OFFCURVE",
"193 675 OFFCURVE",
"178 675 CURVE SMOOTH",
"179 675 OFFCURVE",
"136 675 OFFCURVE",
"117 644 CURVE",
"106 559 OFFCURVE",
"106 499 OFFCURVE",
"106 495 CURVE SMOOTH",
"106 466 OFFCURVE",
"126 462 OFFCURVE",
"192 462 CURVE SMOOTH",
"216 462 OFFCURVE",
"245 463 OFFCURVE",
"282 463 CURVE",
"354 151 OFFCURVE",
"615 -52 OFFCURVE",
"934 -52 CURVE SMOOTH",
"1074 -52 OFFCURVE",
"1237 -36 OFFCURVE",
"1360 42 CURVE",
"1364 42 OFFCURVE",
"1364 243 OFFCURVE",
"1364 339 CURVE SMOOTH",
"1364 362 OFFCURVE",
"1361 367 OFFCURVE",
"1352 367 CURVE SMOOTH",
"1347 367 OFFCURVE",
"1344 367 OFFCURVE",
"1342 366 CURVE SMOOTH",
"1230 305 OFFCURVE",
"1158 287 OFFCURVE",
"1006 287 CURVE SMOOTH",
"885 287 OFFCURVE",
"801 354 OFFCURVE",
"756 458 CURVE",
"859 458 LINE SMOOTH",
"998 458 OFFCURVE",
"1016 457 OFFCURVE",
"1016 541 CURVE SMOOTH",
"1016 584 OFFCURVE",
"1014 659 OFFCURVE",
"971 659 CURVE",
"716 667 LINE",
"716 692 OFFCURVE",
"717 717 OFFCURVE",
"720 740 CURVE",
"859 740 LINE SMOOTH",
"998 740 OFFCURVE",
"1016 739 OFFCURVE",
"1016 823 CURVE SMOOTH",
"1016 856 OFFCURVE",
"1012 893 OFFCURVE",
"1001 920 CURVE SMOOTH",
"996 931 OFFCURVE",
"1001 940 OFFCURVE",
"971 941 CURVE SMOOTH"
);
}
);
width = 1453;
}
);
unicode = 20AC;
},
{
glyphname = cent;
layers = (
{
layerId = "083AB92F-A21B-420A-A5F3-096AB5C32ED3";
name = Regular;
paths = (
{
closed = 1;
nodes = (
"101 488 CURVE SMOOTH",
"101 176 OFFCURVE",
"304 -48 OFFCURVE",
"579 -83 CURVE",
"576 -127 OFFCURVE",
"569 -173 OFFCURVE",
"569 -222 CURVE SMOOTH",
"569 -245 OFFCURVE",
"577 -252 OFFCURVE",
"588 -252 CURVE SMOOTH",
"663 -252 LINE",
"745 -245 LINE",
"772 -232 OFFCURVE",
"766 -226 OFFCURVE",
"769 -195 CURVE SMOOTH",
"778 -81 LINE",
"858 -72 OFFCURVE",
"932 -53 OFFCURVE",
"996 -10 CURVE",
"1000 -10 OFFCURVE",
"1000 168 OFFCURVE",
"1000 254 CURVE SMOOTH",
"1000 273 OFFCURVE",
"997 278 OFFCURVE",
"990 278 CURVE SMOOTH",
"986 278 OFFCURVE",
"983 278 OFFCURVE",
"982 277 CURVE SMOOTH",
"915 240 OFFCURVE",
"868 223 OFFCURVE",
"803 215 CURVE",
"854 820 LINE",
"949 807 OFFCURVE",
"1013 772 OFFCURVE",
"1039 772 CURVE SMOOTH",
"1056 772 OFFCURVE",
"1058 782 OFFCURVE",
"1058 789 CURVE SMOOTH",
"1058 863 OFFCURVE",
"1087 1012 OFFCURVE",
"1087 1028 CURVE SMOOTH",
"1087 1030 OFFCURVE",
"1025 1090 OFFCURVE",
"879 1116 CURVE",
"892 1264 LINE",
"892 1299 OFFCURVE",
"876 1305 OFFCURVE",
"863 1305 CURVE SMOOTH",
"796 1305 OFFCURVE",
"766 1302 OFFCURVE",
"704 1302 CURVE",
"687 1297 OFFCURVE",
"688 1283 OFFCURVE",
"685 1239 CURVE SMOOTH",
"676 1125 LINE",
"343 1093 OFFCURVE",
"101 822 OFFCURVE"
);
},
{
closed = 1;
nodes = (
"640 647 LINE SMOOTH",
"628 511 OFFCURVE",
"613 349 OFFCURVE",
"606 240 CURVE",
"525 289 OFFCURVE",
"485 389 OFFCURVE",
"485 505 CURVE SMOOTH",
"485 641 OFFCURVE",
"548 752 OFFCURVE",
"653 800 CURVE"
);
}
);
width = 1087;
}
);
unicode = 00A2;
},
{
glyphname = currency;
layers = (
{
layerId = "083AB92F-A21B-420A-A5F3-096AB5C32ED3";
name = Regular;
paths = (
{
closed = 1;
nodes = (
"175 819 CURVE SMOOTH",
"175 707 OFFCURVE",
"207 602 OFFCURVE",
"271 518 CURVE",
"227 468 LINE SMOOTH",
"216 456 OFFCURVE",
"211 442 OFFCURVE",
"211 430 CURVE SMOOTH",
"211 399 OFFCURVE",
"319 311 OFFCURVE",
"334 303 CURVE",
"337 300 OFFCURVE",
"341 298 OFFCURVE",
"346 298 CURVE SMOOTH",
"364 299 OFFCURVE",
"394 322 OFFCURVE",
"435 366 CURVE SMOOTH",
"448 380 LINE",
"512 353 OFFCURVE",
"580 338 OFFCURVE",
"664 338 CURVE SMOOTH",
"777 338 OFFCURVE",
"876 361 OFFCURVE",
"963 408 CURVE",
"1032 335 OFFCURVE",
"1070 298 OFFCURVE",
"1093 298 CURVE SMOOTH",
"1095 298 OFFCURVE",
"1171 348 OFFCURVE",
"1221 409 CURVE SMOOTH",
"1226 414 OFFCURVE",
"1228 421 OFFCURVE",
"1228 430 CURVE SMOOTH",
"1228 442 OFFCURVE",
"1223 456 OFFCURVE",
"1212 468 CURVE SMOOTH",
"1133 555 LINE",
"1190 635 OFFCURVE",
"1223 734 OFFCURVE",
"1223 855 CURVE SMOOTH",
"1223 951 OFFCURVE",
"1194 1040 OFFCURVE",
"1141 1117 CURVE",
"1158 1136 OFFCURVE",
"1172 1151 OFFCURVE",
"1183 1162 CURVE SMOOTH",
"1199 1179 LINE SMOOTH",
"1215 1196 OFFCURVE",
"1223 1210 OFFCURVE",
"1223 1223 CURVE SMOOTH",
"1223 1230 OFFCURVE",
"1219 1237 OFFCURVE",
"1211 1242 CURVE SMOOTH",
"1203 1247 OFFCURVE",
"1095 1340 OFFCURVE",
"1077 1353 CURVE",
"1071 1359 OFFCURVE",
"1064 1362 OFFCURVE",
"1057 1362 CURVE SMOOTH",
"1049 1362 OFFCURVE",
"1042 1359 OFFCURVE",
"1037 1354 CURVE SMOOTH",
"962 1273 LINE",
"898 1305 OFFCURVE",
"826 1324 OFFCURVE",
"742 1324 CURVE SMOOTH",
"650 1324 OFFCURVE",
"562 1304 OFFCURVE",
"482 1267 CURVE",
"402 1354 LINE",
"396 1358 LINE SMOOTH",
"393 1361 OFFCURVE",
"388 1362 OFFCURVE",
"382 1362 CURVE SMOOTH",
"375 1362 OFFCURVE",
"368 1359 OFFCURVE",
"362 1353 CURVE",
"344 1340 OFFCURVE",
"236 1247 OFFCURVE",
"228 1242 CURVE SMOOTH",
"219 1236 OFFCURVE",
"216 1229 OFFCURVE",
"216 1221 CURVE SMOOTH",
"216 1206 OFFCURVE",
"231 1189 OFFCURVE",
"253 1165 CURVE SMOOTH",
"290 1125 LINE",
"218 1041 OFFCURVE",
"175 940 OFFCURVE"
);
},
{
closed = 1;
nodes = (
"712 1069 CURVE SMOOTH",
"845 1069 OFFCURVE",
"909 959 OFFCURVE",
"909 844 CURVE SMOOTH",
"909 723 OFFCURVE",
"837 597 OFFCURVE",
"702 597 CURVE SMOOTH",
"565 597 OFFCURVE",
"502 703 OFFCURVE",
"502 815 CURVE SMOOTH",
"502 938 OFFCURVE",
"579 1069 OFFCURVE"
);
}
);
width = 1277;
}
);
unicode = 00A4;
},
{
glyphname = dollar;
layers = (
{
layerId = "083AB92F-A21B-420A-A5F3-096AB5C32ED3";
name = Regular;
paths = (
{
closed = 1;
nodes = (
"762 1367 CURVE",
"778 1450 OFFCURVE",
"803 1566 OFFCURVE",
"803 1571 CURVE SMOOTH",
"803 1575 OFFCURVE",
"802 1578 OFFCURVE",
"794 1578 CURVE",
"698 1563 OFFCURVE",
"594 1556 OFFCURVE",
"501 1549 CURVE",
"480 1546 OFFCURVE",
"488 1535 OFFCURVE",
"482 1500 CURVE SMOOTH",
"451 1309 LINE",
"308 1282 OFFCURVE",
"151 1131 OFFCURVE",
"151 997 CURVE SMOOTH",
"151 897 OFFCURVE",
"198 814 OFFCURVE",
"315 742 CURVE SMOOTH",
"504 625 OFFCURVE",
"532 568 OFFCURVE",
"532 520 CURVE SMOOTH",
"532 439 OFFCURVE",
"370 374 OFFCURVE",
"191 358 CURVE",
"168 254 OFFCURVE",
"143 159 OFFCURVE",
"123 55 CURVE",
"150 55 LINE SMOOTH",
"194 54 OFFCURVE",
"239 57 OFFCURVE",
"278 59 CURVE SMOOTH",
"357 62 LINE",
"346 -129 LINE",
"420 -130 OFFCURVE",
"549 -117 OFFCURVE",
"584 -118 CURVE SMOOTH",
"663 -120 LINE",
"668 -22 OFFCURVE",
"680 122 OFFCURVE",
"683 167 CURVE",
"838 234 OFFCURVE",
"972 346 OFFCURVE",
"972 495 CURVE SMOOTH",
"972 761 OFFCURVE",
"640 816 OFFCURVE",
"640 970 CURVE SMOOTH",
"640 1055 OFFCURVE",
"783 1069 OFFCURVE",
"839 1069 CURVE SMOOTH",
"884 1069 OFFCURVE",
"992 1054 OFFCURVE",
"997 1054 CURVE",
"970 1348 LINE",
"931 1353 OFFCURVE",
"858 1360 OFFCURVE"
);
}
);
width = 993;
}
);
unicode = 0024;
},
{
glyphname = sterling;
layers = (
{
layerId = "083AB92F-A21B-420A-A5F3-096AB5C32ED3";
name = Regular;
paths = (
{
closed = 1;
nodes = (
"286 -58 CURVE SMOOTH",
"486 -58 OFFCURVE",
"898 -48 OFFCURVE",
"911 -48 CURVE SMOOTH",
"950 -48 OFFCURVE",
"957 -37 OFFCURVE",
"966 -14 CURVE",
"1021 89 OFFCURVE",
"1073 182 OFFCURVE",
"1073 203 CURVE SMOOTH",
"1073 226 OFFCURVE",
"1056 232 OFFCURVE",
"1045 232 CURVE SMOOTH",
"1002 232 OFFCURVE",
"846 231 OFFCURVE",
"667 223 CURVE",
"679 340 OFFCURVE",
"696 500 OFFCURVE",
"716 661 CURVE",
"889 661 LINE SMOOTH",
"920 661 OFFCURVE",
"925 672 OFFCURVE",
"934 692 CURVE SMOOTH",
"970 773 LINE SMOOTH",
"1000 840 OFFCURVE",
"1015 883 OFFCURVE",
"1016 890 CURVE",
"1016 907 OFFCURVE",
"1004 914 OFFCURVE",
"993 914 CURVE SMOOTH",
"732 914 LINE",
"737 998 OFFCURVE",
"747 1088 OFFCURVE",
"756 1164 CURVE",
"781 1268 OFFCURVE",
"825 1298 OFFCURVE",
"885 1298 CURVE SMOOTH",
"942 1298 OFFCURVE",
"998 1278 OFFCURVE",
"1054 1250 CURVE SMOOTH",
"1057 1249 OFFCURVE",
"1059 1248 OFFCURVE",
"1059 1248 CURVE",
"1078 1248 OFFCURVE",
"1084 1309 OFFCURVE",
"1156 1451 CURVE SMOOTH",
"1160 1460 OFFCURVE",
"1163 1465 OFFCURVE",
"1163 1472 CURVE SMOOTH",
"1163 1492 OFFCURVE",
"994 1582 OFFCURVE",
"810 1582 CURVE SMOOTH",
"508 1582 OFFCURVE",
"397 1376 OFFCURVE",
"368 1123 CURVE",
"354 914 LINE",
"232 914 LINE",
"224 897 OFFCURVE",
"115 696 OFFCURVE",
"115 681 CURVE SMOOTH",
"115 662 OFFCURVE",
"145 658 OFFCURVE",
"217 658 CURVE SMOOTH",
"320 658 LINE",
"300 481 OFFCURVE",
"282 307 OFFCURVE",
"270 175 CURVE",
"198 111 OFFCURVE",
"87 -9 OFFCURVE",
"87 -30 CURVE SMOOTH",
"87 -53 OFFCURVE",
"126 -58 OFFCURVE",
"206 -58 CURVE SMOOTH",
"223 -58 OFFCURVE",
"247 -58 OFFCURVE",
"278 -57 CURVE",
"279 -58 OFFCURVE",
"282 -58 OFFCURVE"
);
}
);
width = 1113;
}
);
unicode = 00A3;
},
{
glyphname = yen;
layers = (
{
layerId = "083AB92F-A21B-420A-A5F3-096AB5C32ED3";
name = Regular;
paths = (
{
closed = 1;
nodes = (
"384 723 LINE",
"324 719 OFFCURVE",
"241 573 OFFCURVE",
"241 541 CURVE SMOOTH",
"241 522 OFFCURVE",
"287 517 OFFCURVE",
"388 517 CURVE SMOOTH",
"471 517 LINE",
"459 434 LINE",
"458 433 OFFCURVE",
"457 430 OFFCURVE",
"457 426 CURVE",
"336 424 LINE",
"276 420 OFFCURVE",
"193 274 OFFCURVE",
"193 242 CURVE SMOOTH",
"193 223 OFFCURVE",
"239 218 OFFCURVE",
"340 218 CURVE SMOOTH",
"422 218 LINE",
"409 134 OFFCURVE",
"397 49 OFFCURVE",
"393 -15 CURVE SMOOTH",
"393 -19 LINE SMOOTH",
"393 -42 OFFCURVE",
"411 -51 OFFCURVE",
"434 -51 CURVE SMOOTH",
"455 -51 OFFCURVE",
"480 -44 OFFCURVE",
"501 -33 CURVE",
"765 36 LINE",
"788 49 OFFCURVE",
"792 60 OFFCURVE",
"800 104 CURVE SMOOTH",
"820 222 LINE",
"911 222 LINE SMOOTH",
"1030 222 OFFCURVE",
"1052 223 OFFCURVE",
"1055 247 CURVE SMOOTH",
"1064 314 LINE SMOOTH",
"1069 349 OFFCURVE",
"1074 388 OFFCURVE",
"1074 405 CURVE SMOOTH",
"1074 431 OFFCURVE",
"1046 438 OFFCURVE",
"1026 440 CURVE",
"1003 440 OFFCURVE",
"939 439 OFFCURVE",
"858 436 CURVE",
"872 521 LINE",
"960 521 LINE SMOOTH",
"1077 521 OFFCURVE",
"1100 522 OFFCURVE",
"1103 546 CURVE SMOOTH",
"1112 613 LINE SMOOTH",
"1117 648 OFFCURVE",
"1122 687 OFFCURVE",
"1122 704 CURVE SMOOTH",
"1122 729 OFFCURVE",
"1094 739 OFFCURVE",
"1074 739 CURVE SMOOTH",
"1058 739 OFFCURVE",
"1021 738 OFFCURVE",
"974 737 CURVE",
"1144 1049 LINE",
"1329 1394 LINE SMOOTH",
"1336 1407 OFFCURVE",
"1336 1419 OFFCURVE",
"1337 1426 CURVE",
"1337 1440 OFFCURVE",
"1329 1447 OFFCURVE",
"1314 1447 CURVE SMOOTH",
"1309 1447 OFFCURVE",
"1302 1446 OFFCURVE",
"1294 1444 CURVE SMOOTH",
"951 1358 LINE",
"945 1358 OFFCURVE",
"895 1265 OFFCURVE",
"844 1174 CURVE",
"745 991 LINE",
"739 976 LINE",
"508 1424 LINE",
"492 1440 OFFCURVE",
"480 1445 OFFCURVE",
"469 1445 CURVE SMOOTH",
"462 1445 OFFCURVE",
"454 1443 OFFCURVE",
"445 1439 CURVE SMOOTH",
"330 1393 LINE SMOOTH",
"269 1369 OFFCURVE",
"205 1342 OFFCURVE",
"187 1332 CURVE",
"179 1319 OFFCURVE",
"177 1306 OFFCURVE",
"177 1295 CURVE SMOOTH",
"177 1286 OFFCURVE",
"177 1280 OFFCURVE",
"178 1278 CURVE SMOOTH",
"180 1271 LINE",
"216 1199 OFFCURVE",
"353 908 OFFCURVE",
"437 724 CURVE"
);
}
);
width = 1263;
}
);
unicode = 00A5;
},
